<?xml version="1.0" encoding="utf-8"?>
<!-- Generator: Adobe Illustrator 27.5.0, SVG Export Plug-In . SVG Version: 6.00 Build 0)  -->
<svg version="1.1" id="Layer_1" xmlns="http://www.w3.org/2000/svg" xmlns:xlink="http://www.w3.org/1999/xlink" x="0px" y="0px"
	 viewBox="0 0 423.337 305.347" style="enable-background:new 0 0 423.337 305.347;" xml:space="preserve">
<g>
	<g>
		<g>
			<path style="fill:#B01A1F;" d="M314.749,179.443c-6.636,0.001-12.535-2.688-16.151-7.757
				c-7.848-11.002-2.496-28.751,14.317-47.48c9.88-11.006,6.41-19.089,2.014-29.322c-2.418-5.63-5.023-11.695-5.481-18.799
				c-1.226-0.149-2.461-0.411-3.698-0.788c-11.354-3.462-21.389-15.798-26.846-33c-4.055-12.785-13.2-25.702-26.738-23.605
				c-9.251,1.432-15.966,9.735-15.966,19.742V81.44c0,0.847-0.687,1.535-1.535,1.535s-1.535-0.687-1.535-1.535V38.434
				c0-11.532,7.809-21.11,18.566-22.775c10.119-1.566,23.362,4.362,30.132,25.711c5.151,16.238,14.428,27.825,24.816,30.992
				c0.922,0.281,1.838,0.49,2.745,0.625c0.116-4.277,1.059-8.926,3.278-14.065c2.338-5.418,6.419-8.514,10.95-8.306
				c3.597,0.172,6.627,2.472,7.719,5.859c0.744,2.307,1.527,8.424-7.244,15.397c-3.445,2.738-7.411,4.209-11.565,4.35
				c0.478,6.409,2.872,11.984,5.221,17.451c4.444,10.345,8.641,20.117-2.551,32.583c-23.39,26.054-16.708,39.995-14.102,43.647
				c4.683,6.567,14.1,8.33,23.44,4.381c13.908-5.88,30.568-20.17,30.735-20.313c0.641-0.553,1.612-0.482,2.164,0.16
				c0.553,0.642,0.482,1.611-0.16,2.164c-0.695,0.6-17.188,14.746-31.544,20.816C322.019,178.682,318.28,179.443,314.749,179.443z
				 M323.188,53.675c-3.081,0-5.943,2.394-7.701,6.465c-2.062,4.777-2.938,9.07-3.036,13.03c3.492-0.114,6.787-1.357,9.733-3.698
				c5.044-4.01,7.374-8.516,6.234-12.054c-0.696-2.159-2.638-3.625-4.945-3.736C323.378,53.678,323.282,53.675,323.188,53.675z"/>
			<path style="fill:#5A0000;" d="M314.746,179.597c-6.796,0-12.726-2.85-16.271-7.822c-7.892-11.064-2.537-28.885,14.328-47.672
				c9.816-10.934,6.361-18.977,1.987-29.158c-2.462-5.731-5.003-11.651-5.485-18.723c-1.197-0.153-2.407-0.415-3.598-0.778
				c-11.402-3.477-21.475-15.851-26.947-33.101c-4.037-12.726-13.143-25.584-26.569-23.499c-9.176,1.42-15.836,9.659-15.836,19.59
				V81.44c0,0.931-0.757,1.688-1.688,1.688c-0.931,0-1.688-0.757-1.688-1.688V38.434c0-11.608,7.863-21.25,18.697-22.927
				c10.19-1.578,23.503,4.379,30.301,25.817c5.136,16.19,14.375,27.74,24.715,30.891c0.853,0.26,1.711,0.46,2.553,0.594
				c0.148-4.609,1.223-9.173,3.285-13.949c2.286-5.296,6.249-8.408,10.664-8.408c0.145,0,0.289,0.003,0.434,0.01
				c3.661,0.175,6.746,2.517,7.858,5.965c0.754,2.337,1.552,8.531-7.294,15.564c-3.385,2.69-7.356,4.202-11.496,4.377
				c0.505,6.321,2.89,11.873,5.197,17.243c4.464,10.392,8.68,20.207-2.577,32.747c-23.314,25.969-16.68,39.827-14.091,43.455
				c4.642,6.508,13.99,8.246,23.255,4.329c13.687-5.788,30.005-19.697,30.693-20.287c0.343-0.296,0.769-0.439,1.23-0.407
				c0.45,0.034,0.859,0.24,1.152,0.581c0.607,0.704,0.528,1.772-0.176,2.38c-0.695,0.601-17.21,14.764-31.584,20.841
				c-3.677,1.556-7.393,2.344-11.043,2.344l0,0C314.749,179.597,314.747,179.597,314.746,179.597z M255.042,18.313
				c12.039,0,20.232,12.024,24.01,23.938c5.442,17.154,15.44,29.453,26.745,32.9c1.216,0.372,2.451,0.634,3.672,0.783
				c0.073,0.008,0.13,0.068,0.134,0.142c0.456,7.076,3.003,13.007,5.467,18.743c4.419,10.288,7.908,18.41-2.039,29.491
				c-16.761,18.67-22.11,36.348-14.306,47.288c3.488,4.888,9.327,7.692,16.022,7.692c0.002,0,0.003,0,0.004,0l0,0
				c3.609,0,7.283-0.779,10.923-2.318c14.331-6.06,30.81-20.193,31.504-20.791c0.576-0.498,0.64-1.371,0.144-1.948
				c-0.24-0.279-0.574-0.448-0.943-0.475c-0.369-0.03-0.725,0.09-1.005,0.331c-0.691,0.592-17.045,14.533-30.775,20.338
				c-9.402,3.98-18.896,2.196-23.624-4.433c-2.621-3.675-9.353-17.699,14.113-43.839c11.125-12.393,6.947-22.121,2.524-32.419
				c-2.337-5.44-4.753-11.063-5.233-17.501c-0.003-0.041,0.011-0.082,0.039-0.114c0.028-0.031,0.067-0.049,0.109-0.051
				c4.13-0.14,8.098-1.632,11.474-4.316c8.698-6.914,7.928-12.955,7.194-15.23c-1.072-3.326-4.047-5.585-7.58-5.753
				c-0.14-0.006-0.28-0.009-0.419-0.009c-4.29,0-8.148,3.043-10.383,8.223c-2.072,4.798-3.14,9.381-3.265,14.009
				c-0.002,0.044-0.022,0.085-0.055,0.114c-0.034,0.029-0.076,0.04-0.122,0.034c-0.91-0.137-1.841-0.349-2.767-0.63
				c-10.436-3.182-19.751-14.805-24.917-31.093c-6.741-21.256-19.902-27.165-29.963-25.606
				c-10.682,1.653-18.435,11.168-18.435,22.623V81.44c0,0.761,0.619,1.381,1.381,1.381c0.761,0,1.381-0.619,1.381-1.381V38.434
				c0-10.084,6.77-18.45,16.097-19.894C253.133,18.387,254.1,18.313,255.042,18.313z M312.452,73.324
				c-0.04,0-0.079-0.016-0.108-0.045c-0.03-0.03-0.047-0.071-0.046-0.113c0.107-4.3,1.104-8.581,3.049-13.088
				c1.826-4.231,4.888-6.705,8.132-6.55c2.374,0.114,4.369,1.621,5.085,3.842c1.161,3.6-1.189,8.169-6.284,12.22
				c-2.969,2.361-6.274,3.617-9.824,3.732C312.455,73.324,312.454,73.324,312.452,73.324z M323.189,53.828
				c-3.011,0-5.837,2.382-7.56,6.372c-1.904,4.413-2.893,8.605-3.019,12.81c3.421-0.146,6.609-1.377,9.479-3.659
				c4.992-3.968,7.303-8.412,6.184-11.887c-0.676-2.097-2.564-3.523-4.806-3.631C323.375,53.832,323.281,53.828,323.189,53.828z"/>
		</g>
		<path style="fill:#B01A1F;" d="M309.909,79.019c0.047-0.142,0.125-0.279,0.193-0.407c0.018-0.034,0.039-0.067,0.063-0.098
			c0.084-0.106,0.17-0.218,0.274-0.308c0.105-0.092,0.223-0.176,0.349-0.237c0.008-0.004,0.016-0.007,0.025-0.011
			c0.082-0.034,0.229-0.085,0.315-0.111c0.017-0.005,0.034-0.01,0.052-0.013c0.141-0.022,0.29-0.044,0.432-0.024
			c0.12,0.017,0.296,0.037,0.424,0.096c0.11,0.05,0.272,0.117,0.383,0.201c0.186,0.143,0.269,0.227,0.37,0.376
			c-0.105-0.719-0.193-1.446-0.25-2.186c-0.547,0.035-1.096,0.041-1.637,0.001c-0.469-0.034-0.974-0.053-1.446-0.165
			c0.073,1.106,0.213,2.18,0.381,3.238C309.854,79.254,309.871,79.133,309.909,79.019z"/>
		<path style="fill:#B01A1F;" d="M312.597,73.159c-0.049,0.002-0.096,0.009-0.145,0.011c0.027-1.089,0.119-2.206,0.273-3.349
			c-0.014,0.031-0.023,0.063-0.04,0.092c-0.033,0.083-0.101,0.143-0.155,0.212c-0.009,0.032-0.014,0.065-0.025,0.096
			c-0.178,0.52-0.558,0.964-1.119,1.077c-0.485,0.098-1.023-0.084-1.338-0.468c-0.186-0.226-0.327-0.507-0.36-0.801
			c-0.017-0.158-0.021-0.318-0.023-0.477c-0.151,1.166-0.241,2.306-0.272,3.42c0.757,0.13,1.522,0.233,2.29,0.253
			c0.046-0.004,0.092-0.004,0.138-0.008c0.106-0.022,0.214-0.038,0.323-0.038c0.151,0,0.302-0.005,0.453-0.01V73.159z"/>
		<path style="fill:#5A0000;" d="M311.806,73.337c-0.747,0-1.733-0.045-2.625-0.226c-0.083-0.017-0.136-0.099-0.12-0.182
			c0.017-0.082,0.092-0.135,0.182-0.12c1.183,0.242,2.547,0.234,3.256,0.208c0.002-0.001,0.004-0.001,0.006-0.001
			c0.082,0,0.15,0.065,0.153,0.148c0.004,0.085-0.063,0.156-0.147,0.159C312.318,73.331,312.077,73.337,311.806,73.337z"/>
		<path style="fill:#5A0000;" d="M312.034,76.383c-0.851,0-1.942-0.052-2.892-0.182c-0.084-0.011-0.143-0.089-0.131-0.173
			c0.011-0.084,0.095-0.143,0.173-0.131c1.183,0.16,2.594,0.196,3.46,0.169c0.002-0.001,0.004-0.001,0.006-0.001
			c0.082,0,0.15,0.065,0.153,0.148c0.004,0.085-0.063,0.156-0.147,0.159C312.47,76.379,312.261,76.383,312.034,76.383z"/>
		<path style="fill:#B01A1F;" d="M277.37,35.796c-0.146,0-0.285-0.084-0.35-0.225c-2.688-5.928-10.417-19.491-24.031-17.38
			c-0.22,0.041-0.406-0.112-0.438-0.32c-0.033-0.21,0.111-0.406,0.32-0.438c9.967-1.545,19.013,4.954,24.848,17.82
			c0.087,0.194,0.002,0.421-0.191,0.508C277.477,35.785,277.423,35.796,277.37,35.796z"/>
		<path style="fill:#B01A1F;" d="M306.515,74.801c-0.037,0-0.075-0.005-0.112-0.017c-6.536-1.992-12.721-6.901-17.889-14.198
			c-0.123-0.173-0.082-0.413,0.091-0.535c0.171-0.122,0.413-0.083,0.535,0.091c5.069,7.157,11.116,11.967,17.487,13.909
			c0.203,0.062,0.317,0.276,0.255,0.479C306.832,74.696,306.68,74.801,306.515,74.801z"/>
	</g>
	<g>
		<g>
			<g>
				<g>
					<g>
						<g>
							<g>
								<g>
									<path style="fill:#9C5116;" d="M396.917,154.123c-2.928-10.623-8.121-22.33-18.063-27.573
										c-12.022,7.959-59.622,34.105-71.764,41.883c-10.822,6.939-21.83,13.483-33.064,19.685
										c3.052,5.883,4.414,13.575,5.701,19.684c1.374,6.513,1.687,13.18,2.757,19.725c4.651-1.085,9.288-2.184,13.89-3.242
										c17.802-4.088,35.034-9.615,51.874-16.657c5.714-2.387,48.124-17.255,53.599-20.001
										C403.146,178.548,399.071,161.938,396.917,154.123z"/>
									<path style="fill:#FAD6BE;" d="M396.917,154.123c-2.714-9.849-7.378-20.628-15.964-26.329
										c-1.802,1.292-3.583,2.605-5.281,4.005c-10.643,7.242-57.07,32.43-67.93,39.317c-10.664,6.767-21.463,13.402-32.602,19.395
										c0.152,0.363,0.285,0.742,0.427,1.116c0.06,0.057,0.129,0.103,0.186,0.162c0.065,0.066,0.04,0.15,0.036,0.235
										c-0.03-0.014-0.061-0.029-0.089-0.043c1.92,5.146,3.005,10.974,4.027,15.82c1.189,5.64,1.581,11.396,2.357,17.087
										c4.873-1.163,9.741-2.346,14.589-3.546c14.897-3.681,29.613-7.88,43.879-13.54c8.154-3.234,53.363-18.958,61.571-22.839
										C402.63,176.537,398.865,161.184,396.917,154.123z"/>
									<path style="fill:#F9CEB2;" d="M399.578,165.039c-8.036,3.241-51.643,24.349-59.02,27.133
										c-16.671,6.29-33.596,11.897-50.703,16.888c-3.525,1.031-6.482,2.324-9.487,2.243c0.722,4.51,1.1,9.069,1.716,13.585
										c4.873-1.163,9.741-2.346,14.589-3.546c14.897-3.681,29.613-7.88,43.879-13.54c8.154-3.234,53.363-18.958,61.571-22.839
										C402.396,180.429,400.472,169.598,399.578,165.039z"/>
								</g>
								<path style="opacity:0.6;fill:#FAEAE1;" d="M383.007,129.309c-7.03,3.737-48.867,26.967-55.866,30.729
									c-13.668,7.351-26.536,17.114-39.617,25.511c-0.454,0.29-0.499,1.046,0.172,0.691c13.694-7.201,27.069-14.793,40.26-22.842
									c7.197-4.395,49.735-27.343,56.871-31.849c0.123-0.078,0.267-0.151,0.398-0.229
									C384.522,130.607,383.78,129.941,383.007,129.309z"/>
							</g>
						</g>
					</g>
				</g>
			</g>
			<g>
				<path style="fill:#9C5116;" d="M300.231,212.2c-0.568,1.549-1.249,3.054-1.864,4.468c-1.734,3.972-3.814,9.213-8.034,11.131
					c-0.759,0.348-1.546-0.067-1.608-0.923c-0.549-7.422,1.967-14.618-2.207-21.493c-1.924-3.17-4.076-6.092-7.259-8.107
					c-1.239-0.784-3.625-1.586-4.426-2.864c-1.62-2.578,2.128-5.777,5.911-7.954c-6.171-2.067-13.59-1.09-19.721-0.125
					c-2.682,0.422-13.067,4.578-18.112,5.749c-6.861-1.312-12.74-2.999-19.871-2.441c-7.04,0.551-13.992,3.627-20.346,6.446
					c-3.495,1.553-6.862,3.389-10.222,5.213c-1.738,0.944-4.509,3.206-7.203,5.098c-24.319-11.255-44.486-30.049-64.615-47.478
					c-6.112-5.291-50.35-44.111-56.671-49.187c-18.751,4.272-38.84,30.091-42.816,48.491c7.757,6.033,48.024,31.951,64.178,41.618
					c25.339,15.164,56.061,30.814,85.1,37.53c0.264,1.579,0.509,2.995,0.474,2.88c1.447,4.643,3.508,8.136,6.331,12.085
					c0.592,0.828,1.221,1.633,1.832,2.452c0.066-0.179,0.147-0.348,0.219-0.523c-1.69,6.075-3.024,12.065,3.568,15.638
					c2.879,1.56,5.716-0.263,7.87-2.533c-0.159,0.677-0.314,1.355-0.467,2.025c-1.622,7.037-1.834,15.098,7.096,15.532
					c3.21,0.156,6.332-2.935,9.032-6.822c-0.839,5.518-0.033,10.528,5.045,11.726c4.588,1.081,7.784-1.504,10.099-5.265
					c-0.152,3.185,0.719,6.273,4.948,5.262c4.466-1.067,7.68-3.548,10.359-6.755c7.503,3.359,14.291-1.737,18.171-8.747
					c2.647,0.352,6.923-2.674,8.21-3.709c2.748-2.219,4.39-6.185,4.872-9.876c4.186-3.277,9.319-8.751,8.754-14.076
					c4.919-2.489,9.637-5.298,13.938-8.582C299.128,231.722,300.698,222.033,300.231,212.2z"/>
				<path style="fill:#FAD6BE;" d="M257.354,195.505c-4.663-0.484-9.32,0.124-13.991-0.444c-0.998-0.121-1.994-0.18-2.992-0.245
					c-0.59-0.138-1.186-0.252-1.768-0.408c-15.41-4.094-28.752,0.398-42.484,7.518c-3.913,2.031-12.941,9.187-17.29,8.762
					c-0.676-0.064,0.155-1.279,0.603-1.319c0.731-0.066,1.62-0.419,2.589-0.929c-8.432-3.159-16.44-8.893-23.116-14.076
					c-12.65-9.817-25.053-19.986-37.172-30.465c-7.725-6.68-53.474-46.903-61.415-53.187c-16.223,5.123-33.926,28.731-38.475,44.785
					c8.05,6.356,56.567,36.798,65.129,42.333c25.506,16.487,54.757,27.439,83.183,37.752c-0.017-0.106-0.027-0.179-0.041-0.279
					c0.815,0.482,1.647,0.933,2.478,1.387c0.436,2.012,1.491,3.889,2.114,5.894c0.633,2.082,1.314,4.013,2.184,5.237
					c0.973,1.366,1.99,2.798,3.034,4.24c2.623-9.243,5.318-17.443,12.402-24.412c6.426-6.315,13.255-12.469,20.68-17.651
					c-0.295-0.144-0.162-0.642,0.071-1.063c4.539-2.122,8.152-3.411,13.533-2.87c6.141,0.617,12.102,2.415,18.163,3.492
					c6.628,1.18,12.675-1.227,16.72-6.623C264.333,199.142,261.408,195.927,257.354,195.505z"/>
				<path style="fill:#F9CEB2;" d="M257.354,195.505c-1.329-0.138-2.657-0.18-3.986-0.193c0.537,0.572,1.022,1.192,1.364,1.929
					c2.919,6.272-9.529,5.355-11.862,5.146c-11.897-1.074-26.704-3.06-37.252,4.024c-5.197,3.49-10.416,7.793-14.398,12.658
					c-4.132,5.043-6.662,10.869-10.207,16.28c-0.423,0.649-1.44,0.736-1.845,0c-3.705-6.735-1.178-16.418,2.823-22.506
					c0.955-1.454,2.004-2.824,3.095-4.157c-2.396,1.277-4.647,2.16-6.257,2.003c-0.676-0.064,0.155-1.279,0.603-1.319
					c0.731-0.066,1.62-0.419,2.589-0.929c-4.726-1.771-9.307-4.36-13.608-7.197c0.13,0.242,0.281,0.476,0.401,0.723
					c3.156,6.391,6.727,20.154-3.465,21.944c-4.616,0.811-9.849-1.35-14.042-2.911c-6.621-2.47-12.985-5.545-19.391-8.535
					C71.83,184.41,38.306,156.892,27.341,143.18c-2.396,3.869-4.278,8.012-5.497,12.317c8.05,6.356,56.567,36.798,65.129,42.333
					c25.506,16.487,54.757,27.439,83.183,37.752c-0.017-0.106-0.027-0.179-0.041-0.279c0.815,0.482,1.647,0.933,2.478,1.387
					c0.436,2.012,1.491,3.889,2.114,5.894c0.633,2.082,1.314,4.013,2.184,5.237c0.973,1.366,1.99,2.798,3.034,4.24
					c2.623-9.243,5.318-17.443,12.402-24.412c6.426-6.315,13.255-12.469,20.68-17.651c-0.295-0.144-0.162-0.642,0.071-1.063
					c4.539-2.122,8.152-3.411,13.533-2.87c6.141,0.617,12.102,2.415,18.163,3.492c6.628,1.18,12.675-1.227,16.72-6.623
					C264.333,199.142,261.408,195.927,257.354,195.505z"/>
				<path style="fill:#F4C2A1;" d="M255.576,267.693c-0.021,0.268-0.135,0.467-0.279,0.631c-1.094,3.212-2.976,6.415-4.464,8.493
					c-3.327,4.651-7.789,4.803-12.592,4.475c0.773-1.065,1.517-2.175,2.23-3.338c0.544-0.89,1.08-1.779,1.614-2.667
					c-0.272-1.204-0.364-2.495-0.297-3.816c-0.047,0.079-0.096,0.154-0.142,0.234c0.068-0.293,0.13-0.591,0.194-0.884
					c0.419-4.67,2.75-9.558,6.144-11.884c2.196-1.506,4.595-2.357,6.769-0.412c1.284,1.147,1.497,2.882,1.388,4.654
					c0.073,1.259-0.118,2.62-0.507,4.017C255.616,267.36,255.589,267.538,255.576,267.693z"/>
				<path style="fill:#F4C2A1;" d="M264.221,266.355c-0.882,1.672-2.14,3.01-3.776,4.012c-0.498,0.351-2.746,1.489-4.431,1.973
					c1.978-4.35,2.856-9.164,2.156-13.057c-0.162-0.896-0.466-1.574-0.83-2.153c-0.819-0.527-1.782-0.874-2.672-1.148
					c-0.833-0.252-0.97-1.164-0.472-1.787c0.409-0.513,0.912-1.089,1.481-1.649c0.234-0.336,0.462-0.676,0.712-1.006
					c1.146-1.519,2.322-1.972,3.439-1.79c0.014,0.03,0.05,0.036,0.073,0.056c1.473-0.379,2.934-0.035,4.101,1.738
					c0.947,1.439,1.398,3.19,1.553,5c0.041,0.145,0.104,0.311,0.128,0.433C266.353,260.09,265.563,263.543,264.221,266.355z"/>
				<path style="fill:#F4C2A1;" d="M274.131,249.706c-0.215,1.267-0.856,2.53-1.588,3.69c-0.163,0.353-0.311,0.699-0.429,1.035
					c-0.135,0.379-0.411,0.585-0.718,0.673c-0.136,0.194-0.274,0.392-0.396,0.571c-0.412,0.598-1.716,1.866-2.754,3.084
					c0.005-0.267,0.023-0.539,0.012-0.796c-0.014-0.34-0.059-0.711-0.099-1.073c-0.116-0.125-0.212-0.276-0.246-0.498
					c-0.486-2.969-1.531-5.295-3.648-7.46c-0.13-0.135-0.208-0.276-0.257-0.422c-0.368-0.241-0.758-0.444-1.174-0.605
					c0.817-0.74,1.647-1.467,2.604-2.09c1.609-1.048,3.697-1.516,5.455-1.098c1.119-0.013,2.17,0.311,2.844,1.299
					C274.546,247.199,274.498,248.457,274.131,249.706z"/>
				<path style="fill:#F9CEB2;" d="M242.785,281.3c5.727-3.147,3.801-14.123,6.021-19.572c0.818-2.012,2.514-3.719,4.299-4.147
					c-0.265-0.083-0.535-0.144-0.805-0.166c-0.171,0.202-0.43,0.339-0.78,0.339h-0.224c-0.229,0-0.409-0.075-0.563-0.171
					c-0.932,0.25-1.857,0.74-2.75,1.353c-3.394,2.326-5.725,7.214-6.144,11.884c-0.064,0.294-0.127,0.592-0.194,0.884
					c0.046-0.079,0.095-0.154,0.142-0.234c-0.067,1.322,0.025,2.613,0.297,3.816c-0.534,0.888-1.07,1.777-1.614,2.667
					c-0.713,1.163-1.457,2.272-2.23,3.338C239.803,281.398,241.324,281.435,242.785,281.3z"/>
				<path style="fill:#F9CEB2;" d="M258.169,259.282c0.69,3.833-0.156,8.553-2.072,12.85c0.121-0.182,0.28-0.344,0.528-0.437
					c3.31-1.242,4.355-5.725,4.189-8.893c-0.146-2.733-1.941-5.151-1.96-7.843c-0.014-1.925,1.234-4.539,2.888-5.18
					c-0.597-0.154-1.218-0.134-1.842,0.027c-0.023-0.02-0.059-0.026-0.073-0.056c-1.117-0.182-2.293,0.271-3.439,1.79
					c-0.25,0.33-0.478,0.669-0.712,1.006c-0.569,0.56-1.072,1.136-1.481,1.649c-0.498,0.623-0.361,1.535,0.472,1.787
					c0.89,0.274,1.853,0.621,2.672,1.148C257.704,257.708,258.007,258.386,258.169,259.282z"/>
				<path style="fill:#F9CEB2;" d="M273.916,246.374c-0.061-0.12-0.1-0.24-0.18-0.358c-0.674-0.988-1.725-1.312-2.844-1.299
					c-1.758-0.418-3.846,0.051-5.455,1.098c-0.957,0.623-1.786,1.349-2.604,2.09c0.416,0.161,0.806,0.364,1.174,0.605
					c0.049,0.146,0.127,0.287,0.257,0.422c1.652,1.689,2.639,3.488,3.228,5.604C268.52,251.656,271.221,247.232,273.916,246.374z"/>
				<path style="fill:#FAD6BE;" d="M282.375,241.378c-1.962,1.171-4.009,2.197-6.082,3.177c-0.052-0.126-0.084-0.252-0.144-0.375
					c-3.089-6.402-11.961-1.218-15.289,3.341c-0.043,0-0.083-0.013-0.13-0.013c-4.179,0.02-7.027,3.928-8.588,7.638
					c-2.314,0.353-4.759,1.598-6.337,2.86c-4.757,3.797-7.097,11.84-6.529,17.727c-0.314,0.552-0.635,1.105-0.949,1.66
					c-1.029,2.071-2.343,3.872-3.949,5.405c-0.678,0.927-1.41,1.81-2.264,2.533c-1.786,1.514-4.706,3.048-7.013,1.581
					c-3.212-2.035-1.476-6.801,0.391-10.094c1.462-4.783,4.402-9.079,6.639-13.613c2.594-3.375,5.346-6.71,7.493-10.322
					c-1.43,0.796-2.803,1.695-4.148,2.643c-2.818,3.241-6.291,8.208-7.03,9.204c-0.934,1.263-1.732,2.508-2.483,3.76
					c-1.267,3.442-2.293,6.923-3.667,10.359c-1.701,4.253-4.313,9.49-9.783,8.975c-3.805-0.359-4.391-5.998-4.304-8.839
					c0.181-5.809,2.457-11.15,4.982-16.313c0.078-0.244,0.156-0.514,0.236-0.752c1.789-5.374,5.603-9.913,8.85-14.447
					c2.274-3.175,3.864-6.831,5.965-10.122c0.066-0.104,0.087-0.276-0.05-0.329l-0.168-0.069c-0.17-0.069-0.364,0.234-0.307,0.375
					c-0.086-0.209-5.566,6.768-5.908,7.255c-2.661,3.784-5.792,7.222-7.922,11.335c-1.744,3.368-3.333,6.881-4.825,10.438
					c-2.206,8.053-5.384,17.579-15.249,14.713c-6.424-1.867-0.869-14.788,2.23-22.486c0.518-1.665,1.075-3.291,1.707-4.882
					c0.003-0.032,0.02-0.079,0.025-0.107c0.029-0.213,0.114-0.361,0.22-0.483c1.27-3.099,2.833-6.11,5.014-9.148
					c6.383-8.883,15.856-16.29,20.221-26.46c0.11-0.257-0.191-0.201-0.301-0.081c-8.243,8.901-16.634,17.998-23.735,27.849
					c-3.466,4.809-5.464,10.454-6.999,16.199c-0.136,0.882-0.326,1.743-0.65,2.538c-0.036,0.142-0.077,0.284-0.109,0.426
					c-0.064,0.048-0.121,0.086-0.185,0.133c-0.363,0.715-0.804,1.393-1.44,1.971c-1.709,1.553-4.832,1.442-6.7,0.246
					c-7.122-4.556-0.89-15.886,1.173-21.931c0.011-0.04,0.028-0.078,0.038-0.118c0.025-0.075,0.059-0.159,0.081-0.232
					c0-0.005,0.005-0.005,0.005-0.008c1.588-4.648,3.602-8.9,6.91-12.993c1.475-1.822,16.494-16.14,22.947-21.693
					c9.098-2.297,17.461,0.268,26.445,2.117c4.744,0.975,10.93,2.22,15.298-0.804c4.515-3.132,13.328-10.168,7.725-15.868
					c-3.385-3.445-15.149-2.156-19.695-2.96c19.011-4.025,40.074-9.943,51.342,10.913
					C303.134,217.557,295.262,233.671,282.375,241.378z"/>
				<path style="fill:#F9CEB2;" d="M191.438,264.436c0.032-0.142,0.072-0.284,0.109-0.426c0.324-0.796,0.514-1.656,0.65-2.538
					c1.535-5.745,3.533-11.39,6.999-16.199c6.666-9.246,14.468-17.822,22.218-26.2c0.28-0.976,0.584-1.944,0.899-2.906
					c-9.944,5.574-20.815,13.178-26.281,23.211c-3.371,6.193-4.298,12.792-7.246,19.026c-1.35,2.857-4.336,6.134-7.068,2.503
					c-0.821-1.093-1.342-2.243-1.669-3.428c-0.642,3.747-0.18,7.232,3.064,9.307c1.868,1.196,4.991,1.306,6.7-0.246
					c0.636-0.578,1.077-1.255,1.44-1.971C191.316,264.523,191.373,264.485,191.438,264.436z"/>
				<path style="fill:#F9CEB2;" d="M213.887,255.921c2.13-4.113,5.261-7.551,7.922-11.335c0.097-0.14,0.626-0.823,1.322-1.71
					c0.021-0.029,0.025-0.061,0.05-0.089c3.046-3.674,5.74-7.458,7.73-11.712c-9.681,7.352-19.705,15.028-23.428,26.965
					c-1.732,5.56-3.164,11.478-6.712,16.228c-2.505,3.355-5.509,2.701-7.343-0.776c-0.812-1.54-1.107-3.278-1.08-5.102
					c-1.867,5.905-2.595,11.503,1.465,12.683c9.865,2.865,13.042-6.661,15.249-14.713
					C210.553,262.802,212.143,259.289,213.887,255.921z"/>
				<path style="fill:#F9CEB2;" d="M295.383,203.21c-2.318-4.284-5.054-7.418-8.095-9.691c4.177,4.846,6.27,10.899,4.093,18.547
					c-2.068,7.267-6.869,12.967-12.839,17.295c-0.607,0.556-1.238,1.089-1.897,1.59c-3.4,2.577-7.637,3.41-10.994,5.849
					c-4.222,3.063-7.813,6.994-11.567,10.596c-3.28,3.148-8.209,5.882-11.04,9.335c-2.901,3.537-4.242,7.752-6.123,11.849
					c-1.585,3.457-4.921,10.948-9.854,10.437c-1.102-0.114-1.668-0.72-1.906-1.575c-1.722,3.249-3.08,7.559-0.06,9.472
					c2.308,1.467,5.228-0.067,7.013-1.581c0.855-0.724,1.586-1.606,2.264-2.533c1.606-1.533,2.92-3.334,3.949-5.405
					c0.314-0.556,0.635-1.108,0.949-1.66c-0.568-5.887,1.773-13.93,6.529-17.727c1.578-1.262,4.022-2.506,6.337-2.86
					c1.561-3.711,4.409-7.618,8.588-7.638c0.047,0,0.087,0.013,0.13,0.013c3.327-4.558,12.2-9.743,15.289-3.341
					c0.06,0.123,0.091,0.249,0.144,0.375c2.073-0.981,4.12-2.006,6.082-3.177C295.262,233.671,303.134,217.557,295.383,203.21z"/>
				<path style="fill:#F9CEB2;" d="M218.134,211.321c3,0.215,5.718,1.042,8.482,2.244c4.563,1.984,9.417,2.995,14.373,3.337
					c6.865,0.476,14.833,0.691,21.052-2.783c3.598-2.01,7.897-6.317,6.191-11.032c-0.574-1.587-1.538-2.794-2.716-3.759
					c-0.021,4.653-6.026,9.385-9.506,11.797c-4.368,3.024-10.554,1.779-15.298,0.804c-8.984-1.85-17.347-4.414-26.445-2.117
					c-1.214,1.044-2.746,2.418-4.422,3.943C212.579,212.188,215.375,211.122,218.134,211.321z"/>
				<path style="fill:#F9CEB2;" d="M228.446,264.732c0.739-0.997,4.212-5.964,7.03-9.204c0.378-0.266,0.766-0.518,1.148-0.775
					c0.032-0.194,0.108-0.385,0.282-0.561c3.822-3.795,7.987-7.574,10.668-12.289c-4.029,2.268-7.669,5.12-11.34,7.962
					c-3.496,2.702-7.489,4.991-9.697,8.979c-2.778,5.023-3.912,11.216-7.274,15.916c-1.693,2.365-4.793,5.17-7.623,2.509
					c-1.471-1.381-2.155-3.078-2.365-4.893c-0.599,2.143-0.995,4.34-1.067,6.611c-0.087,2.841,0.5,8.48,4.304,8.839
					c5.469,0.515,8.082-4.722,9.783-8.975c1.374-3.436,2.4-6.917,3.667-10.359C226.714,267.24,227.512,265.995,228.446,264.732z"/>
			</g>
			<path style="opacity:0.6;fill:#FAEAE1;" d="M227.123,194.816c-15.086-2.099-34.084,7.591-43.971,18.743
				c-0.104,0.116-0.069,0.365,0.122,0.239c13.763-9.068,27.271-14.697,43.374-17.949
				C226.942,195.787,227.698,194.895,227.123,194.816z"/>
			<path style="opacity:0.6;fill:#FAEAE1;" d="M206.732,219.695c-5.367,4.104-10.962,8.306-15.181,13.624
				c-4.237,5.341-6.448,12.361-7.73,19.039c-0.07,0.357,0.385,0.048,0.451-0.102c2.979-6.73,5.268-12.939,9.786-18.867
				c3.731-4.893,8.66-8.968,12.8-13.534C206.972,219.727,206.879,219.582,206.732,219.695z"/>
			<path style="opacity:0.6;fill:#FAEAE1;" d="M213.271,235.449c-9.249,7.259-13.925,16.318-16.562,27.632
				c-0.109,0.468,0.514,0.061,0.604-0.137c2.124-4.67,4.362-9.278,6.556-13.916c2.358-4.983,6.311-9.011,9.557-13.386
				C213.542,235.485,213.455,235.308,213.271,235.449z"/>
			<path style="opacity:0.6;fill:#FAEAE1;" d="M225.861,246.455c-0.09-0.286-0.452,0.186-0.478,0.293
				c0.068-0.278-1.944,1.2-2.057,1.345c-1.544,1.921-3.095,3.852-4.55,5.842c-2.617,3.583-3.726,7.481-4.86,11.735
				c-0.155,0.585,0.456,0.356,0.65,0.051c2.737-4.232,4.644-8.868,7.481-13.071c1.228-1.82,2.28-3.804,3.654-5.507
				C225.874,246.934,225.942,246.708,225.861,246.455z"/>
		</g>
	</g>
	<g>
		<g>
			<path style="fill:#386698;" d="M60.54,136.17l16.101,12.114c0,0-0.351,5.672-6.445,7.168l-20.256-15.108
				c0,0-3.529-2.628-3.262-4.075C46.944,134.822,51.631,127.89,60.54,136.17z"/>
			<path style="fill:#22446A;" d="M49.728,140.628c-0.619-0.461-3.69-2.84-3.398-4.423c0.177-0.962,1.623-3.211,4.167-4.054
				c2.094-0.696,5.578-0.607,10.268,3.748l16.238,12.217l-0.012,0.19c-0.003,0.059-0.44,5.949-6.713,7.489l-0.162,0.04
				L49.728,140.628z M60.327,136.452l-0.028-0.024c-3.518-3.271-6.83-4.518-9.58-3.608c-2.282,0.756-3.568,2.819-3.696,3.512
				c-0.156,0.848,1.734,2.691,3.126,3.729l20.122,15.007c5.079-1.332,5.882-5.656,5.999-6.622L60.327,136.452z"/>
		</g>
		<path style="fill:#386698;" d="M46.677,136.27c0.267-1.447,4.954-8.38,13.863-0.099l4.007,3.015
			c-1.643,0.372-3.6,1.129-4.135,2.876c-0.328,1.072-0.017,1.987,0.793,2.739c0.925,0.859,4.766,4.885,6.018,4.774
			c1.376-0.122,3.047-2.597,4.387-2.889c1.272-0.277,2.419-0.045,3.488,0.438l1.543,1.161c0,0-0.351,5.672-6.445,7.168
			l-20.256-15.108C49.939,140.345,46.411,137.717,46.677,136.27z"/>
		<g>
			<path style="fill:#4A85C5;" d="M70.431,149.337c-1.773,2.029-1.867,4.847-0.21,6.295c1.657,1.448,4.438,0.977,6.21-1.053
				c1.773-2.029,1.867-4.847,0.21-6.295C74.984,146.836,72.203,147.308,70.431,149.337z"/>
			<path style="fill:#22446A;" d="M69.989,155.897c-1.801-1.574-1.722-4.621,0.176-6.793l0,0c0.911-1.042,2.103-1.734,3.356-1.946
				c1.264-0.219,2.47,0.088,3.352,0.86c1.801,1.573,1.722,4.621-0.176,6.793c-0.911,1.042-2.102,1.734-3.355,1.946
				c-0.044,0.007-0.086,0.014-0.129,0.02C71.982,156.953,70.842,156.643,69.989,155.897z M73.638,147.854
				c-1.092,0.185-2.137,0.794-2.942,1.714c-1.642,1.879-1.751,4.48-0.243,5.797c0.72,0.629,1.69,0.877,2.771,0.695
				c1.093-0.185,2.137-0.794,2.942-1.714c1.642-1.879,1.751-4.48,0.243-5.797c-0.695-0.608-1.636-0.859-2.66-0.713
				C73.711,147.842,73.675,147.848,73.638,147.854z"/>
		</g>
		<path style="fill:#386698;" d="M71.515,150.284c-1.304,1.492-1.373,3.565-0.154,4.63c1.219,1.065,3.264,0.718,4.567-0.774
			c1.304-1.492,1.373-3.565,0.154-4.63C74.864,148.445,72.819,148.792,71.515,150.284z"/>
		<g>
			<path style="fill:#B01A1F;" d="M81.376,160.003c-3.238-2.368-6.419-4.75-9.421-7.036c-0.024-0.692,0.243-1.434,0.654-1.934
				c0.35-0.427,0.801-0.642,1.353-0.655c0.163-0.004,0.325,0.009,0.488,0.029c3.003,2.283,6.178,4.657,9.399,7.009
				C83.038,158.291,82.211,159.151,81.376,160.003z"/>
			<path style="fill:#5A0000;" d="M81.168,160.288c-3.002-2.195-6.174-4.564-9.426-7.04l-0.133-0.101l-0.006-0.167
				c-0.026-0.756,0.255-1.587,0.733-2.169c0.414-0.505,0.955-0.768,1.618-0.784c0.18-0.004,0.36,0.01,0.539,0.032l0.094,0.012
				l0.076,0.058c3.247,2.468,6.408,4.825,9.394,7.005l0.321,0.234l-0.27,0.291c-0.814,0.875-1.643,1.737-2.48,2.592l-0.214,0.218
				L81.168,160.288z M74.315,150.748c-0.115-0.012-0.229-0.019-0.344-0.016c-0.447,0.01-0.806,0.182-1.088,0.526
				c-0.334,0.407-0.551,0.994-0.573,1.535c3.111,2.367,6.146,4.635,9.029,6.745c0.667-0.684,1.33-1.373,1.983-2.07
				C80.45,155.368,77.422,153.109,74.315,150.748z"/>
		</g>
	</g>
	<g>
		<g>
			<path style="fill:#FFFFFF;" d="M79.907,131.589c0,0-24.905,5.409-36.645,27.708l-12.073-9.235c0,0,17.327-27.434,37.042-27.409
				L79.907,131.589z"/>
			<path style="fill:#D8D9DA;" d="M30.718,150.145l0.172-0.273c0.174-0.276,17.665-27.597,37.34-27.573l0.119,0l12.377,9.472
				l-0.745,0.162c-0.248,0.054-24.884,5.637-36.408,27.527l-0.195,0.37L30.718,150.145z M68.11,123.005
				c-18.202,0.086-34.581,24.137-36.448,26.974l11.483,8.784c10.626-19.769,31.793-26.235,35.965-27.339L68.11,123.005z"/>
		</g>
		<path style="fill:#D8D9DA;" d="M54.964,126.454c-0.853,0.873-1.526,1.932-1.365,3.116c0.143,1.045,1.215,1.725,2.039,2.229
			c0.978,0.599,2.012,1.093,2.973,1.722c1.226,0.803,2.417,1.681,3.751,2.301c0.647,0.301,1.335,0.539,2.045,0.636
			c0.782,0.106,1.582-0.02,2.351-0.162c0.447-0.083,0.891-0.183,1.334-0.293c-1.547,0.762-3.177,1.641-4.848,2.649
			c-0.662-0.439-1.325-0.877-1.985-1.32c-3.727-2.503-7.431-5.081-10.886-7.956C51.849,128.312,53.384,127.327,54.964,126.454z"/>
		<path style="fill:#D8D9DA;" d="M50.95,147.455c0.289-1.763-1.296-3.04-2.61-3.891c-0.716-0.464-1.471-0.865-2.201-1.305
			c-0.832-0.502-1.556-1.148-2.356-1.694c-0.805-0.548-1.645-0.912-2.63-0.914c-0.809-0.002-1.603,0.18-2.353,0.477
			c1.313-1.495,2.761-3.05,4.339-4.596c0.232,0.151,0.465,0.3,0.697,0.452c3.953,2.592,7.877,5.288,11.46,8.383
			c-1.734,1.484-3.436,3.13-5.064,4.945C50.564,148.73,50.839,148.127,50.95,147.455z"/>
	</g>
	<g>
		<g>
			<g>
				<g style="opacity:0.53;">
					<path style="fill:#C9CACC;" d="M254.441,156.408c0,0-0.167-45.285,0-53.305c0.167-8.02-1.329-9.763-8.224-14.569
						c-7.144-4.98-6.021-9.967-6.021-9.967h-0.525h-16.607c0-2.708,0-6.773,0-8.009c0-1.906-1.01-1.796-1.01-1.796h-0.328h-1.495
						h-0.328c0,0-1.01-0.11-1.01,1.796c0,1.236,0,5.3,0,8.009h-23.436h-0.525c0,0,1.123,4.986-6.021,9.967
						c-6.894,4.806-8.391,6.549-8.224,14.569c0.167,8.02,0,53.305,0,53.305s-1.003,11.193,12.532,15.203
						c7.889,2.338,16.051,3.958,24.305,3.975c8.26,0.017,16.492-1.636,24.385-3.975
						C255.444,167.601,254.441,156.408,254.441,156.408z M224.289,174.055h-13.45c-0.714,0-1.298-0.584-1.298-1.298
						c0-0.714,0.584-1.298,1.298-1.298h13.45c0.714,0,1.298,0.584,1.298,1.298C225.587,173.471,225.003,174.055,224.289,174.055z"/>
					<path style="fill:#929496;" d="M217.648,175.699c-0.042,0-0.083,0-0.124,0c-7.389-0.015-15.35-1.317-24.337-3.98
						c-7.033-2.084-10.088-6.136-11.413-9.168c-1.436-3.288-1.202-6.124-1.199-6.153c0.001-0.443,0.165-45.365-0.001-53.293
						c-0.167-8.014,1.311-9.811,8.272-14.664c3.665-2.555,5.094-5.105,5.647-6.794c0.596-1.819,0.331-3.044,0.328-3.056
						l-0.031-0.137h23.989v-7.896c0-0.803,0.174-1.367,0.518-1.676c0.294-0.265,0.604-0.233,0.616-0.233l2.139-0.001
						c0.001-0.001,0.31-0.031,0.604,0.233c0.344,0.309,0.518,0.872,0.518,1.676v7.896h17.16l-0.031,0.137
						c-0.011,0.049-1.016,4.976,5.976,9.85c6.961,4.853,8.439,6.65,8.272,14.664c-0.165,7.907-0.003,52.62,0,53.298
						c0.011,0.14,0.207,2.927-1.2,6.147c-1.325,3.032-4.38,7.084-11.413,9.168C232.905,174.396,224.956,175.699,217.648,175.699z
						 M195.064,78.679c0.113,0.844,0.381,5.437-6.089,9.947c-6.88,4.796-8.34,6.57-8.176,14.475c0.165,7.93,0.002,52.855,0,53.308
						c-0.003,0.037-0.231,2.826,1.186,6.062c1.307,2.985,4.322,6.975,11.266,9.032c8.966,2.657,16.906,3.955,24.273,3.97
						c0.041,0,0.083,0,0.124,0c7.286,0,15.213-1.299,24.229-3.971c6.95-2.059,9.965-6.054,11.27-9.042
						c1.413-3.236,1.184-6.015,1.182-6.042l0-0.01c-0.002-0.453-0.165-45.378,0-53.308c0.165-7.904-1.296-9.679-8.175-14.475
						c-6.469-4.51-6.201-9.103-6.089-9.947h-17.113v-8.121c0-0.912-0.238-1.321-0.438-1.504c-0.218-0.199-0.438-0.181-0.448-0.181
						l-2.162,0.001c-0.02-0.002-0.241-0.019-0.459,0.18c-0.2,0.183-0.438,0.592-0.438,1.504v8.121H195.064z M224.289,174.167h-13.45
						c-0.778,0-1.41-0.633-1.41-1.41c0-0.777,0.633-1.41,1.41-1.41h13.45c0.778,0,1.41,0.633,1.41,1.41
						C225.7,173.535,225.067,174.167,224.289,174.167z M210.84,171.572c-0.654,0-1.185,0.532-1.185,1.185
						c0,0.654,0.532,1.185,1.185,1.185h13.45c0.654,0,1.185-0.532,1.185-1.185c0-0.654-0.532-1.185-1.185-1.185H210.84z"/>
				</g>
				<path style="fill:#CACBCD;" d="M251.07,103.086c-0.193-2.863-0.946-5.422-2.238-7.603c-1.02-1.721-2.449-3.351-4.498-5.128
					c-1.165-1.01-2.124-1.8-3.02-2.485c-0.948-0.725-1.551-1.366-1.846-1.961c-0.508-1.026-0.73-2.258-0.898-3.332
					c-0.113-0.719-0.202-2.419-0.244-3.787h-7.179c0.018,2.394-0.178,5.274-0.753,6.203c-0.554,0.896-1.635,1.155-2.444,1.214
					c-0.225,0.017-0.441,0.025-0.644,0.025c-1.079,0-1.885-0.232-2.462-0.708c-1.145-0.945-3.07-1.368-4.469-1.368
					c-0.305,0-0.597,0.019-0.868,0.057c-1.354,0.188-2.205,0.842-2.888,1.368c-0.694,0.534-1.089,0.812-1.794,0.812
					c-0.07,0-0.142-0.003-0.217-0.009c-0.154-0.012-0.341-0.06-0.561-0.324c-1.053-1.267-1.095-5.085-0.874-7.271h-6.353
					c0.213,1.922,0.275,6.108-0.86,7.383c-0.183,0.206-0.368,0.294-0.619,0.294l-0.05-0.001c-0.041-0.002-0.136-0.006-0.297-0.184
					c-0.929-1.028-1.305-4.43-1.342-7.493h-7.397c-0.172,2.536-0.826,6.31-3.082,8.484c-0.824,0.795-1.695,1.551-2.536,2.282
					c-3.678,3.195-7.482,6.498-7.956,13.53c-0.275,4.075,0.08,10.203,0.456,16.69c0.377,6.511,0.767,13.244,0.511,18.06
					c-0.045,0.852-0.092,1.703-0.139,2.549c-0.511,9.256-0.952,17.25,0.975,20.407c4.605,7.542,21.675,9.451,28.772,9.919
					c0.083,0.008,2.048,0.186,3.303,0.186c0.111,0,0.217-0.001,0.315-0.004c0.098,0.003,0.204,0.004,0.315,0.004
					c1.255,0,3.227-0.178,3.282-0.184c7.124-0.471,24.19-2.38,28.794-9.921c1.927-3.157,1.486-11.149,0.976-20.403
					c-0.047-0.847-0.094-1.699-0.139-2.552c-0.256-4.816,0.134-11.548,0.511-18.059C250.99,113.289,251.345,107.161,251.07,103.086z
					"/>
				<path style="fill:#B01A1F;" d="M249.949,103.161c-0.168-2.493-0.804-4.946-2.084-7.105c-1.109-1.871-2.634-3.435-4.268-4.852
					c-0.966-0.838-1.95-1.664-2.966-2.442c-0.799-0.611-1.708-1.421-2.17-2.356c-0.563-1.137-0.806-2.413-1.001-3.656
					c-0.18-1.152-0.292-4.348-0.282-5.515h-4.95c0,0,0.324,6.404-0.878,8.348c-0.72,1.163-2.003,1.647-3.317,1.744
					c-1.36,0.1-2.814-0.037-3.904-0.937c-0.992-0.819-3.059-1.261-4.467-1.065c-2.313,0.322-2.729,2.366-5.14,2.179
					c-3.395-0.262-2.455-8.937-2.455-8.937h-4.14c0,0,1.077,9.187-2.685,9.021c-3.313-0.146-2.658-11.495-2.658-11.495h-5.176
					c0,0,0.58,8.1-3.455,11.99c-4.433,4.274-9.604,6.966-10.152,15.079c-0.547,8.113,1.48,25.1,0.968,34.734
					s-1.241,19.174,0.673,22.31c3.33,5.455,14.966,8.531,27.916,9.387c0,0,2.366,0.216,3.516,0.176
					c1.15,0.04,3.523-0.176,3.523-0.176c12.947-0.856,24.579-3.932,27.909-9.386c1.915-3.136,1.186-12.677,0.673-22.31
					C248.469,128.262,250.497,111.274,249.949,103.161z"/>
				<g>
					<path style="fill:#FFFFFF;" d="M238.812,159.087h-43.079c-2.834,0-5.153-2.319-5.153-5.153v-43.079
						c0-2.834,2.319-5.153,5.153-5.153h43.079c2.834,0,5.153,2.319,5.153,5.153v43.079
						C243.965,156.768,241.646,159.087,238.812,159.087z"/>
					<g>
						<path style="fill:#CD1E25;" d="M205.443,114.598c-1.076-1.707-2.182-3.156-3.062-4.218c-0.879,1.062-1.986,2.512-3.062,4.218
							c-2.653,4.21-5.089,9.98-3.354,15.366c0.068,0.21,0.131,0.42,0.212,0.628c0.637,1.65,1.645,2.744,2.819,3.405
							c1.042,0.587,2.215,0.831,3.385,0.807c1.169,0.024,2.342-0.22,3.385-0.807c1.174-0.661,2.182-1.755,2.819-3.405
							c0.08-0.208,0.144-0.418,0.212-0.628C210.531,124.577,208.096,118.807,205.443,114.598z"/>
						<path style="fill:#FFFFFF;" d="M202.952,114.908c-0.494-0.784-1.003-1.451-1.407-1.939c-0.404,0.488-0.913,1.154-1.407,1.939
							c-1.219,1.935-2.339,4.586-1.541,7.062c0.031,0.096,0.06,0.193,0.097,0.289c0.293,0.758,0.756,1.261,1.295,1.565
							c0.479,0.27,1.018,0.382,1.556,0.371c0.537,0.011,1.077-0.101,1.555-0.371c0.54-0.304,1.003-0.807,1.296-1.565
							c0.037-0.096,0.066-0.192,0.097-0.289C205.291,119.494,204.172,116.842,202.952,114.908z"/>
						<g>
							<g>
								<g>
									<g>
										<rect x="213.202" y="135.088" style="fill:#231F20;" width="1.311" height="4.95"/>
										<rect x="214.846" y="135.088" style="fill:#231F20;" width="0.655" height="4.95"/>
										<rect x="215.835" y="135.088" style="fill:#231F20;" width="0.328" height="4.95"/>
										<rect x="216.497" y="135.088" style="fill:#231F20;" width="0.587" height="4.95"/>
										<rect x="217.418" y="135.088" style="fill:#231F20;" width="0.294" height="4.95"/>
										<rect x="218.045" y="135.088" style="fill:#231F20;" width="0.147" height="4.95"/>
										<rect x="218.525" y="135.088" style="fill:#231F20;" width="1.311" height="4.95"/>
										<rect x="223.849" y="135.088" style="fill:#231F20;" width="3.916" height="4.95"/>
										<rect x="220.17" y="135.088" style="fill:#231F20;" width="0.655" height="4.95"/>
										<rect x="221.159" y="135.088" style="fill:#231F20;" width="0.328" height="4.95"/>
										<rect x="221.82" y="135.088" style="fill:#231F20;" width="0.587" height="4.95"/>
										<rect x="222.741" y="135.088" style="fill:#231F20;" width="0.294" height="4.95"/>
										<rect x="223.368" y="135.088" style="fill:#231F20;" width="0.147" height="4.95"/>
									</g>
									<g>
										<rect x="228.002" y="135.088" style="fill:#231F20;" width="1.912" height="4.95"/>
										<rect x="230.248" y="135.088" style="fill:#231F20;" width="0.655" height="4.95"/>
										<rect x="231.238" y="135.088" style="fill:#231F20;" width="0.328" height="4.95"/>
										<rect x="231.899" y="135.088" style="fill:#231F20;" width="0.587" height="4.95"/>
										<rect x="232.82" y="135.088" style="fill:#231F20;" width="0.294" height="4.95"/>
										<rect x="233.447" y="135.088" style="fill:#231F20;" width="0.147" height="4.95"/>
										<rect x="233.928" y="135.088" style="fill:#231F20;" width="1.311" height="4.95"/>
										<rect x="239.251" y="135.088" style="fill:#231F20;" width="1.958" height="4.95"/>
										<rect x="235.572" y="135.088" style="fill:#231F20;" width="0.655" height="4.95"/>
										<rect x="236.561" y="135.088" style="fill:#231F20;" width="0.328" height="4.95"/>
										<rect x="237.222" y="135.088" style="fill:#231F20;" width="0.587" height="4.95"/>
										<rect x="238.143" y="135.088" style="fill:#231F20;" width="0.294" height="4.95"/>
										<rect x="238.77" y="135.088" style="fill:#231F20;" width="0.147" height="4.95"/>
									</g>
								</g>
								<g>
									<rect x="213.53" y="141.542" style="fill:#5F6062;" width="27.352" height="1.128"/>
									<rect x="213.53" y="143.296" style="fill:#5F6062;" width="27.352" height="1.128"/>
									<g>
										<rect x="213.53" y="145.051" style="fill:#B6B8BA;" width="16.719" height="1.128"/>
										<rect x="230.91" y="145.051" style="fill:#B6B8BA;" width="9.971" height="1.128"/>
									</g>
								</g>
								<g>
									<g>
										<rect x="213.53" y="147.056" style="fill:#B6B8BA;" width="14.812" height="0.701"/>
										<rect x="213.53" y="148.146" style="fill:#B6B8BA;" width="14.812" height="0.701"/>
										<g>
											<rect x="213.53" y="149.237" style="fill:#B6B8BA;" width="9.054" height="0.701"/>
											<rect x="222.942" y="149.237" style="fill:#B6B8BA;" width="5.4" height="0.701"/>
										</g>
									</g>
									<g>
										<rect x="228.821" y="147.056" style="fill:#B6B8BA;" width="12.06" height="0.701"/>
										<rect x="228.821" y="148.146" style="fill:#B6B8BA;" width="12.06" height="0.701"/>
										<g>
											<rect x="228.821" y="149.237" style="fill:#B6B8BA;" width="7.372" height="0.701"/>
											<rect x="236.485" y="149.237" style="fill:#B6B8BA;" width="4.397" height="0.701"/>
										</g>
									</g>
								</g>
								<g>
									<g>
										
											<rect x="226.069" y="150.648" transform="matrix(-1 -1.224647e-16 1.224647e-16 -1 466.9504 301.9979)" style="fill:#B6B8BA;" width="14.812" height="0.701"/>
										
											<rect x="226.069" y="151.739" transform="matrix(-1 -1.224647e-16 1.224647e-16 -1 466.9504 304.1791)" style="fill:#B6B8BA;" width="14.812" height="0.701"/>
										<g>
											
												<rect x="231.827" y="152.83" transform="matrix(-1 -1.224647e-16 1.224647e-16 -1 472.7086 306.3603)" style="fill:#B6B8BA;" width="9.054" height="0.701"/>
											
												<rect x="226.069" y="152.83" transform="matrix(-1 -1.224647e-16 1.224647e-16 -1 457.5383 306.3603)" style="fill:#B6B8BA;" width="5.4" height="0.701"/>
										</g>
									</g>
									<g>
										
											<rect x="213.53" y="150.648" transform="matrix(-1 -1.224647e-16 1.224647e-16 -1 439.1195 301.9979)" style="fill:#B6B8BA;" width="12.06" height="0.701"/>
										
											<rect x="213.53" y="151.739" transform="matrix(-1 -1.224647e-16 1.224647e-16 -1 439.1195 304.1791)" style="fill:#B6B8BA;" width="12.06" height="0.701"/>
										<g>
											
												<rect x="218.218" y="152.83" transform="matrix(-1 -1.224647e-16 1.224647e-16 -1 443.8078 306.3603)" style="fill:#B6B8BA;" width="7.372" height="0.701"/>
											
												<rect x="213.53" y="152.83" transform="matrix(-1 -1.224647e-16 1.224647e-16 -1 431.4561 306.3603)" style="fill:#B6B8BA;" width="4.397" height="0.701"/>
										</g>
									</g>
								</g>
							</g>
							<g>
								<g>
									<rect x="193.962" y="141.601" style="fill:#E2E3E4;" width="16.041" height="0.378"/>
									<rect x="193.962" y="142.429" style="fill:#E2E3E4;" width="16.041" height="0.378"/>
									<rect x="193.962" y="140.774" style="fill:#E2E3E4;" width="16.041" height="0.378"/>
									<rect x="193.962" y="143.257" style="fill:#E2E3E4;" width="16.041" height="0.378"/>
									<rect x="193.962" y="144.913" style="fill:#E2E3E4;" width="16.041" height="0.378"/>
									<rect x="193.962" y="145.742" style="fill:#E2E3E4;" width="16.041" height="0.378"/>
									<rect x="193.962" y="144.085" style="fill:#E2E3E4;" width="16.041" height="0.378"/>
									<rect x="193.962" y="146.569" style="fill:#E2E3E4;" width="16.041" height="0.378"/>
								</g>
								<g>
									<rect x="193.962" y="148.374" style="fill:#E2E3E4;" width="16.041" height="0.378"/>
									<rect x="193.962" y="149.202" style="fill:#E2E3E4;" width="16.041" height="0.378"/>
									<rect x="193.962" y="147.546" style="fill:#E2E3E4;" width="16.041" height="0.378"/>
									<rect x="193.962" y="150.03" style="fill:#E2E3E4;" width="16.041" height="0.378"/>
									<rect x="193.962" y="151.686" style="fill:#E2E3E4;" width="16.041" height="0.378"/>
									<rect x="193.962" y="152.514" style="fill:#E2E3E4;" width="16.041" height="0.378"/>
									<rect x="193.962" y="150.858" style="fill:#E2E3E4;" width="16.041" height="0.378"/>
									<rect x="193.962" y="153.342" style="fill:#E2E3E4;" width="16.041" height="0.378"/>
								</g>
							</g>
						</g>
					</g>
				</g>
				<path style="fill:#B7B8BA;" d="M249.949,103.161c-0.168-2.493-0.804-4.946-2.084-7.105c-1.109-1.871-2.634-3.435-4.268-4.852
					c-0.966-0.838-1.95-1.664-2.966-2.442c-0.799-0.611-1.708-1.421-2.17-2.356c-0.563-1.137-0.806-2.413-1.001-3.656
					c-0.18-1.152-0.292-4.348-0.282-5.515h-4.95c0,0,0.324,6.404-0.878,8.348c-0.72,1.163-2.003,1.647-3.317,1.744
					c-1.36,0.1-2.814-0.037-3.904-0.937c-0.992-0.819-3.059-1.261-4.467-1.065c-2.313,0.322-2.729,2.366-5.14,2.179
					c-3.395-0.262-2.455-8.937-2.455-8.937h-4.14c0,0,1.077,9.187-2.685,9.021c-3.313-0.146-2.658-11.495-2.658-11.495h-5.176
					c0,0,0.58,8.1-3.455,11.99c-4.433,4.274-9.604,6.966-10.152,15.079c-0.547,8.113,1.48,25.1,0.968,34.734
					s-1.241,19.174,0.673,22.31c3.33,5.455,14.966,8.531,27.916,9.387c0,0,2.366,0.216,3.516,0.176
					c1.15,0.04,3.523-0.176,3.523-0.176c12.947-0.856,24.579-3.932,27.909-9.386c1.915-3.136,1.186-12.677,0.673-22.31
					C248.469,128.262,250.497,111.274,249.949,103.161z M246.979,155.212c-1.491,6.543-10.104,9.111-24.593,10.681
					c-14.489,1.571-31.975-3.062-35.122-6.397c-3.147-3.335-1.16-13.478,0.248-22.091c1.408-8.614-2.485-27-2.567-31.295
					c-0.083-4.295,0.523-9.105,5.549-12.766c5.026-3.66,6.716-7.431,6.716-7.431c0.505-2.543,3.968-1.681,4.299-0.59
					c0.331,1.091,1.073,4.794,3.734,4.86c2.146,0.053,1.732-1.307,5.242-1.267c2.036,0.023,2.563,2.194,8.215-0.708
					c4.201-2.157,6.662,2.236,10.124,1.975c3.461-0.261,5.29-3.8,8.012-0.723c3.213,3.632,6.167,5.208,9.066,9.501
					c2.899,4.293,0.911,23.286,0.58,30.823C246.15,137.323,248.469,148.67,246.979,155.212z"/>
				<path style="fill:#B7B8BA;" d="M249.949,103.161c-0.168-2.493-0.804-4.946-2.084-7.105c-1.109-1.871-2.634-3.435-4.268-4.852
					c-0.966-0.838-1.95-1.664-2.966-2.442c-0.799-0.611-1.708-1.421-2.17-2.356c-0.563-1.137-0.806-2.413-1.001-3.656
					c-0.18-1.152-0.292-4.348-0.282-5.515h-4.95c0,0,0.324,6.404-0.878,8.348c-0.72,1.163-2.003,1.647-3.317,1.744
					c-1.36,0.1-2.814-0.037-3.904-0.937c-0.992-0.819-3.059-1.261-4.467-1.065c-2.313,0.322-2.729,2.366-5.14,2.179
					c-1.874-0.145-2.426-2.853-2.546-5.25c-0.264-0.181-0.539-0.345-0.829-0.484c-0.852-0.408-1.865-0.588-2.758-0.202
					c-0.114,0.049-0.22,0.109-0.324,0.172c-0.045,2.639-0.551,5.948-2.823,5.848c-3.313-0.146-2.658-11.495-2.658-11.495h-5.176
					c0,0,0.58,8.1-3.455,11.99c-4.433,4.274-9.604,6.966-10.152,15.079c-0.547,8.113,1.48,25.1,0.968,34.734
					s-1.241,19.174,0.673,22.31c3.33,5.455,14.966,8.531,27.916,9.387c0,0,2.366,0.216,3.516,0.176
					c1.15,0.04,3.523-0.176,3.523-0.176c12.947-0.856,24.579-3.932,27.909-9.386c1.915-3.136,1.186-12.677,0.673-22.31
					C248.469,128.262,250.497,111.274,249.949,103.161z M246.979,155.212c-1.491,6.543-10.104,9.111-24.593,10.681
					c-14.489,1.571-31.975-3.062-35.122-6.397c-3.147-3.335-1.16-13.478,0.248-22.091c1.408-8.614-2.485-27-2.567-31.295
					c-0.083-4.295,0.523-9.105,5.549-12.766c5.026-3.66,6.716-7.431,6.716-7.431c0.505-2.543,3.968-1.681,4.299-0.59
					c0.331,1.091,1.073,4.794,3.734,4.86c2.146,0.053,1.732-1.307,5.242-1.267c2.036,0.023,2.563,2.194,8.215-0.708
					c4.201-2.157,6.662,2.236,10.124,1.975c3.461-0.261,5.29-3.8,8.012-0.723c3.213,3.632,6.167,5.208,9.066,9.501
					c2.899,4.293,0.911,23.286,0.58,30.823C246.15,137.323,248.469,148.67,246.979,155.212z"/>
				<g>
					<g style="opacity:0.53;">
						<path style="fill:#C9CACC;" d="M202.044,66.197h-1.404h-1.638h-1.404c0,0-1.287-0.131-1.287,2.146s0,12.6,0,12.6h2.925h1.17
							h2.925c0,0,0-10.324,0-12.6S202.044,66.197,202.044,66.197z"/>
						<path style="fill:#929496;" d="M203.444,81.055h-7.244V68.343c0-0.928,0.208-1.587,0.619-1.958
							c0.374-0.338,0.775-0.301,0.792-0.299l4.43-0.001c0.057-0.004,0.433-0.018,0.785,0.3c0.411,0.371,0.619,1.03,0.619,1.958
							V81.055z M196.424,80.83h6.794V68.343c0-0.846-0.187-1.464-0.54-1.787c-0.298-0.272-0.61-0.247-0.623-0.247l-0.011,0.001
							h-4.445c-0.024-0.002-0.336-0.026-0.634,0.246c-0.353,0.323-0.54,0.941-0.54,1.787V80.83z"/>
					</g>
					<g>
						<path style="fill:#B7B8BA;" d="M202.182,68.372h-4.721c-0.31,0-0.562-0.252-0.562-0.562s0.251-0.562,0.562-0.562h4.721
							c0.31,0,0.562,0.252,0.562,0.562S202.492,68.372,202.182,68.372z"/>
						<path style="fill:#B7B8BA;" d="M202.182,69.884h-4.721c-0.31,0-0.562-0.251-0.562-0.562c0-0.31,0.251-0.562,0.562-0.562h4.721
							c0.31,0,0.562,0.252,0.562,0.562C202.744,69.632,202.492,69.884,202.182,69.884z"/>
						<path style="fill:#B7B8BA;" d="M202.182,71.395h-4.721c-0.31,0-0.562-0.252-0.562-0.562c0-0.31,0.251-0.562,0.562-0.562h4.721
							c0.31,0,0.562,0.252,0.562,0.562C202.744,71.144,202.492,71.395,202.182,71.395z"/>
						<path style="fill:#B7B8BA;" d="M202.182,72.907h-4.721c-0.31,0-0.562-0.252-0.562-0.562c0-0.31,0.251-0.562,0.562-0.562h4.721
							c0.31,0,0.562,0.252,0.562,0.562C202.744,72.655,202.492,72.907,202.182,72.907z"/>
						<path style="fill:#B7B8BA;" d="M202.182,74.418h-4.721c-0.31,0-0.562-0.252-0.562-0.562c0-0.31,0.251-0.562,0.562-0.562h4.721
							c0.31,0,0.562,0.252,0.562,0.562C202.744,74.167,202.492,74.418,202.182,74.418z"/>
						<path style="fill:#B7B8BA;" d="M202.182,75.93h-4.721c-0.31,0-0.562-0.252-0.562-0.562c0-0.31,0.251-0.562,0.562-0.562h4.721
							c0.31,0,0.562,0.252,0.562,0.562C202.744,75.678,202.492,75.93,202.182,75.93z"/>
						<path style="fill:#B7B8BA;" d="M202.182,77.441h-4.721c-0.31,0-0.562-0.252-0.562-0.562c0-0.31,0.251-0.562,0.562-0.562h4.721
							c0.31,0,0.562,0.251,0.562,0.562C202.744,77.19,202.492,77.441,202.182,77.441z"/>
						<path style="fill:#B7B8BA;" d="M202.182,78.953h-4.721c-0.31,0-0.562-0.252-0.562-0.562c0-0.31,0.251-0.562,0.562-0.562h4.721
							c0.31,0,0.562,0.252,0.562,0.562C202.744,78.701,202.492,78.953,202.182,78.953z"/>
					</g>
				</g>
				<g>
					<g style="opacity:0.53;">
						<path style="fill:#C9CACC;" d="M236.889,66.197h-1.404h-1.638h-1.404c0,0-1.287-0.131-1.287,2.146s0,12.6,0,12.6h2.925h1.17
							h2.925c0,0,0-10.324,0-12.6S236.889,66.197,236.889,66.197z"/>
						<path style="fill:#929496;" d="M238.289,81.055h-7.244V68.343c0-0.928,0.208-1.587,0.619-1.958
							c0.374-0.338,0.775-0.301,0.792-0.299l4.43-0.001c0.057-0.004,0.433-0.018,0.785,0.3c0.411,0.371,0.619,1.03,0.619,1.958
							V81.055z M231.27,80.83h6.794V68.343c0-0.846-0.187-1.464-0.54-1.787c-0.298-0.272-0.61-0.247-0.623-0.247l-0.011,0.001
							h-4.445c-0.024-0.002-0.336-0.026-0.634,0.246c-0.353,0.323-0.54,0.941-0.54,1.787V80.83z"/>
					</g>
					<g>
						<path style="fill:#B7B8BA;" d="M237.027,68.372h-4.721c-0.31,0-0.562-0.252-0.562-0.562s0.251-0.562,0.562-0.562h4.721
							c0.31,0,0.562,0.252,0.562,0.562S237.337,68.372,237.027,68.372z"/>
						<path style="fill:#B7B8BA;" d="M237.027,69.884h-4.721c-0.31,0-0.562-0.251-0.562-0.562c0-0.31,0.251-0.562,0.562-0.562h4.721
							c0.31,0,0.562,0.252,0.562,0.562C237.589,69.632,237.337,69.884,237.027,69.884z"/>
						<path style="fill:#B7B8BA;" d="M237.027,71.395h-4.721c-0.31,0-0.562-0.252-0.562-0.562c0-0.31,0.251-0.562,0.562-0.562h4.721
							c0.31,0,0.562,0.252,0.562,0.562C237.589,71.144,237.337,71.395,237.027,71.395z"/>
						<path style="fill:#B7B8BA;" d="M237.027,72.907h-4.721c-0.31,0-0.562-0.252-0.562-0.562c0-0.31,0.251-0.562,0.562-0.562h4.721
							c0.31,0,0.562,0.252,0.562,0.562C237.589,72.655,237.337,72.907,237.027,72.907z"/>
						<path style="fill:#B7B8BA;" d="M237.027,74.418h-4.721c-0.31,0-0.562-0.252-0.562-0.562c0-0.31,0.251-0.562,0.562-0.562h4.721
							c0.31,0,0.562,0.252,0.562,0.562C237.589,74.167,237.337,74.418,237.027,74.418z"/>
						<path style="fill:#B7B8BA;" d="M237.027,75.93h-4.721c-0.31,0-0.562-0.252-0.562-0.562c0-0.31,0.251-0.562,0.562-0.562h4.721
							c0.31,0,0.562,0.252,0.562,0.562C237.589,75.678,237.337,75.93,237.027,75.93z"/>
						<path style="fill:#B7B8BA;" d="M237.027,77.441h-4.721c-0.31,0-0.562-0.252-0.562-0.562c0-0.31,0.251-0.562,0.562-0.562h4.721
							c0.31,0,0.562,0.251,0.562,0.562C237.589,77.19,237.337,77.441,237.027,77.441z"/>
						<path style="fill:#B7B8BA;" d="M237.027,78.953h-4.721c-0.31,0-0.562-0.252-0.562-0.562c0-0.31,0.251-0.562,0.562-0.562h4.721
							c0.31,0,0.562,0.252,0.562,0.562C237.589,78.701,237.337,78.953,237.027,78.953z"/>
					</g>
				</g>
				<g>
					<path style="fill:#B01A1F;" d="M211.473,91.561c-0.241-0.65-1.121-0.752-1.711-0.726c-0.735,0.032-1.445,0.221-2.159,0.382
						c-0.643,0.145-1.285,0.295-1.932,0.422c-1.299,0.255-2.896,0.482-4.046-0.345c-0.652-0.469-1.036-1.246-1.318-1.977
						c-0.279-0.724-0.495-1.476-0.708-2.221c-0.134-0.468-0.285-1.072-0.69-1.386c-0.49-0.379-1.058,0.08-1.283,0.527
						c-0.284,0.564-0.357,1.193-0.559,1.785c-0.277,0.813-0.652,1.616-1.158,2.311c-1.033,1.419-2.602,2.375-4.02,3.36
						c-1.402,0.974-2.777,2.024-3.681,3.5c-0.86,1.404-1.31,3.018-1.513,4.642c-0.056,0.45-0.087,0.901-0.103,1.353
						c-0.032,0.229-0.059,0.458-0.08,0.689c-0.086,0.947-0.104,1.904-0.015,2.852c0.039,0.411,0.114,0.815,0.181,1.221
						c0.047,0.285,0.101,0.667,0.348,0.856c0.527,0.402,0.963-0.247,1.098-0.687c0.226-0.736,0.393-1.492,0.605-2.233
						c0.253-0.887,0.537-1.768,0.924-2.606c0.396-0.858,0.925-1.643,1.517-2.377c1.173-1.453,2.589-2.644,4.25-3.502
						c3.244-1.676,6.977-2.21,10.554-2.69c1.633-0.219,3.418-0.526,4.721-1.617C211.107,92.748,211.695,92.161,211.473,91.561z
						 M188.699,97.266c0.433-0.692,0.976-1.287,1.59-1.823c0.316-0.276,0.645-0.535,0.981-0.785
						c-0.609,0.493-1.195,1.018-1.711,1.608c-0.589,0.674-1.06,1.434-1.466,2.23c-0.063,0.123-0.12,0.249-0.18,0.373
						C188.125,98.312,188.382,97.773,188.699,97.266z"/>
					<path style="fill:#B01A1F;" d="M225.541,91.161c-0.027-0.103-0.073-0.203-0.131-0.291c-0.598-0.904-1.983-1.266-2.971-1.485
						c-1.911-0.425-4.58-0.186-6.168,1.059c-0.68,0.533-1.308,1.739-0.183,2.172c0.342,0.132,0.722,0.117,1.087,0.08
						c1.24-0.126,2.339-0.725,3.532-0.898c1.263-0.183,2.505,0.344,3.768,0.309c0.396-0.011,0.858-0.101,1.032-0.458
						C225.581,91.497,225.584,91.324,225.541,91.161z"/>
					<path style="fill:#B01A1F;" d="M236.228,91.12c-0.094-0.24-0.248-0.465-0.41-0.627c-0.621-0.621-1.578-0.694-2.4-0.556
						c-1.002,0.169-2.011,0.582-2.895,1.081c-1.66,0.937,0.427,0.997,1.185,0.93c1.143-0.101,2.063,0.209,3.161,0.381
						c0.371,0.058,0.798,0.088,1.123-0.14C236.37,91.923,236.377,91.502,236.228,91.12z"/>
				</g>
				<path style="fill:#B01A1F;" d="M195.191,161.766c-0.203-0.312-1.089-0.872-1.16-0.92c-2.254-1.5-3.989-3.011-4.993-5.599
					c-0.879-2.267-1.094-4.754-0.99-7.166c0.048-1.094,0.153-2.185,0.286-3.271c0.113-0.926,0.451-2.018,0.221-2.939
					c-0.186-0.743-0.616-0.79-0.944-0.049c-0.21,0.475-0.189,1.046-0.213,1.554c-0.047,1.004-0.122,2.006-0.216,3.007
					c-0.167,1.771-0.379,3.538-0.548,5.309c-0.222,2.319-0.311,4.516,1.02,6.534c1.248,1.893,3.407,2.995,5.56,3.517
					C193.429,161.794,195.435,162.139,195.191,161.766z"/>
				<path style="fill:#B01A1F;" d="M233.598,163.097c0.019-0.011,0.039-0.021,0.058-0.033c0.203-0.126,0.493-0.321,0.542-0.554
					c0.14-0.663-1.689-0.096-1.939-0.021c-0.399,0.119-0.792,0.26-1.188,0.389c-0.715,0.232-1.48,0.356-2.22,0.481
					c-1.881,0.317-3.785,0.454-5.684,0.598c-3.884,0.293-7.819,0.491-11.706,0.14c-0.954-0.086-1.93-0.177-2.868-0.378
					c-0.755-0.162-1.487-0.419-2.239-0.593c-0.557-0.129-1.198-0.285-1.771-0.162c-1.288,0.276,1.659,1.257,2.017,1.339
					c3.953,0.912,8.005,1.221,12.053,1.027c4.627-0.214,9.219-0.991,13.748-1.933C232.741,163.327,233.183,163.241,233.598,163.097z
					"/>
				<path style="fill:#B01A1F;" d="M246.761,110.387c-0.373-5.069-0.025-11.594-4.719-14.898c-0.313-0.22-0.658-0.412-1.036-0.466
					c-0.378-0.054-0.797,0.051-1.044,0.343c-0.558,0.661,0.299,1.613,0.697,2.116c0.879,1.111,2.652,2.561,2.771,4.048
					c0.073,0.909-0.816,1.229-1.54,1.395c-1.599,0.365-3.254,0.344-4.884,0.327c-0.714-0.007-1.558-0.046-2.241,0.185
					c-0.715,0.243-0.722,0.65-0.22,1.052c0.613,0.491,1.909,0.366,2.629,0.309c1.54-0.122,3.122-0.084,4.662,0.063
					c1.833,0.175,2.931,1.348,3.387,3.087c0.46,1.755,0.272,3.615,0.886,5.343c0.055,0.154,0.256,0.1,0.343,0.006
					c0.293-0.317,0.338-0.801,0.36-1.211C246.842,111.52,246.803,110.951,246.761,110.387z"/>
				<path style="fill:#FFFFFF;" d="M188.26,89.769c-0.873,0.684-1.872,1.188-2.746,1.871c-0.87,0.68-1.565,1.534-2.184,2.443
					c-0.628,0.922-1.169,1.889-1.529,2.948c-0.345,1.017-0.545,2.081-0.621,3.151c-0.044,0.62-0.057,1.244-0.053,1.865
					c0.003,0.595,0.017,1.202,0.137,1.786c0.017,0.083,0.153,0.013,0.154-0.05c0.014-1.078,0.142-2.145,0.226-3.219
					c0.083-1.06,0.237-2.12,0.541-3.14c0.307-1.031,0.779-1.965,1.361-2.866c0.588-0.912,1.228-1.798,2.058-2.507
					c0.893-0.763,1.902-1.371,2.75-2.189C188.43,89.791,188.336,89.71,188.26,89.769z"/>
				<path style="fill:#FFFFFF;" d="M190.49,169.623c-1.981-0.986-3.889-2.269-5.327-3.97c-1.308-1.548-2.211-3.361-2.78-5.299
					c-0.318-1.083-0.47-2.178-0.668-3.285c-0.013-0.072-0.123-0.007-0.128,0.041c-0.11,1.028,0.029,2.099,0.239,3.105
					c0.209,1.003,0.56,1.973,1.003,2.895c0.894,1.864,2.217,3.529,3.893,4.749c1.1,0.801,2.368,1.439,3.63,1.94
					C190.438,169.833,190.591,169.673,190.49,169.623z"/>
				<path style="fill:#FFFFFF;" d="M253.477,157.559c-0.01-0.085-0.16-0.015-0.16,0.052c0,0.516-0.103,1.051-0.219,1.552
					c-0.114,0.493-0.254,0.979-0.422,1.457c-0.339,0.965-0.783,1.896-1.291,2.782c-0.986,1.72-2.294,3.243-3.929,4.376
					c-1.034,0.716-2.193,1.225-3.231,1.933c-0.08,0.054-0.043,0.177,0.058,0.128c1.053-0.512,2.151-0.947,3.142-1.577
					c0.878-0.558,1.675-1.248,2.38-2.012c1.396-1.512,2.481-3.352,3.188-5.283c0.205-0.561,0.379-1.139,0.474-1.73
					C253.559,158.669,253.545,158.128,253.477,157.559z"/>
				<path style="fill:#FFFFFF;" d="M253.049,96.812c-0.411-1.115-1.064-2.16-1.848-3.05c-0.225-0.255-0.465-0.496-0.715-0.726
					c-0.26-0.239-0.546-0.44-0.815-0.668c-0.057-0.049-0.195,0.062-0.138,0.118c0.269,0.267,0.504,0.578,0.746,0.869
					c0.23,0.277,0.456,0.557,0.677,0.841c0.46,0.592,0.879,1.223,1.22,1.891c0.687,1.343,1.086,2.864,1.081,4.376
					c0,0.101,0.145,0.039,0.156-0.033C253.589,99.204,253.478,97.976,253.049,96.812z"/>
			</g>
			<path style="fill:#C9CACC;" d="M221.159,69.615c0,0-0.391,0-0.661,0c-0.27,0-0.661,0.113-0.661,0.657c0,0.545,0,8.933,0,8.933
				h-5.979c0,0,2.519,2.3,7.301,2.236c4.783-0.064,9.089-2.236,9.089-2.236h-7.841v-8.371
				C222.408,70.833,222.774,69.469,221.159,69.615z"/>
		</g>
		<path d="M227.232,123.618l-1.165,4.199h-3.835l4.999-16.358h4.854l5.072,16.358h-3.98l-1.262-4.199H227.232z M231.383,120.851
			l-1.019-3.47c-0.291-0.971-0.582-2.184-0.825-3.155h-0.049c-0.243,0.971-0.485,2.209-0.752,3.155l-0.971,3.47H231.383z"/>
	</g>
	<path style="fill:#5A0000;" d="M122.811,73.337c-0.272,0-0.512-0.006-0.705-0.014c-0.084-0.003-0.151-0.074-0.147-0.159
		c0.003-0.083,0.071-0.148,0.153-0.148c0.002,0,0.004,0,0.006,0.001c0.706,0.027,2.072,0.034,3.256-0.208
		c0.088-0.017,0.165,0.038,0.182,0.12c0.016,0.083-0.037,0.165-0.12,0.182C124.545,73.292,123.559,73.337,122.811,73.337z"/>
	<path style="fill:#5A0000;" d="M122.583,76.383c-0.227,0-0.436-0.004-0.621-0.011c-0.084-0.003-0.151-0.074-0.147-0.159
		c0.003-0.083,0.071-0.148,0.153-0.148c0.002,0,0.004,0,0.006,0.001c0.866,0.027,2.276-0.009,3.46-0.169
		c0.087-0.012,0.162,0.047,0.173,0.131c0.012,0.084-0.047,0.162-0.131,0.173C124.525,76.331,123.434,76.383,122.583,76.383z"/>
	<g>
		<g>
			<path style="fill:#B01A1F;" d="M108.882,177.113c-14.356-6.07-30.848-20.217-31.544-20.816c-0.641-0.553-0.713-1.521-0.16-2.164
				c0.551-0.641,1.523-0.713,2.164-0.16c0.167,0.143,16.827,14.432,30.735,20.313c9.339,3.949,18.756,2.186,23.44-4.381
				c2.605-3.652,9.287-17.593-14.103-43.647c-11.191-12.466-6.994-22.238-2.55-32.583c2.349-5.468,4.742-11.042,5.221-17.451
				c-4.154-0.141-8.12-1.611-11.565-4.35c-8.772-6.973-7.988-13.09-7.244-15.397c1.092-3.388,4.122-5.688,7.719-5.859
				c4.531-0.208,8.612,2.888,10.95,8.306c2.219,5.139,3.162,9.789,3.278,14.065c0.907-0.136,1.823-0.345,2.745-0.625
				c10.388-3.167,19.665-14.754,24.816-30.992c6.771-21.349,20.013-27.277,30.132-25.711c10.758,1.665,18.566,11.243,18.566,22.775
				V81.44c0,0.847-0.687,1.535-1.535,1.535s-1.534-0.687-1.534-1.535V38.434c0-10.007-6.715-18.31-15.966-19.742
				c-13.538-2.097-22.683,10.821-26.738,23.605c-5.457,17.202-15.492,29.539-26.846,33c-1.237,0.378-2.472,0.639-3.698,0.788
				c-0.458,7.104-3.063,13.17-5.481,18.799c-4.396,10.233-7.866,18.315,2.014,29.322c16.813,18.728,22.166,36.477,14.317,47.48
				c-3.616,5.068-9.515,7.758-16.151,7.757C116.334,179.443,112.595,178.682,108.882,177.113z M111.141,53.682
				c-2.308,0.111-4.249,1.577-4.945,3.736c-1.14,3.538,1.19,8.043,6.234,12.054c2.945,2.342,6.241,3.584,9.733,3.698
				c-0.098-3.96-0.974-8.253-3.036-13.03c-1.757-4.071-4.62-6.465-7.701-6.465C111.332,53.675,111.236,53.678,111.141,53.682z"/>
			<path style="fill:#5A0000;" d="M119.869,179.597c-0.002,0-0.003,0-0.004,0c-3.649,0-7.365-0.788-11.042-2.344
				c-14.374-6.077-30.888-20.241-31.584-20.841c-0.704-0.607-0.783-1.675-0.176-2.38c0.293-0.342,0.702-0.547,1.152-0.581
				c0.456-0.032,0.887,0.112,1.228,0.406c0.689,0.59,17.008,14.5,30.695,20.288c9.269,3.918,18.613,2.179,23.255-4.329
				c2.589-3.628,9.222-17.486-14.092-43.455c-11.257-12.54-7.041-22.355-2.577-32.747c2.307-5.371,4.692-10.923,5.197-17.243
				c-4.14-0.175-8.111-1.686-11.496-4.377c-8.846-7.033-8.048-13.227-7.294-15.564c1.112-3.449,4.196-5.791,7.857-5.965
				c4.592-0.209,8.738,2.929,11.097,8.398c2.062,4.776,3.137,9.34,3.285,13.949c0.841-0.135,1.699-0.335,2.553-0.594
				c10.34-3.152,19.579-14.701,24.715-30.891c6.798-21.439,20.113-27.397,30.301-25.817c10.834,1.677,18.697,11.319,18.697,22.927
				V81.44c0,0.931-0.757,1.688-1.688,1.688s-1.688-0.757-1.688-1.688V38.434c0-9.931-6.66-18.171-15.835-19.59
				c-13.437-2.087-22.534,10.776-26.57,23.499c-5.472,17.25-15.545,29.625-26.947,33.101c-1.191,0.364-2.401,0.625-3.597,0.778
				c-0.482,7.072-3.023,12.992-5.483,18.718c-4.376,10.186-7.83,18.23,1.985,29.163c16.865,18.786,22.221,36.607,14.328,47.672
				C132.595,176.746,126.664,179.597,119.869,179.597z M108.943,176.972c3.64,1.538,7.314,2.318,10.923,2.318
				c0.001,0,0.003,0,0.004,0c6.695,0,12.534-2.803,16.022-7.692c7.803-10.939,2.455-28.618-14.306-47.288
				c-9.947-11.08-6.458-19.203-2.041-29.486c2.466-5.741,5.013-11.672,5.469-18.748c0.004-0.074,0.061-0.134,0.134-0.142
				c1.221-0.149,2.456-0.412,3.672-0.783c11.305-3.447,21.304-15.746,26.745-32.9c4.075-12.848,13.278-25.82,26.908-23.711
				c9.326,1.444,16.096,9.81,16.096,19.894V81.44c0,0.761,0.619,1.381,1.381,1.381c0.761,0,1.381-0.619,1.381-1.381V38.434
				c0-11.455-7.754-20.97-18.435-22.623c-10.073-1.565-23.223,4.35-29.963,25.606c-5.166,16.288-14.481,27.911-24.917,31.093
				c-0.926,0.282-1.857,0.493-2.767,0.63c-0.044,0.006-0.088-0.005-0.122-0.034c-0.033-0.029-0.053-0.07-0.055-0.114
				c-0.125-4.628-1.193-9.21-3.265-14.009c-2.235-5.18-6.094-8.223-10.384-8.223c-0.139,0-0.278,0.003-0.418,0.009
				c-3.533,0.169-6.508,2.428-7.58,5.753c-0.734,2.276-1.504,8.316,7.194,15.23c3.376,2.683,7.344,4.176,11.474,4.316
				c0.042,0.002,0.081,0.02,0.109,0.051c0.028,0.032,0.042,0.073,0.039,0.114c-0.48,6.438-2.896,12.062-5.233,17.501
				c-4.424,10.298-8.602,20.026,2.524,32.419c23.467,26.14,16.735,40.164,14.113,43.839c-4.727,6.629-14.221,8.411-23.624,4.433
				c-13.73-5.804-30.083-19.745-30.773-20.336c-0.282-0.243-0.639-0.363-1.007-0.333c-0.369,0.027-0.703,0.196-0.943,0.475
				c-0.497,0.577-0.432,1.451,0.144,1.948C78.133,156.779,94.611,170.912,108.943,176.972z M122.163,73.324
				c-0.002,0-0.003,0-0.005,0c-3.55-0.116-6.854-1.372-9.824-3.732c-5.095-4.051-7.445-8.62-6.284-12.22
				c0.716-2.221,2.711-3.729,5.084-3.842c0,0,0,0,0.001,0c3.246-0.168,6.306,2.318,8.132,6.55c1.945,4.507,2.942,8.788,3.049,13.088
				c0.001,0.042-0.016,0.083-0.046,0.113C122.242,73.308,122.203,73.324,122.163,73.324z M111.149,53.834
				c-2.243,0.109-4.13,1.534-4.806,3.631c-1.119,3.475,1.192,7.918,6.184,11.887c2.87,2.282,6.058,3.513,9.479,3.659
				c-0.126-4.205-1.115-8.397-3.019-12.81c-1.722-3.99-4.549-6.372-7.56-6.372C111.334,53.828,111.241,53.832,111.149,53.834z"/>
		</g>
		<path style="fill:#B01A1F;" d="M124.705,79.019c-0.046-0.142-0.125-0.279-0.193-0.407c-0.018-0.034-0.039-0.067-0.063-0.098
			c-0.084-0.106-0.171-0.218-0.274-0.308c-0.105-0.092-0.223-0.176-0.349-0.237c-0.008-0.004-0.016-0.007-0.025-0.011
			c-0.082-0.034-0.229-0.085-0.315-0.111c-0.017-0.005-0.034-0.01-0.052-0.013c-0.141-0.022-0.29-0.044-0.433-0.024
			c-0.12,0.017-0.296,0.037-0.424,0.096c-0.11,0.05-0.272,0.117-0.383,0.201c-0.186,0.143-0.269,0.227-0.37,0.376
			c0.105-0.719,0.193-1.446,0.25-2.186c0.547,0.035,1.096,0.041,1.637,0.001c0.469-0.034,0.975-0.053,1.446-0.165
			c-0.073,1.106-0.213,2.18-0.381,3.238C124.759,79.254,124.743,79.133,124.705,79.019z"/>
		<path style="fill:#B01A1F;" d="M122.017,73.159c0.049,0.002,0.096,0.009,0.145,0.011c-0.027-1.089-0.119-2.206-0.273-3.349
			c0.014,0.031,0.023,0.063,0.04,0.092c0.033,0.083,0.101,0.143,0.155,0.212c0.009,0.032,0.014,0.065,0.025,0.096
			c0.178,0.52,0.559,0.964,1.119,1.077c0.485,0.098,1.023-0.084,1.338-0.468c0.185-0.226,0.327-0.507,0.36-0.801
			c0.017-0.158,0.021-0.318,0.023-0.477c0.151,1.166,0.241,2.306,0.272,3.42c-0.757,0.13-1.522,0.233-2.29,0.253
			c-0.046-0.004-0.092-0.004-0.138-0.008c-0.106-0.022-0.214-0.038-0.323-0.038c-0.151,0-0.302-0.005-0.453-0.01V73.159z"/>
		<path style="fill:#5A0000;" d="M122.808,73.337c-0.273,0-0.512-0.006-0.705-0.014c-0.084-0.003-0.151-0.074-0.147-0.159
			c0.003-0.083,0.071-0.148,0.153-0.148c0.002,0,0.004,0,0.006,0.001c0.709,0.026,2.073,0.034,3.256-0.208
			c0.091-0.017,0.165,0.038,0.182,0.12c0.016,0.083-0.037,0.165-0.12,0.182C124.542,73.292,123.556,73.337,122.808,73.337z"/>
		<path style="fill:#5A0000;" d="M122.58,76.383c-0.227,0-0.436-0.004-0.621-0.011c-0.084-0.003-0.151-0.074-0.147-0.159
			c0.003-0.083,0.071-0.148,0.153-0.148c0.002,0,0.004,0,0.006,0.001c0.866,0.028,2.277-0.008,3.461-0.169
			c0.089-0.012,0.162,0.047,0.173,0.131c0.012,0.084-0.047,0.162-0.131,0.173C124.523,76.331,123.432,76.383,122.58,76.383z"/>
		<path style="fill:#B01A1F;" d="M157.244,35.796c0.146,0,0.285-0.084,0.35-0.225c2.688-5.928,10.417-19.491,24.031-17.38
			c0.22,0.041,0.406-0.112,0.438-0.32c0.033-0.21-0.111-0.406-0.32-0.438c-9.966-1.545-19.013,4.954-24.848,17.82
			c-0.087,0.194-0.002,0.421,0.191,0.508C157.137,35.785,157.191,35.796,157.244,35.796z"/>
		<path style="fill:#B01A1F;" d="M128.099,74.801c0.037,0,0.075-0.005,0.112-0.017c6.536-1.992,12.721-6.901,17.889-14.198
			c0.123-0.173,0.082-0.413-0.091-0.535c-0.171-0.122-0.413-0.083-0.535,0.091c-5.069,7.157-11.116,11.967-17.487,13.909
			c-0.203,0.062-0.317,0.276-0.255,0.479C127.782,74.696,127.934,74.801,128.099,74.801z"/>
	</g>
	<g>
		<g>
			<path style="fill:#FFFFFF;" d="M101.588,151.816c0,0-18.041,7.127-27.336,22.986l-9.392-7.509c0,0,14.17-21.404,29.762-21.049
				L101.588,151.816z"/>
			<path style="fill:#D8D9DA;" d="M64.453,167.357l0.153-0.232c0.143-0.215,14.437-21.531,30.022-21.186l0.103,0.003l7.456,5.964
				l-0.487,0.193c-0.18,0.071-18.053,7.275-27.187,22.857l-0.177,0.303L64.453,167.357z M94.512,146.546
				c-14.346-0.236-27.658,18.391-29.243,20.686l8.899,7.115c8.438-14.127,23.92-21.35,26.831-22.612L94.512,146.546z"/>
		</g>
		<path style="fill:#D8D9DA;" d="M87.24,159.603c-2.978-2.338-6.219-4.312-9.279-6.537c0.409-0.325,0.824-0.646,1.246-0.959
			c0.037,0.025,0.075,0.049,0.112,0.074c2.269,1.553,4.467,3.207,6.699,4.813c0.512,0.369,1.019,0.744,1.527,1.117
			c0.376,0.277,0.769,0.559,1.206,0.734c0.122,0.049,0.242,0.084,0.361,0.109c-0.461,0.334-0.926,0.684-1.394,1.042
			C87.557,159.867,87.402,159.73,87.24,159.603z"/>
		<path style="fill:#D8D9DA;" d="M81.785,165.076c0.181-0.594,0.234-1.213-0.062-1.778c-0.318-0.608-0.831-1.106-1.334-1.561
			c-1.111-1.006-2.362-1.844-3.532-2.776c-0.709-0.565-1.574-0.947-2.489-0.96c-0.842-0.012-1.642,0.277-2.364,0.691
			c-0.112,0.064-0.217,0.136-0.326,0.204c1.159-1.23,2.431-2.498,3.811-3.739c0.116,0.093,0.237,0.181,0.352,0.274
			c1.834,1.485,3.578,3.065,5.564,4.347c1.209,0.78,2.454,1.542,3.597,2.427c-1.103,0.946-2.202,1.967-3.283,3.049
			C81.741,165.195,81.767,165.137,81.785,165.076z"/>
	</g>
</g>
</svg>
