<?xml version="1.0" encoding="utf-8"?>
<!-- Generator: Adobe Illustrator 27.5.0, SVG Export Plug-In . SVG Version: 6.00 Build 0)  -->
<svg version="1.1" id="Layer_1" xmlns="http://www.w3.org/2000/svg" xmlns:xlink="http://www.w3.org/1999/xlink" x="0px" y="0px"
	 viewBox="0 0 429.697 185.667" style="enable-background:new 0 0 429.697 185.667;" xml:space="preserve">
<g>
	<g>
		<g>
			<path style="fill:#D27A57;" d="M25.061,177.232c-2.541-3.199-4.908-6.542-6.995-10.055c-1.031-1.735-1.958-3.518-2.872-5.316
				c-0.89-1.75-1.773-3.503-2.629-5.27c-1.78-3.675-3.447-7.414-4.778-11.278c-0.502-1.459-0.955-2.938-1.342-4.434
				c0.328-0.106,0.657-0.213,0.982-0.326c3.922-1.363,7.757-3.061,11.575-4.687c3.827-1.63,7.624-3.327,11.377-5.119
				c3.633-1.735,7.286-3.48,10.834-5.386c1.815-0.975,3.65-2.014,5.28-3.282c0.699-0.543,1.398-1.102,1.943-1.806
				c0.195-0.641,0.401-1.279,0.628-1.909c0.283-0.782,0.591-1.551,0.912-2.315c0.48-1.101,0.977-2.195,1.507-3.273
				c1.495-3.042,3.191-5.99,5.099-8.793c0.914-1.076,1.851-2.13,2.864-3.115c2.275-2.211,5.013-3.912,7.79-5.422
				c1.389-0.755,2.827-1.423,4.323-1.941c1.587-0.55,3.223-0.88,4.873-1.175c3.621-0.647,7.28-1.074,10.947-1.358
				c7.224-0.56,14.469-0.542,21.709-0.628c3.382-0.04,6.782-0.063,10.144,0.355c1.615,0.201,3.207,0.486,4.723,1.094
				c1.518,0.609,2.949,1.408,4.396,2.166c3.199,1.676,6.492,3.181,9.745,4.748c2.41,1.162,5.136,2.135,6.791,4.359
				c1.084,1.455,1.637,3.358,1.195,5.15c-0.449,1.822-1.812,3.202-3.517,3.92c-2.543,1.071-5.562,0.808-8.163,0.112
				c-2.983-0.798-5.748-2.321-8.265-4.082c-2.495-1.746-4.933-3.604-7.817-4.677c-1.392-0.517-2.875-0.851-4.368-0.775
				c-1.741,0.089-3.473,0.442-5.165,0.845c-0.594,0.142-1.187,0.291-1.78,0.441c0.867,1.963,0.853,4.256,1.002,6.362
				c0.207,2.92,0.749,5.813,1.268,8.69c1.127,6.243,2.343,12.452,3.876,18.609c0.43,1.726,0.856,3.449,1.365,5.154
				c0.498,1.665,1.029,3.321,1.521,4.988c0.041,0.139-0.069,0.255-0.18,0.31c-1.848,0.921-3.82,1.478-5.715,2.285
				c-1.976,0.842-3.819,2.017-5.713,3.027c-3.842,2.048-7.833,3.708-12.058,4.788c-4.187,1.07-8.515,1.617-12.837,1.606
				c-2.898-0.007-5.818-0.201-8.652-0.812c-1.375,0.725-2.792,1.38-4.195,2.04c-1.824,0.858-3.662,1.69-5.45,2.621
				c-1.761,0.917-3.478,1.915-5.174,2.948c-3.367,2.049-6.658,4.22-10.071,6.193c-3.492,2.019-6.959,4.082-10.361,6.25
				c-1.945,1.239-3.878,2.508-5.778,3.823C28.205,181.043,26.597,179.166,25.061,177.232z"/>
			<path style="fill:#FAD6BE;" d="M25.061,177.232c-2.541-3.199-4.908-6.542-6.995-10.055c-1.031-1.735-1.958-3.518-2.872-5.316
				c-0.89-1.75-1.773-3.503-2.629-5.27c-1.78-3.675-3.447-7.414-4.778-11.278c-0.367-1.065-0.704-2.141-1.012-3.226
				c1.715-0.551,3.393-1.192,5.07-1.866c7.561-3.04,15.054-6.266,22.376-9.846c3.462-1.693,6.985-3.314,10.292-5.3
				c1.112-0.668,2.254-1.383,3.236-2.255c-0.12,0.52-0.23,1.042-0.329,1.567c-0.371,1.978-0.652,4.035-0.474,6.049
				c0.014,0.16,0.376,0.303,0.397,0.092c0.217-2.279,0.508-4.5,1.136-6.709c0.282-0.993,0.606-1.97,0.961-2.935
				c0.352-0.549,0.62-1.148,0.692-1.772c0.911-2.232,1.953-4.412,2.99-6.588c0.872-1.829,1.679-3.672,2.749-5.399
				c0.511-0.825,1.116-1.596,1.72-2.354c0.414-0.519,0.782-1.069,1.163-1.609c0.098-0.107,0.196-0.215,0.295-0.322
				c0.113-0.122,0.229-0.242,0.343-0.362c0.118-0.123,0.235-0.247,0.354-0.369c0.226-0.23,0.456-0.457,0.689-0.68
				c0.086-0.082,0.174-0.161,0.261-0.243c0.171-0.16,0.344-0.318,0.519-0.473c0.096-0.085,0.194-0.169,0.292-0.252
				c0.181-0.155,0.365-0.307,0.552-0.456c0.088-0.071,0.176-0.143,0.265-0.212c0.276-0.214,0.556-0.424,0.844-0.625
				c0.192-0.134,0.388-0.265,0.583-0.397c0,0,0,0,0,0c2.404-1.632,4.979-3.119,7.688-4.156c3.207-1.227,6.704-1.672,10.092-2.108
				c3.551-0.457,7.122-0.737,10.697-0.912c3.576-0.175,7.157-0.245,10.737-0.281c3.435-0.035,6.875-0.108,10.31-0.069
				c1.692,0.02,3.385,0.087,5.07,0.254c1.61,0.159,3.262,0.355,4.796,0.891c1.534,0.537,2.961,1.327,4.393,2.085
				c1.513,0.801,3.056,1.543,4.596,2.29c1.603,0.778,3.209,1.548,4.814,2.322c1.542,0.743,3.122,1.441,4.626,2.258
				c1.683,0.914,3.109,2.432,3.475,4.362c0.32,1.689-0.249,3.418-1.545,4.557c-1.821,1.6-4.455,1.785-6.757,1.504
				c-3.034-0.371-5.86-1.682-8.43-3.286c-2.518-1.571-4.783-3.498-7.422-4.882c-1.322-0.693-2.709-1.279-4.164-1.625
				c-1.481-0.352-2.945-0.394-4.454-0.218c-3.381,0.394-6.703,1.398-9.979,2.288c-3.261,0.886-6.401,2.04-9.444,3.514
				c-1.492,0.722-2.977,1.504-4.377,2.391c-1.39,0.881-2.709,1.887-4.105,2.751c-0.149,0.092,0.119,0.31,0.255,0.226
				c1.465-0.906,3.081-1.649,4.624-2.413c3.14-1.555,6.213-3.185,9.524-4.364c1.642-0.585,3.29-1.01,4.993-1.372
				c0.893-0.19,1.781-0.409,2.667-0.632c0.25,1.022,0.335,2.107,0.399,3.138c0.088,1.41,0.099,2.825,0.216,4.233
				c0.249,3.003,0.889,5.999,1.425,8.961c0.562,3.111,1.13,6.218,1.794,9.309c0.661,3.079,1.377,6.148,2.187,9.191
				c0.765,2.875,1.728,5.684,2.619,8.52c-1.931,0.963-4.087,1.419-6.047,2.316c-1.067,0.488-2.082,1.098-3.109,1.662
				c-1.042,0.572-2.086,1.14-3.142,1.686c-7.551,3.901-15.94,5.98-24.458,5.687c-1.392-0.048-2.784-0.15-4.165-0.319
				c-2.91,0.259-5.899-0.593-8.568-1.659c-1.427-0.569-2.835-1.236-4.183-2.005c0.443,0.336,0.899,0.651,1.362,0.942
				c1.668,1.048,3.517,1.847,5.385,2.461c0.443,0.145,0.889,0.277,1.337,0.398c-1.551,0.728-3.119,1.422-4.68,2.125
				c-1.852,0.834-3.687,1.684-5.473,2.655c-1.717,0.934-3.399,1.933-5.064,2.957c-3.393,2.085-6.753,4.212-10.2,6.208
				c-5.111,2.96-10.113,6.078-14.957,9.439C27.719,180.478,26.366,178.874,25.061,177.232z"/>
			<path style="opacity:0.69;fill:#FAD6BE;" d="M25.061,177.232c-2.33-2.934-4.511-5.991-6.468-9.187
				c1.715-0.477,3.433-0.942,5.14-1.444c2.738-0.805,5.456-1.711,8.042-2.928c2.579-1.214,5.008-2.76,7.082-4.725
				c2.09-1.981,3.837-4.331,4.799-7.063c0.894-2.539,1.121-5.255,1.114-7.93c-0.007-2.729-0.252-5.45-0.294-8.177
				c-0.028-1.844,0.153-3.666,0.382-5.495c0.26-2.069,0.595-4.148,1.165-6.157c0.571-0.382,1.127-0.788,1.642-1.236
				c0.017,0.03,0.033,0.061,0.051,0.091c-0.106,0.467-0.207,0.935-0.295,1.406c-0.371,1.978-0.652,4.035-0.474,6.049
				c0.014,0.16,0.376,0.303,0.397,0.092c0.208-2.184,0.488-4.314,1.062-6.432c1.571,2.352,3.675,4.358,6.186,5.679
				c3.175,1.67,6.732,2.052,10.244,1.465c8.692-1.453,14.667-8.132,20.373-14.276c-0.01,1.076-0.083,2.151-0.239,3.217
				c-0.707,4.824-2.937,9.194-5.367,13.357c-1.083,1.855-2.246,3.664-3.166,5.61c-0.869,1.838-1.613,3.866-1.549,5.929
				c0.063,2.001,1.02,3.701,2.617,4.886c1.258,0.934,2.739,1.527,4.287,1.757c3.397,0.504,6.866-0.559,9.864-2.103
				c3.183-1.638,6.111-3.941,8.383-6.714c0.949-1.158,1.799-2.416,2.394-3.794c0.984-2.277,1.513-4.724,1.72-7.19
				c0.211-2.518,0.088-5.054-0.215-7.559c-0.255-2.11-0.586-4.224-0.927-6.322c-0.349-2.148-0.807-4.298-1.558-6.344
				c-0.648-1.766-1.532-3.581-2.995-4.816c-0.18-0.152-0.365-0.283-0.555-0.401c0.288-0.11,0.575-0.222,0.866-0.325
				c1.642-0.585,3.29-1.01,4.993-1.372c0.893-0.19,1.781-0.409,2.667-0.632c0.25,1.022,0.335,2.107,0.399,3.138
				c0.088,1.41,0.099,2.825,0.216,4.233c0.249,3.003,0.889,5.999,1.425,8.961c0.562,3.111,1.13,6.218,1.794,9.309
				c0.661,3.079,1.377,6.148,2.187,9.191c0.765,2.875,1.728,5.684,2.619,8.52c-1.931,0.963-4.087,1.419-6.047,2.316
				c-1.067,0.488-2.082,1.098-3.109,1.662c-1.042,0.572-2.086,1.14-3.142,1.686c-7.551,3.901-15.94,5.98-24.458,5.687
				c-1.392-0.048-2.784-0.15-4.165-0.319c-2.91,0.259-5.899-0.593-8.568-1.659c-1.427-0.569-2.835-1.236-4.183-2.005
				c0.443,0.336,0.899,0.651,1.362,0.942c1.668,1.048,3.517,1.847,5.385,2.461c0.443,0.145,0.889,0.277,1.337,0.398
				c-1.551,0.728-3.119,1.422-4.68,2.125c-1.852,0.834-3.687,1.684-5.473,2.655c-1.717,0.934-3.399,1.933-5.064,2.957
				c-3.393,2.085-6.753,4.212-10.2,6.208c-5.111,2.96-10.113,6.078-14.957,9.439C27.719,180.478,26.366,178.874,25.061,177.232z"/>
		</g>
		<path style="opacity:0.69;fill:#FAD6BE;" d="M96.606,105.922c-1.168-0.305-2.432-0.186-3.664,0.116
			c-1.033,0.253-2.038,0.607-3.052,0.926c-1.227,0.385-2.474,0.706-3.713,1.05c-5.078,1.408-10.189,2.866-14.961,5.129
			c0.271-0.25,0.543-0.5,0.819-0.745c4.887-4.345,10.522-7.812,16.606-10.209c6.065-2.39,12.504-3.727,18.992-4.25
			c3.002-0.242,5.974-0.376,8.931,0.298c2.545,0.58,4.949,1.614,7.282,2.765c2.36,1.164,4.667,2.437,7.071,3.511
			c2.3,1.028,4.75,2.001,7.289,2.174c1.113,0.076,2.353-0.021,3.294-0.681c0.907-0.636,1.407-1.736,1.351-2.837
			c-0.02-0.387-0.094-0.758-0.202-1.118c1.186,0.912,2.109,2.16,2.393,3.658c0.32,1.689-0.249,3.418-1.545,4.557
			c-1.821,1.6-4.455,1.785-6.757,1.504c-3.034-0.371-5.86-1.682-8.43-3.286c-2.518-1.571-4.783-3.498-7.422-4.882
			c-1.322-0.693-2.709-1.279-4.164-1.625c-1.481-0.352-2.945-0.394-4.454-0.218c-3.381,0.394-6.703,1.398-9.979,2.288
			C100.356,104.572,98.463,105.196,96.606,105.922z"/>
	</g>
	<g>
		<g>
			<path style="fill:#D27A57;" d="M404.637,171.278c2.541-3.199,4.908-6.542,6.995-10.055c1.031-1.735,1.958-3.518,2.872-5.316
				c0.89-1.75,1.773-3.503,2.629-5.27c1.78-3.675,3.447-7.414,4.778-11.278c0.502-1.459,0.955-2.938,1.342-4.434
				c-0.328-0.106-0.657-0.213-0.982-0.326c-3.922-1.363-7.757-3.061-11.575-4.687c-3.827-1.63-7.624-3.327-11.377-5.119
				c-3.633-1.735-7.286-3.48-10.834-5.386c-1.815-0.975-3.65-2.014-5.28-3.282c-0.699-0.543-1.398-1.102-1.943-1.806
				c-0.195-0.641-0.401-1.279-0.628-1.909c-0.283-0.782-0.591-1.551-0.912-2.315c-0.48-1.101-0.977-2.195-1.507-3.273
				c-1.495-3.042-3.191-5.99-5.099-8.793c-0.914-1.076-1.851-2.13-2.864-3.115c-2.275-2.211-5.013-3.912-7.79-5.422
				c-1.389-0.755-2.827-1.423-4.323-1.941c-1.587-0.55-3.223-0.88-4.874-1.175c-3.621-0.647-7.28-1.074-10.947-1.358
				c-7.224-0.56-14.469-0.542-21.709-0.628c-3.382-0.04-6.782-0.063-10.144,0.355c-1.615,0.201-3.207,0.486-4.723,1.094
				c-1.519,0.609-2.949,1.408-4.396,2.166c-3.199,1.676-6.492,3.181-9.745,4.748c-2.41,1.162-5.136,2.135-6.791,4.359
				c-1.084,1.455-1.637,3.358-1.195,5.15c0.449,1.822,1.812,3.203,3.517,3.92c2.543,1.071,5.562,0.808,8.163,0.112
				c2.983-0.798,5.748-2.321,8.265-4.082c2.495-1.746,4.933-3.604,7.817-4.677c1.392-0.517,2.875-0.851,4.368-0.775
				c1.741,0.089,3.473,0.442,5.165,0.845c0.594,0.142,1.187,0.291,1.78,0.441c-0.867,1.963-0.853,4.256-1.002,6.362
				c-0.207,2.92-0.749,5.813-1.268,8.69c-1.127,6.243-2.343,12.452-3.876,18.609c-0.43,1.726-0.856,3.449-1.365,5.154
				c-0.498,1.665-1.029,3.321-1.521,4.988c-0.041,0.139,0.069,0.255,0.18,0.31c1.848,0.921,3.82,1.478,5.715,2.285
				c1.976,0.842,3.819,2.017,5.713,3.027c3.842,2.048,7.833,3.708,12.058,4.788c4.186,1.07,8.515,1.617,12.837,1.606
				c2.898-0.007,5.818-0.201,8.652-0.812c1.375,0.725,2.792,1.38,4.195,2.04c1.824,0.858,3.662,1.69,5.45,2.621
				c1.761,0.917,3.478,1.915,5.174,2.948c3.367,2.049,6.658,4.22,10.071,6.193c3.492,2.019,6.959,4.082,10.361,6.25
				c1.945,1.239,3.878,2.508,5.778,3.823C401.492,175.089,403.1,173.213,404.637,171.278z"/>
			<path style="fill:#FAD6BE;" d="M404.637,171.278c2.541-3.199,4.908-6.542,6.995-10.055c1.031-1.735,1.958-3.518,2.872-5.316
				c0.89-1.75,1.773-3.503,2.629-5.27c1.78-3.675,3.447-7.414,4.778-11.278c0.367-1.065,0.704-2.141,1.012-3.226
				c-1.715-0.551-3.393-1.192-5.07-1.866c-7.561-3.04-15.054-6.266-22.376-9.846c-3.462-1.693-6.985-3.314-10.292-5.3
				c-1.112-0.668-2.254-1.383-3.235-2.255c0.12,0.52,0.23,1.042,0.329,1.567c0.371,1.978,0.651,4.035,0.474,6.049
				c-0.014,0.16-0.376,0.303-0.397,0.092c-0.217-2.279-0.508-4.5-1.136-6.709c-0.282-0.993-0.606-1.97-0.961-2.935
				c-0.352-0.549-0.62-1.148-0.692-1.772c-0.911-2.232-1.953-4.412-2.99-6.588c-0.872-1.829-1.679-3.672-2.749-5.399
				c-0.511-0.825-1.116-1.596-1.72-2.353c-0.414-0.519-0.782-1.069-1.163-1.609c-0.098-0.107-0.196-0.215-0.295-0.322
				c-0.113-0.122-0.229-0.242-0.343-0.362c-0.118-0.123-0.235-0.247-0.354-0.369c-0.226-0.23-0.456-0.457-0.689-0.68
				c-0.086-0.082-0.174-0.161-0.261-0.243c-0.171-0.16-0.344-0.318-0.519-0.473c-0.096-0.085-0.194-0.169-0.292-0.252
				c-0.181-0.155-0.365-0.307-0.551-0.456c-0.088-0.071-0.176-0.143-0.265-0.212c-0.276-0.214-0.556-0.424-0.844-0.625
				c-0.192-0.134-0.388-0.265-0.583-0.397c0,0,0,0,0,0c-2.404-1.632-4.979-3.119-7.688-4.156c-3.207-1.227-6.704-1.672-10.092-2.108
				c-3.551-0.457-7.122-0.737-10.697-0.912c-3.576-0.175-7.157-0.245-10.737-0.281c-3.435-0.035-6.874-0.108-10.309-0.069
				c-1.692,0.02-3.385,0.087-5.07,0.254c-1.61,0.159-3.262,0.355-4.796,0.891c-1.534,0.537-2.961,1.327-4.393,2.085
				c-1.513,0.801-3.056,1.543-4.596,2.29c-1.603,0.778-3.209,1.548-4.814,2.322c-1.542,0.743-3.122,1.441-4.626,2.258
				c-1.683,0.914-3.109,2.432-3.475,4.362c-0.32,1.689,0.249,3.418,1.545,4.557c1.821,1.6,4.455,1.785,6.757,1.504
				c3.034-0.371,5.861-1.682,8.43-3.286c2.518-1.571,4.783-3.498,7.422-4.882c1.322-0.693,2.709-1.279,4.164-1.625
				c1.482-0.352,2.945-0.394,4.454-0.218c3.381,0.394,6.703,1.398,9.979,2.288c3.261,0.886,6.401,2.04,9.444,3.514
				c1.492,0.722,2.977,1.504,4.377,2.391c1.39,0.881,2.709,1.887,4.105,2.751c0.149,0.092-0.119,0.31-0.255,0.226
				c-1.465-0.906-3.081-1.649-4.624-2.413c-3.14-1.555-6.213-3.185-9.524-4.364c-1.642-0.585-3.29-1.01-4.993-1.372
				c-0.893-0.19-1.781-0.409-2.667-0.632c-0.25,1.022-0.335,2.107-0.399,3.138c-0.088,1.41-0.099,2.825-0.216,4.233
				c-0.249,3.003-0.889,5.999-1.425,8.961c-0.562,3.111-1.13,6.218-1.794,9.309c-0.661,3.079-1.377,6.148-2.187,9.191
				c-0.765,2.875-1.728,5.684-2.619,8.52c1.931,0.963,4.087,1.419,6.047,2.316c1.067,0.488,2.082,1.098,3.109,1.662
				c1.042,0.572,2.086,1.14,3.142,1.686c7.551,3.901,15.94,5.98,24.458,5.687c1.392-0.048,2.784-0.15,4.166-0.319
				c2.91,0.259,5.898-0.593,8.568-1.659c1.427-0.569,2.835-1.236,4.182-2.005c-0.442,0.336-0.899,0.651-1.362,0.942
				c-1.668,1.048-3.517,1.847-5.385,2.461c-0.443,0.145-0.889,0.277-1.337,0.398c1.551,0.728,3.119,1.422,4.68,2.125
				c1.852,0.834,3.687,1.684,5.473,2.655c1.717,0.934,3.399,1.933,5.064,2.957c3.393,2.085,6.753,4.212,10.2,6.208
				c5.111,2.96,10.113,6.078,14.957,9.439C401.978,174.525,403.332,172.921,404.637,171.278z"/>
			<path style="opacity:0.69;fill:#FAD6BE;" d="M404.637,171.278c2.331-2.934,4.511-5.991,6.468-9.187
				c-1.715-0.477-3.432-0.942-5.14-1.444c-2.738-0.805-5.456-1.711-8.042-2.928c-2.579-1.214-5.008-2.76-7.082-4.725
				c-2.09-1.981-3.837-4.331-4.799-7.063c-0.894-2.539-1.121-5.255-1.114-7.93c0.007-2.729,0.252-5.45,0.294-8.177
				c0.028-1.844-0.153-3.666-0.382-5.495c-0.26-2.069-0.595-4.148-1.165-6.157c-0.571-0.382-1.127-0.788-1.642-1.236
				c-0.017,0.03-0.033,0.061-0.051,0.091c0.106,0.467,0.207,0.935,0.295,1.406c0.371,1.978,0.651,4.035,0.474,6.049
				c-0.014,0.16-0.376,0.303-0.397,0.092c-0.208-2.184-0.487-4.314-1.062-6.432c-1.571,2.352-3.675,4.358-6.186,5.679
				c-3.175,1.67-6.732,2.052-10.244,1.465c-8.692-1.453-14.667-8.132-20.373-14.276c0.01,1.076,0.083,2.151,0.239,3.217
				c0.707,4.824,2.937,9.194,5.367,13.357c1.083,1.855,2.246,3.664,3.166,5.61c0.869,1.838,1.613,3.866,1.549,5.929
				c-0.063,2.001-1.02,3.701-2.617,4.886c-1.258,0.934-2.739,1.527-4.287,1.757c-3.397,0.504-6.865-0.559-9.864-2.103
				c-3.183-1.638-6.111-3.941-8.383-6.713c-0.949-1.158-1.799-2.416-2.394-3.794c-0.983-2.277-1.513-4.724-1.72-7.19
				c-0.211-2.518-0.088-5.054,0.215-7.559c0.255-2.11,0.586-4.224,0.927-6.322c0.349-2.148,0.807-4.298,1.558-6.344
				c0.648-1.766,1.531-3.581,2.995-4.816c0.18-0.152,0.365-0.283,0.555-0.401c-0.288-0.11-0.575-0.222-0.866-0.325
				c-1.642-0.585-3.29-1.01-4.993-1.372c-0.893-0.19-1.781-0.409-2.667-0.632c-0.25,1.022-0.335,2.107-0.399,3.138
				c-0.088,1.41-0.099,2.825-0.216,4.233c-0.249,3.003-0.889,5.999-1.425,8.961c-0.562,3.111-1.13,6.218-1.794,9.309
				c-0.661,3.079-1.377,6.148-2.187,9.191c-0.765,2.875-1.728,5.684-2.619,8.52c1.931,0.963,4.087,1.419,6.047,2.316
				c1.067,0.488,2.082,1.098,3.109,1.662c1.042,0.572,2.086,1.14,3.142,1.686c7.551,3.901,15.94,5.98,24.458,5.687
				c1.392-0.048,2.784-0.15,4.166-0.319c2.91,0.259,5.898-0.593,8.568-1.659c1.427-0.569,2.835-1.236,4.182-2.005
				c-0.442,0.336-0.899,0.651-1.362,0.942c-1.668,1.048-3.517,1.847-5.385,2.461c-0.443,0.145-0.889,0.277-1.337,0.398
				c1.551,0.728,3.119,1.422,4.68,2.125c1.852,0.834,3.687,1.684,5.473,2.655c1.717,0.934,3.399,1.933,5.064,2.957
				c3.393,2.085,6.753,4.212,10.2,6.208c5.111,2.96,10.113,6.078,14.957,9.439C401.978,174.525,403.332,172.921,404.637,171.278z"/>
		</g>
		<path style="opacity:0.69;fill:#FAD6BE;" d="M333.091,99.968c1.168-0.305,2.432-0.186,3.664,0.116
			c1.033,0.253,2.038,0.607,3.052,0.926c1.227,0.385,2.474,0.707,3.713,1.05c5.078,1.408,10.189,2.866,14.961,5.129
			c-0.271-0.25-0.543-0.5-0.819-0.745c-4.887-4.345-10.522-7.812-16.606-10.209c-6.065-2.39-12.504-3.727-18.992-4.25
			c-3.002-0.242-5.974-0.376-8.932,0.298c-2.545,0.579-4.949,1.614-7.282,2.765c-2.36,1.164-4.667,2.437-7.071,3.511
			c-2.3,1.028-4.75,2.001-7.289,2.174c-1.113,0.076-2.353-0.021-3.294-0.681c-0.907-0.636-1.407-1.736-1.351-2.837
			c0.02-0.387,0.094-0.758,0.202-1.118c-1.185,0.912-2.109,2.16-2.393,3.658c-0.32,1.689,0.249,3.418,1.545,4.557
			c1.821,1.6,4.455,1.785,6.757,1.504c3.034-0.371,5.861-1.682,8.43-3.286c2.518-1.571,4.783-3.498,7.422-4.882
			c1.322-0.693,2.709-1.279,4.164-1.625c1.482-0.352,2.945-0.394,4.454-0.218c3.381,0.394,6.703,1.398,9.979,2.288
			C329.341,98.619,331.234,99.242,333.091,99.968z"/>
		<path style="fill:#FAD6BE;" d="M305.991,95.623c-0.712,0.543-1.41,1.114-2.153,1.614c-1.19,0.799-2.471,1.455-3.694,2.2
			c-1.153,0.702-2.388,1.481-3.181,2.601c-0.411,0.581-0.683,1.237-0.701,1.956c-0.015,0.595,0.128,1.195,0.453,1.688
			c0.047-1.236,0.678-2.352,1.509-3.268c1.894-2.087,4.505-3.307,6.783-4.899c0.715-0.499,1.352-1.1,2.005-1.676
			c0.823-0.726,1.64-1.46,2.442-2.211c0.858-0.803,1.696-1.628,2.51-2.475c-1.176,0.853-2.342,1.719-3.501,2.594
			C307.638,94.37,306.814,94.996,305.991,95.623z"/>
		<path style="fill:#B97115;" d="M371.762,98.124c-0.001-0.001-0.001-0.001-0.002-0.002c-0.151-0.173-0.303-0.344-0.456-0.516
			c-0.082-0.091-0.163-0.183-0.246-0.273c-0.135-0.15-0.272-0.299-0.41-0.447c-0.113-0.122-0.229-0.242-0.343-0.362
			c-0.118-0.123-0.235-0.247-0.354-0.369c-0.226-0.23-0.456-0.457-0.689-0.68c-0.086-0.082-0.174-0.161-0.261-0.242
			c-0.171-0.16-0.344-0.318-0.519-0.473c-0.096-0.085-0.194-0.169-0.292-0.252c-0.181-0.155-0.365-0.307-0.551-0.456
			c-0.088-0.071-0.176-0.143-0.265-0.212c-0.276-0.214-0.556-0.424-0.844-0.625c-0.192-0.134-0.388-0.265-0.582-0.397
			c0.182,0.148,0.362,0.299,0.544,0.445C368.359,94.762,370.116,96.39,371.762,98.124z"/>
		<g>
			<g>
				<path style="fill:#D27A57;" d="M312.594,126.882c1.515-1.472,2.069-3.724,1.712-5.773c-0.365-2.095-1.734-3.911-3.251-5.417
					c0.421-1.288,1.154-2.455,1.818-3.647c0.215-3.123,0.637-6.228,0.929-9.344c-2.804-0.366-5.697,0.173-8.469,0.605
					c-3.03,0.472-6.017,1.256-8.806,2.545c-2.341,1.082-4.9,2.534-6.08,4.943c-0.861,1.759-0.777,3.734-0.164,5.541
					c-0.484,0.214-0.889,0.61-1.246,0.991c-0.568,0.607-1.137,1.212-1.647,1.87c-1.088,1.402-1.893,3.01-2.181,4.771
					c-0.491,2.996,0.133,6.677,2.534,8.747c0.201,0.173,0.413,0.327,0.63,0.472c-0.547,0.531-0.699,1.505-0.82,2.186
					c-0.216,1.22-0.409,2.522-0.273,3.759c0.291,2.638,2.496,4.829,4.867,5.772c1.282,0.51,2.691,0.709,4.06,0.819
					c1.533,0.123,3.084,0.092,4.612-0.079c1.51-0.168,3.014-0.476,4.459-0.948c1.36-0.444,2.566-1.091,3.518-2.18
					c0.989-1.132,1.401-2.579,1.478-4.057c0.068-1.298-0.196-2.65-1.035-3.659c1.016-0.648,1.881-1.52,2.454-2.6
					c0.79-1.487,0.688-3.15-0.367-4.425C311.775,127.555,312.201,127.264,312.594,126.882z"/>
				<path style="fill:#FAD6BE;" d="M309.216,138.269c-0.019,1.135-0.201,2.358-0.835,3.323c-0.681,1.036-1.682,1.704-2.836,2.112
					c-1.242,0.439-2.528,0.737-3.831,0.925c-4.603,0.664-10.944,0.452-13.048-4.541c-0.57-1.353-0.388-2.738-0.312-4.159
					c0.027-0.507,0.071-1.011,0.149-1.512c0.042-0.268,0.069-0.703,0.191-1.025c1.087,0.645,2.33,1.001,3.57,1.255
					c1.673,0.343,3.36,0.636,5.037,0.963c3.412,0.663,7.151,1.224,10.488-0.071c0.246-0.096,0.486-0.206,0.722-0.324
					C309.07,136.13,309.234,137.202,309.216,138.269z"/>
				<path style="opacity:0.69;fill:#FAD6BE;" d="M309.216,138.269c0.018-1.067-0.146-2.139-0.704-3.055
					c-0.236,0.118-0.476,0.229-0.722,0.324c-3.337,1.295-7.077,0.734-10.488,0.071c-1.677-0.326-3.363-0.619-5.037-0.963
					c-1.239-0.254-2.483-0.61-3.57-1.255c-0.122,0.321-0.15,0.757-0.191,1.025c-0.003,0.018-0.004,0.037-0.007,0.056
					c0.474,0.499,1.116,0.88,1.736,1.165c1.763,0.813,3.703,1.216,5.584,1.655c0.948,0.221,1.897,0.439,2.832,0.708
					c0.77,0.221,1.542,0.472,2.251,0.849c0.515,0.274,1.039,0.641,1.298,1.183c0.26,0.545,0.155,1.153-0.107,1.676
					c-0.187,0.373-0.434,0.71-0.706,1.026c-0.556,0.644-1.181,1.223-1.879,1.711c-0.222,0.156-0.454,0.304-0.693,0.444
					c1.005-0.032,1.988-0.128,2.902-0.26c1.303-0.188,2.589-0.486,3.831-0.925c1.154-0.408,2.155-1.075,2.836-2.112
					C309.015,140.627,309.197,139.404,309.216,138.269z"/>
				<path style="opacity:0.69;fill:#FAD6BE;" d="M309.216,138.269c0.018-1.067-0.146-2.139-0.704-3.055
					c-0.236,0.118-0.476,0.229-0.722,0.324c-3.337,1.295-7.077,0.734-10.488,0.071c-1.677-0.326-3.363-0.619-5.037-0.963
					c-1.186-0.243-2.374-0.583-3.428-1.176c0.328,0.408,0.764,0.752,1.157,1.023c0.736,0.507,1.556,0.912,2.42,1.149
					c1.583,0.434,3.198,0.715,4.826,0.913c1.217,0.148,2.441,0.277,3.667,0.318c1.659,0.055,3.46-0.027,5.029,0.603
					c0.666,0.267,1.269,0.702,1.602,1.353c0.418,0.817,0.335,1.766,0.147,2.632c-0.098,0.451-0.242,0.897-0.423,1.327
					c0.428-0.33,0.808-0.722,1.118-1.195C309.015,140.627,309.197,139.404,309.216,138.269z"/>
				<path style="fill:#FFC40C;" d="M310.834,131.885c-0.568,1.203-1.656,2.151-2.854,2.698c-2.924,1.335-6.353,0.982-9.421,0.439
					c-1.539-0.272-3.064-0.611-4.605-0.874c-1.491-0.255-3.013-0.526-4.366-1.239c-2.703-1.423-3.698-4.565-3.696-7.451
					c0.001-1.75,0.435-3.421,1.329-4.93c0.487-0.821,1.06-1.587,1.686-2.307c0.409-0.471,0.899-1.218,1.509-1.517
					c0.253,0.659,0.572,1.291,0.941,1.878c1.5,2.387,3.821,4.227,6.199,5.683c2.438,1.493,5.08,2.641,7.814,3.471
					c1.613,0.49,3.386,0.799,4.978,0.393C311.216,129.257,311.455,130.57,310.834,131.885z"/>
				<path style="fill:#FAD6BE;" d="M310.834,131.885c-0.568,1.203-1.656,2.151-2.854,2.698c-2.924,1.335-6.353,0.982-9.421,0.439
					c-1.539-0.272-3.064-0.611-4.605-0.874c-1.491-0.255-3.013-0.526-4.366-1.239c-2.703-1.423-3.698-4.565-3.696-7.451
					c0.001-1.75,0.435-3.421,1.329-4.93c0.487-0.821,1.06-1.587,1.686-2.307c0.409-0.471,0.899-1.218,1.509-1.517
					c0.253,0.659,0.572,1.291,0.941,1.878c1.5,2.387,3.821,4.227,6.199,5.683c2.438,1.493,5.08,2.641,7.814,3.471
					c1.613,0.49,3.386,0.799,4.978,0.393C311.216,129.257,311.455,130.57,310.834,131.885z"/>
				<path style="opacity:0.69;fill:#FAD6BE;" d="M310.349,128.129c-1.592,0.406-3.366,0.097-4.978-0.393
					c-2.733-0.83-5.376-1.978-7.814-3.471c-2.378-1.456-4.699-3.296-6.199-5.683c-0.368-0.586-0.688-1.219-0.941-1.878
					c-0.609,0.299-1.099,1.046-1.509,1.517c-0.626,0.72-1.199,1.486-1.686,2.307c-0.359,0.606-0.641,1.239-0.853,1.892
					c0.145-0.167,0.295-0.329,0.451-0.484c0.876-0.869,2.401-1.917,3.631-1.088c0.753,0.507,1.299,1.306,1.902,1.97
					c0.363,0.4,0.77,0.692,1.218,0.994c0.525,0.354,1.062,0.692,1.606,1.017c0.811,0.484,1.633,0.935,2.479,1.352
					c0.82,0.404,1.642,0.804,2.438,1.254c1.317,0.744,2.822,1.687,3.167,3.276c0.117,0.54,0.014,1.088-0.369,1.497
					c-0.387,0.414-0.946,0.627-1.481,0.77c-1.264,0.338-2.607,0.324-3.906,0.341c-1.61,0.022-3.22-0.014-4.825-0.156
					c-1.146-0.102-2.36-0.259-3.555-0.525c0.148,0.096,0.302,0.188,0.462,0.272c1.353,0.712,2.875,0.984,4.366,1.239
					c1.54,0.264,3.066,0.602,4.605,0.874c3.068,0.543,6.497,0.896,9.421-0.439c1.198-0.547,2.286-1.496,2.854-2.698
					C311.455,130.57,311.216,129.257,310.349,128.129z"/>
				<path style="opacity:0.69;fill:#FAD6BE;" d="M310.349,128.129c-1.592,0.406-3.366,0.097-4.978-0.393
					c-2.733-0.83-5.376-1.978-7.814-3.471c-2.378-1.456-4.699-3.296-6.199-5.683c-0.368-0.586-0.688-1.219-0.941-1.878
					c-0.099,0.049-0.194,0.112-0.286,0.181c0.262,1.111,0.788,2.16,1.49,3.098c1.266,1.693,2.959,3.033,4.715,4.184
					c0.862,0.565,1.751,1.11,2.669,1.58c1.391,0.714,2.838,1.313,4.291,1.888c0.682,0.27,1.363,0.545,2.052,0.799
					c0.532,0.196,1.073,0.371,1.588,0.608c0.969,0.446,1.796,1.165,2.09,2.226c0.231,0.837,0.112,1.813-0.127,2.634
					c-0.02,0.067-0.043,0.138-0.067,0.208c0.847-0.555,1.574-1.318,2.003-2.228C311.455,130.57,311.216,129.257,310.349,128.129z"/>
				<path style="fill:#FFC40C;" d="M312.472,119.161c-1.325-2.29-3.427-4.174-5.583-5.67c-1.97-1.367-4.367-2.434-5.678-4.539
					c-0.215-0.345,0.458-0.701,0.701-0.408c0.43,0.519,0.924,1.002,1.445,1.429c0.653,0.536,1.362,0.999,2.078,1.449
					c0.029-0.239,0.054-0.478,0.064-0.719c0.013-0.293,0.01-0.589-0.069-0.874c-0.066-0.238-0.19-0.401-0.346-0.583
					c-0.101-0.118,0.061-0.256,0.184-0.245c0.664,0.057,0.818,0.905,0.849,1.433c0.02,0.345-0.005,0.694-0.036,1.038
					c-0.01,0.112-0.022,0.223-0.033,0.335c0.204,0.127,0.409,0.253,0.611,0.381c1.173,0.742,2.276,1.575,3.317,2.493
					c0.161,0.142,0.322,0.289,0.483,0.438c0.676-1.912,2.001-3.562,2.619-5.488c0.1-1.033,0.212-2.066,0.326-3.097
					c0.006-0.368,0.023-0.736,0.08-1.1c0.059-0.38,0.113-0.757,0.162-1.135c0.042-0.398,0.083-0.796,0.122-1.194
					c-0.624-0.004-1.246,0.046-1.87,0.089c-1.437,0.099-2.858,0.326-4.281,0.542c-1.411,0.214-2.824,0.404-4.222,0.698
					c-2.756,0.579-5.474,1.475-7.954,2.82c-2.161,1.172-4.239,2.766-4.589,5.363c-0.352,2.617,0.979,5.248,2.704,7.135
					c1.816,1.987,4.103,3.553,6.479,4.792c1.205,0.628,2.45,1.179,3.723,1.656c1.225,0.46,2.489,0.905,3.777,1.149
					c1.21,0.229,2.512,0.28,3.619-0.34c0.811-0.454,1.411-1.188,1.783-2.033C313.776,123.075,313.492,120.925,312.472,119.161z"/>
				<path style="fill:#FAD6BE;" d="M312.472,119.161c-1.325-2.29-3.427-4.174-5.583-5.67c-1.97-1.367-4.367-2.434-5.678-4.539
					c-0.215-0.345,0.458-0.701,0.701-0.408c0.43,0.519,0.924,1.002,1.445,1.429c0.653,0.536,1.362,0.999,2.078,1.449
					c0.029-0.239,0.054-0.478,0.064-0.719c0.013-0.293,0.01-0.589-0.069-0.874c-0.066-0.238-0.19-0.401-0.346-0.583
					c-0.101-0.118,0.061-0.256,0.184-0.245c0.664,0.057,0.818,0.905,0.849,1.433c0.02,0.345-0.005,0.694-0.036,1.038
					c-0.01,0.112-0.022,0.223-0.033,0.335c0.204,0.127,0.409,0.253,0.611,0.381c1.173,0.742,2.276,1.575,3.317,2.493
					c0.161,0.142,0.322,0.289,0.483,0.438c0.676-1.912,2.001-3.562,2.619-5.488c0.1-1.033,0.212-2.066,0.326-3.097
					c0.006-0.368,0.023-0.736,0.08-1.1c0.059-0.38,0.113-0.757,0.162-1.135c0.042-0.398,0.083-0.796,0.122-1.194
					c-0.624-0.004-1.246,0.046-1.87,0.089c-1.437,0.099-2.858,0.326-4.281,0.542c-1.411,0.214-2.824,0.404-4.222,0.698
					c-2.756,0.579-5.474,1.475-7.954,2.82c-2.161,1.172-4.239,2.766-4.589,5.363c-0.352,2.617,0.979,5.248,2.704,7.135
					c1.816,1.987,4.103,3.553,6.479,4.792c1.205,0.628,2.45,1.179,3.723,1.656c1.225,0.46,2.489,0.905,3.777,1.149
					c1.21,0.229,2.512,0.28,3.619-0.34c0.811-0.454,1.411-1.188,1.783-2.033C313.776,123.075,313.492,120.925,312.472,119.161z"/>
				<path style="opacity:0.69;fill:#FAD6BE;" d="M310.741,103.323c-0.004,1.592-0.43,3.199-0.97,4.686
					c-0.266,0.731-0.575,1.447-0.938,2.135c-0.295,0.558-0.626,1.111-1.05,1.582c-0.091,0.101-0.31,0.103-0.324-0.071
					c-0.083-0.999-0.314-2.012-0.686-2.942c-0.323-0.808-0.859-1.842-1.788-2.04c-0.115,0.785,0.009,1.591,0.133,2.38
					c0.043-0.034,0.098-0.055,0.148-0.05c0.664,0.057,0.818,0.905,0.849,1.433c0.02,0.345-0.005,0.694-0.036,1.038
					c-0.01,0.112-0.022,0.223-0.033,0.335c0.204,0.127,0.409,0.253,0.611,0.381c1.173,0.742,2.276,1.575,3.317,2.493
					c0.161,0.142,0.322,0.289,0.483,0.438c0.676-1.912,2.001-3.562,2.619-5.488c0.1-1.033,0.212-2.066,0.326-3.097
					c0.006-0.368,0.023-0.736,0.08-1.1c0.059-0.38,0.113-0.757,0.162-1.135c0.042-0.398,0.083-0.796,0.122-1.194
					c-0.624-0.004-1.246,0.046-1.87,0.089c-0.386,0.027-0.771,0.064-1.155,0.106C310.741,103.308,310.742,103.315,310.741,103.323z"
					/>
				<path style="opacity:0.69;fill:#FAD6BE;" d="M312.472,119.161c-1.325-2.29-3.427-4.174-5.583-5.67
					c-1.97-1.367-4.367-2.434-5.678-4.539c-0.215-0.345,0.458-0.701,0.701-0.408c0.43,0.519,0.924,1.002,1.445,1.429
					c0.653,0.536,1.362,0.999,2.078,1.449c0.029-0.239,0.054-0.478,0.064-0.719c0.013-0.293,0.01-0.589-0.069-0.874
					c-0.054-0.194-0.148-0.339-0.265-0.485c0.018,0.115,0.035,0.229,0.051,0.343c0.022,0.163-0.205,0.307-0.315,0.149
					c-0.349-0.505-0.866-0.868-1.398-1.16c-1.192-0.656-2.583-1.006-3.933-1.113c-1.016-0.08-2.253-0.054-3.15,0.522
					c0.075,0.033,0.149,0.068,0.224,0.1c1.884,0.815,3.856,1.535,5.527,2.755c0.746,0.545,1.474,1.224,1.832,2.095
					c0.41,0.994,0.13,1.979-0.555,2.774c-0.753,0.873-1.772,1.494-2.778,2.034c-0.23,0.124-0.47,0.234-0.698,0.362
					c-0.314,0.177-0.612,0.375-0.935,0.535c-0.521,0.257-1.082,0.458-1.663,0.513c-1.264,0.12-2.466-0.432-3.531-1.055
					c-0.975-0.57-1.856-1.314-2.49-2.255c-0.087-0.13-0.168-0.262-0.246-0.396c0.458,1.566,1.378,3.027,2.45,4.2
					c1.816,1.987,4.103,3.553,6.479,4.792c1.205,0.628,2.45,1.179,3.723,1.656c1.225,0.46,2.489,0.905,3.777,1.149
					c1.21,0.229,2.512,0.28,3.619-0.34c0.811-0.454,1.411-1.188,1.783-2.033C313.776,123.075,313.492,120.925,312.472,119.161z"/>
				<path style="opacity:0.69;fill:#FAD6BE;" d="M312.472,119.161c-1.32-2.282-3.413-4.161-5.562-5.654
					c-0.373,0.75-0.987,1.449-1.477,1.962c-0.731,0.763-1.533,1.455-2.34,2.136c-0.608,0.513-1.261,1.003-1.807,1.584
					c-0.573,0.61-1.089,1.582-1.003,2.448c0.079,0.801,0.675,1.38,1.331,1.778c0.814,0.494,1.759,0.775,2.683,0.982
					c0.904,0.202,1.827,0.327,2.75,0.4c1.001,0.079,2.142,0.129,2.753,1.056c0.261,0.396,0.384,0.864,0.484,1.322
					c0.013,0.057,0.024,0.115,0.036,0.172c0.287-0.078,0.566-0.188,0.834-0.337c0.811-0.454,1.411-1.188,1.783-2.033
					C313.776,123.075,313.492,120.925,312.472,119.161z"/>
			</g>
			<path style="fill:#FAD6BE;" d="M307.118,142.117c-2.107,0.955-4.379,1.469-6.686,1.606c-2.396,0.143-4.847-0.089-7.128-0.861
				c-1.048-0.355-2.096-0.809-2.926-1.558c-0.686-0.619-1.179-1.406-1.471-2.281c-0.406-1.219-0.473-2.505-0.501-3.79
				c-0.021,0.231-0.038,0.463-0.051,0.695c-0.076,1.421-0.258,2.806,0.312,4.159c2.104,4.994,8.445,5.205,13.048,4.541
				c1.303-0.188,2.589-0.486,3.831-0.925c1.154-0.408,2.155-1.075,2.836-2.112c0.036-0.055,0.066-0.113,0.099-0.17
				C308.033,141.682,307.571,141.912,307.118,142.117z"/>
			<path style="fill:#FAD6BE;" d="M307.321,134.319c-1.223,0.217-2.475,0.252-3.715,0.27c-1.45,0.02-2.902-0.028-4.346-0.158
				c-2.846-0.257-5.798-0.79-8.359-2.116c-0.594-0.308-1.133-0.653-1.612-1.124c-0.502-0.493-0.919-1.07-1.263-1.682
				c-0.686-1.219-1.095-2.609-1.233-3.998c-0.08-0.811-0.073-1.613,0.069-2.418c0.136-0.77,0.368-1.519,0.65-2.248
				c0.259-0.67,0.558-1.322,0.86-1.974c-0.418,0.528-0.806,1.078-1.15,1.658c-0.895,1.509-1.328,3.18-1.329,4.93
				c-0.002,2.885,0.993,6.027,3.696,7.451c1.353,0.712,2.875,0.984,4.366,1.239c1.54,0.264,3.066,0.602,4.605,0.874
				c3.068,0.543,6.497,0.896,9.421-0.439c0.436-0.199,0.857-0.453,1.244-0.751C308.597,134.046,307.954,134.206,307.321,134.319z"/>
			<path style="fill:#FAD6BE;" d="M308.595,127.35c-1.808-0.417-3.519-1.19-5.171-2.019c-2.799-1.405-5.444-3.08-7.745-5.221
				c-2.145-1.996-4.657-5.009-3.733-8.168c0.53-1.811,2.094-3.136,3.649-4.08c1.812-1.1,3.847-1.828,5.881-2.396
				c1.362-0.38,2.732-0.727,4.099-1.09c0.951-0.253,1.895-0.51,2.855-0.727c0.147-0.033,0.293-0.067,0.44-0.101
				c-0.419,0.062-0.837,0.125-1.255,0.189c-1.411,0.214-2.824,0.404-4.222,0.698c-2.756,0.579-5.474,1.475-7.954,2.82
				c-2.161,1.172-4.239,2.766-4.589,5.363c-0.352,2.617,0.979,5.248,2.704,7.135c1.816,1.987,4.103,3.553,6.479,4.792
				c1.205,0.628,2.45,1.179,3.723,1.656c1.225,0.46,2.489,0.905,3.777,1.149c0.592,0.112,1.206,0.18,1.809,0.149
				C309.091,127.456,308.841,127.407,308.595,127.35z"/>
		</g>
	</g>
	<g>
		<g>
			<path style="fill:#B01A1F;" d="M215.659,109.959c-3.419,0-5.998-1.358-7.775-2.805c-6.763-5.506-9.24-18.407-7.309-27.003
				c1.047-4.661,2.806-9.346,5.263-14.031c-2.856-1.579-5.609-3.492-8.241-5.73c-9.099-7.741-15.516-18.694-21.178-28.359
				c-8.304-14.175-15.475-26.42-28.243-25.619c-6.351,0.397-11.171,2.535-14.327,6.356c-5.403,6.541-4.262,15.998-4.249,16.093
				l0.014,0.107l0,0.111v29.41h-3.392V29.181c-0.145-1.261-1.061-11.198,4.993-18.551c3.778-4.588,9.413-7.146,16.75-7.605
				c14.855-0.925,22.88,12.779,31.382,27.29c5.795,9.892,11.788,20.122,20.449,27.489c2.585,2.199,5.16,3.959,7.685,5.36
				c3.209-5.464,7.365-10.922,12.446-16.337c10.183-10.851,22.015-10.63,29.223-5.597c2.702,1.887,4.724,4.465,5.691,7.26
				c1.06,3.061,0.855,6.202-0.592,9.085c-3.152,6.276-10.81,11.332-19.986,13.194c-5.786,1.174-11.954,1.016-17.837-0.457
				c-2.582-0.647-5.106-1.537-7.561-2.664c-2.331,4.436-3.995,8.857-4.98,13.244c-1.673,7.45,0.438,18.986,6.141,23.629
				c2.998,2.441,6.701,2.691,11.006,0.742c3.785-1.714,6.831-4.868,9.388-7.69c8.488-9.368,19.625-16.639,32.207-21.028
				c12.4-4.325,25.64-5.669,38.288-3.888c5.638,0.794,10.304,2.181,13.869,4.122c5.174,2.817,8.115,6.798,8.741,11.83
				c0.29,2.332-0.113,4.692-1.168,6.824l-3.041-1.503c0.759-1.535,1.05-3.231,0.842-4.902c-0.86-6.913-7.494-11.29-19.716-13.012
				c-12.116-1.706-24.805-0.416-36.697,3.732c-12.048,4.202-22.703,11.154-30.811,20.103c-2.786,3.075-6.125,6.521-10.503,8.503
				C219.889,109.506,217.633,109.959,215.659,109.959z M210.515,64.694c9.572,4.339,18.103,3.761,23.072,2.753
				c8.055-1.635,14.974-6.106,17.629-11.392c2.374-4.727-0.303-9.453-4.009-12.041c-8.342-5.825-18.47-1.617-24.807,5.136
				C217.548,54.321,213.58,59.513,210.515,64.694z"/>
			<path style="fill:#5A0000;" d="M215.659,110.155c-2.919,0-5.577-0.958-7.899-2.849c-6.819-5.551-9.32-18.545-7.377-27.198
				c1.033-4.598,2.779-9.277,5.192-13.909c-2.802-1.564-5.528-3.467-8.105-5.66c-9.125-7.762-15.551-18.731-21.221-28.409
				c-8.275-14.126-15.421-26.314-28.061-25.523C141.893,7,137.12,9.115,134,12.892c-5.352,6.479-4.218,15.849-4.206,15.943
				l0.016,0.243v29.607h-3.785V29.181c-0.128-1.108-1.09-11.232,5.038-18.675c3.813-4.632,9.496-7.214,16.889-7.676
				c14.972-0.933,23.029,12.819,31.558,27.378c5.795,9.89,11.778,20.103,20.413,27.448c2.396,2.039,4.914,3.802,7.486,5.245
				c3.195-5.408,7.357-10.86,12.375-16.206c10.263-10.937,22.201-10.704,29.478-5.623c2.737,1.911,4.784,4.523,5.765,7.356
				c1.078,3.111,0.869,6.305-0.603,9.238c-3.179,6.329-10.889,11.424-20.122,13.298c-5.815,1.18-12.013,1.021-17.923-0.46
				c-2.522-0.632-5.019-1.506-7.426-2.599c-2.272,4.354-3.912,8.738-4.876,13.032c-1.661,7.394,0.425,18.836,6.074,23.433
				c2.936,2.39,6.57,2.631,10.801,0.715c3.751-1.698,6.779-4.836,9.323-7.643c8.509-9.392,19.674-16.682,32.288-21.082
				c12.43-4.336,25.701-5.684,38.38-3.897c5.661,0.797,10.35,2.192,13.935,4.144c5.232,2.849,8.207,6.879,8.842,11.979
				c0.294,2.37-0.116,4.769-1.186,6.935l-0.087,0.176l-3.393-1.677l0.087-0.176c0.742-1.501,1.026-3.158,0.823-4.791
				c-0.848-6.813-7.425-11.134-19.549-12.842c-12.084-1.702-24.743-0.415-36.605,3.723c-12.017,4.192-22.644,11.125-30.73,20.049
				c-2.799,3.089-6.155,6.552-10.567,8.55C220.135,109.609,217.83,110.155,215.659,110.155z M149.356,6.178
				c12.145,0,19.151,11.961,27.225,25.743c5.66,9.661,12.068,20.6,21.143,28.319c2.609,2.219,5.37,4.14,8.208,5.708l0.168,0.093
				l-0.089,0.17c-2.443,4.657-4.207,9.361-5.245,13.982c-1.917,8.538,0.535,21.348,7.242,26.808
				c2.251,1.832,4.825,2.761,7.652,2.761l0,0c2.115,0,4.365-0.534,6.69-1.586c4.343-1.966,7.665-5.396,10.438-8.456
				c8.13-8.973,18.812-15.943,30.891-20.156c11.922-4.159,24.644-5.452,36.789-3.741c12.322,1.736,19.012,6.171,19.884,13.182
				c0.205,1.646-0.064,3.314-0.776,4.837l2.689,1.329c0.973-2.051,1.341-4.307,1.063-6.536c-0.618-4.966-3.525-8.897-8.64-11.682
				c-3.544-1.93-8.188-3.309-13.802-4.1c-12.617-1.777-25.825-0.436-38.196,3.879c-12.552,4.378-23.661,11.631-32.127,20.975
				c-2.57,2.837-5.632,6.008-9.452,7.737c-4.378,1.983-8.15,1.724-11.21-0.768c-5.759-4.688-7.895-16.318-6.209-23.824
				c0.984-4.382,2.666-8.854,4.998-13.293l0.087-0.165l0.169,0.078c2.437,1.119,4.969,2.011,7.526,2.652
				c5.855,1.467,11.993,1.624,17.75,0.456c9.118-1.851,16.724-6.866,19.849-13.09c1.424-2.835,1.625-5.924,0.583-8.933
				c-0.954-2.755-2.949-5.299-5.618-7.163c-7.139-4.985-18.865-5.195-28.968,5.57c-5.048,5.379-9.227,10.864-12.42,16.302
				l-0.097,0.165l-0.167-0.093c-2.653-1.472-5.249-3.283-7.717-5.382c-8.685-7.388-14.686-17.631-20.489-27.536
				c-8.474-14.465-16.459-28.118-31.202-27.198c-7.281,0.455-12.869,2.99-16.611,7.534c-6.025,7.318-5.077,17.29-4.949,18.403
				l0.001,29.133h3l0-29.323l-0.012-0.083c-0.012-0.095-1.17-9.631,4.293-16.243c3.192-3.865,8.06-6.027,14.466-6.427
				C148.566,6.19,148.965,6.178,149.356,6.178z M226.314,68.369c-4.583,0-10.035-0.847-15.879-3.496l-0.199-0.091l0.111-0.188
				c3.064-5.181,7.071-10.422,11.91-15.578c6.395-6.815,16.625-11.054,25.063-5.163c3.775,2.636,6.499,7.458,4.073,12.29
				c-2.681,5.337-9.654,9.85-17.765,11.496C231.585,68.053,229.111,68.369,226.314,68.369z M210.796,64.605
				c9.234,4.127,17.461,3.723,22.752,2.649c7.998-1.623,14.864-6.054,17.493-11.288c2.321-4.622-0.309-9.252-3.946-11.792
				c-8.244-5.757-18.272-1.582-24.552,5.11C217.782,54.358,213.831,59.511,210.796,64.605z"/>
		</g>
		<g>
			<path style="fill:#B01A1F;" d="M215.659,109.959c-3.419,0-5.998-1.358-7.775-2.805c-6.763-5.506-9.24-18.407-7.309-27.003
				c1.047-4.661,2.806-9.346,5.263-14.031c-2.856-1.579-5.609-3.492-8.241-5.73c-9.099-7.741-15.516-18.694-21.178-28.359
				c-8.304-14.175-15.475-26.42-28.243-25.619c-6.351,0.397-11.171,2.535-14.327,6.356c-5.403,6.541-4.262,15.998-4.249,16.093
				l0.014,0.107l0,0.111v29.41h-3.392V29.181c-0.145-1.261-1.061-11.198,4.993-18.551c3.778-4.588,9.413-7.146,16.75-7.605
				c14.855-0.925,22.88,12.779,31.382,27.29c5.795,9.892,11.788,20.122,20.449,27.489c2.585,2.199,5.16,3.959,7.685,5.36
				c3.209-5.464,7.365-10.922,12.446-16.337c10.183-10.851,22.015-10.63,29.223-5.597c2.702,1.887,4.724,4.465,5.691,7.26
				c1.06,3.061,0.855,6.202-0.592,9.085c-3.152,6.276-10.81,11.332-19.986,13.194c-5.786,1.174-11.954,1.016-17.837-0.457
				c-2.582-0.647-5.106-1.537-7.561-2.664c-2.331,4.436-3.995,8.857-4.98,13.244c-1.673,7.45,0.438,18.986,6.141,23.629
				c2.998,2.441,6.701,2.691,11.006,0.742c3.785-1.714,6.831-4.868,9.388-7.69c8.488-9.368,19.625-16.639,32.207-21.028
				c12.4-4.325,25.64-5.669,38.288-3.888c5.638,0.794,10.304,2.181,13.869,4.122c5.174,2.817,8.115,6.798,8.741,11.83
				c0.29,2.332-0.113,4.692-1.168,6.824l-3.041-1.503c0.759-1.535,1.05-3.231,0.842-4.902c-0.86-6.913-7.494-11.29-19.716-13.012
				c-12.116-1.706-24.805-0.416-36.697,3.732c-12.048,4.202-22.703,11.154-30.811,20.103c-2.786,3.075-6.125,6.521-10.503,8.503
				C219.889,109.506,217.633,109.959,215.659,109.959z M210.515,64.694c9.572,4.339,18.103,3.761,23.072,2.753
				c8.055-1.635,14.974-6.106,17.629-11.392c2.374-4.727-0.303-9.453-4.009-12.041c-8.342-5.825-18.47-1.617-24.807,5.136
				C217.548,54.321,213.58,59.513,210.515,64.694z"/>
			<path style="fill:#5A0000;" d="M215.659,110.155c-2.919,0-5.577-0.958-7.899-2.849c-6.819-5.551-9.32-18.545-7.377-27.198
				c1.033-4.598,2.779-9.277,5.192-13.909c-2.802-1.564-5.528-3.467-8.105-5.66c-9.125-7.762-15.551-18.731-21.221-28.409
				c-8.275-14.126-15.421-26.314-28.061-25.523C141.893,7,137.12,9.115,134,12.892c-5.352,6.479-4.218,15.849-4.206,15.943
				l0.016,0.243v29.607h-3.785V29.181c-0.128-1.108-1.09-11.232,5.038-18.675c3.813-4.632,9.496-7.214,16.889-7.676
				c14.972-0.933,23.029,12.819,31.558,27.378c5.795,9.89,11.778,20.103,20.413,27.448c2.396,2.039,4.914,3.802,7.486,5.245
				c3.195-5.408,7.357-10.86,12.375-16.206c10.263-10.937,22.201-10.704,29.478-5.623c2.737,1.911,4.784,4.523,5.765,7.356
				c1.078,3.111,0.869,6.305-0.603,9.238c-3.179,6.329-10.889,11.424-20.122,13.298c-5.815,1.18-12.013,1.021-17.923-0.46
				c-2.522-0.632-5.019-1.506-7.426-2.599c-2.272,4.354-3.912,8.738-4.876,13.032c-1.661,7.394,0.425,18.836,6.074,23.433
				c2.936,2.39,6.57,2.631,10.801,0.715c3.751-1.698,6.779-4.836,9.323-7.643c8.509-9.392,19.674-16.682,32.288-21.082
				c12.43-4.336,25.701-5.684,38.38-3.897c5.661,0.797,10.35,2.192,13.935,4.144c5.232,2.849,8.207,6.879,8.842,11.979
				c0.294,2.37-0.116,4.769-1.186,6.935l-0.087,0.176l-3.393-1.677l0.087-0.176c0.742-1.501,1.026-3.158,0.823-4.791
				c-0.848-6.813-7.425-11.134-19.549-12.842c-12.084-1.702-24.743-0.415-36.605,3.723c-12.017,4.192-22.644,11.125-30.73,20.049
				c-2.799,3.089-6.155,6.552-10.567,8.55C220.135,109.609,217.83,110.155,215.659,110.155z M149.356,6.178
				c12.145,0,19.151,11.961,27.225,25.743c5.66,9.661,12.068,20.6,21.143,28.319c2.609,2.219,5.37,4.14,8.208,5.708l0.168,0.093
				l-0.089,0.17c-2.443,4.657-4.207,9.361-5.245,13.982c-1.917,8.538,0.535,21.348,7.242,26.808
				c2.251,1.832,4.825,2.761,7.652,2.761l0,0c2.115,0,4.365-0.534,6.69-1.586c4.343-1.966,7.665-5.396,10.438-8.456
				c8.13-8.973,18.812-15.943,30.891-20.156c11.922-4.159,24.644-5.452,36.789-3.741c12.322,1.736,19.012,6.171,19.884,13.182
				c0.205,1.646-0.064,3.314-0.776,4.837l2.689,1.329c0.973-2.051,1.341-4.307,1.063-6.536c-0.618-4.966-3.525-8.897-8.64-11.682
				c-3.544-1.93-8.188-3.309-13.802-4.1c-12.617-1.777-25.825-0.436-38.196,3.879c-12.552,4.378-23.661,11.631-32.127,20.975
				c-2.57,2.837-5.632,6.008-9.452,7.737c-4.378,1.983-8.15,1.724-11.21-0.768c-5.759-4.688-7.895-16.318-6.209-23.824
				c0.984-4.382,2.666-8.854,4.998-13.293l0.087-0.165l0.169,0.078c2.437,1.119,4.969,2.011,7.526,2.652
				c5.855,1.467,11.993,1.624,17.75,0.456c9.118-1.851,16.724-6.866,19.849-13.09c1.424-2.835,1.625-5.924,0.583-8.933
				c-0.954-2.755-2.949-5.299-5.618-7.163c-7.139-4.985-18.865-5.195-28.968,5.57c-5.048,5.379-9.227,10.864-12.42,16.302
				l-0.097,0.165l-0.167-0.093c-2.653-1.472-5.249-3.283-7.717-5.382c-8.685-7.388-14.686-17.631-20.489-27.536
				c-8.474-14.465-16.459-28.118-31.202-27.198c-7.281,0.455-12.869,2.99-16.611,7.534c-6.025,7.318-5.077,17.29-4.949,18.403
				l0.001,29.133h3l0-29.323l-0.012-0.083c-0.012-0.095-1.17-9.631,4.293-16.243c3.192-3.865,8.06-6.027,14.466-6.427
				C148.566,6.19,148.965,6.178,149.356,6.178z M226.314,68.369c-4.583,0-10.035-0.847-15.879-3.496l-0.199-0.091l0.111-0.188
				c3.064-5.181,7.071-10.422,11.91-15.578c6.395-6.815,16.625-11.054,25.063-5.163c3.775,2.636,6.499,7.458,4.073,12.29
				c-2.681,5.337-9.654,9.85-17.765,11.496C231.585,68.053,229.111,68.369,226.314,68.369z M210.796,64.605
				c9.234,4.127,17.461,3.723,22.752,2.649c7.998-1.623,14.864-6.054,17.493-11.288c2.321-4.622-0.309-9.252-3.946-11.792
				c-8.244-5.757-18.272-1.582-24.552,5.11C217.782,54.358,213.831,59.511,210.796,64.605z"/>
		</g>
		<rect x="126.221" y="52.944" style="fill:#B7B8BA;" width="3.392" height="5.544"/>
		<path style="fill:#B7B8BA;" d="M205.727,66.058c0.037,0.02,0.073,0.042,0.11,0.063c-0.256,0.489-0.503,0.978-0.745,1.466
			c0.044-0.019,0.087-0.038,0.132-0.055c0.477-0.177,1.024-0.223,1.505-0.036c0.476,0.185,0.888,0.494,1.189,0.906
			c0.119,0.163,0.214,0.338,0.298,0.519c0.202-0.406,0.407-0.811,0.62-1.217c-0.96-0.603-1.935-1.182-2.957-1.67
			C205.829,66.04,205.778,66.049,205.727,66.058z"/>
		<path style="fill:#6B6B6B;" d="M323.523,88.61c-0.422-3.391-1.899-6.302-4.397-8.703c-0.108,0.339-0.285,0.655-0.538,0.919
			c-0.561,0.587-1.37,0.855-2.17,0.832c-0.153-0.005-0.305-0.02-0.457-0.041c2.425,2.01,3.831,4.483,4.195,7.413
			c0.208,1.672-0.084,3.367-0.842,4.902l3.041,1.503C323.41,93.302,323.814,90.943,323.523,88.61z"/>
		<path style="fill:#B7B8BA;" d="M211.765,62.66c-0.094,0.033-0.19,0.062-0.287,0.084c-0.651,0.151-1.399-0.006-1.857-0.517
			c-0.388-0.432-0.536-1.02-0.586-1.59c-0.527,0.822-1.035,1.645-1.52,2.467c0.926,0.652,1.948,1.153,3,1.588
			C210.917,64.015,211.334,63.338,211.765,62.66z"/>
		<g>
			<path style="fill:#B01A1F;" d="M340.781,97.777c-4.846-11.179-19.305-16.118-30.447-12.217
				c-6.029,2.111-10.899,6.537-14.662,11.897c-3.762-5.36-8.632-9.786-14.662-11.897c-11.142-3.902-25.601,1.038-30.447,12.217
				c-3.272,7.547-2.333,16.35,0.146,23.976c5.333,16.404,18.001,29.849,33.283,37.747c3.758,1.942,7.675,3.545,11.679,4.778
				c4.004-1.233,7.921-2.836,11.679-4.778c15.282-7.898,27.951-21.343,33.284-37.747
				C343.115,114.127,344.053,105.324,340.781,97.777z"/>
			<path style="fill:#B01A1F;" d="M261.797,136.063c1.179,0.947,2.419,1.813,3.72,2.567c1.315,0.763,2.711,1.432,4.186,1.822
				c1.884,0.498,3.871,0.671,5.814,0.536c3.728-0.259,7.226-1.743,10.324-3.776c6.499-4.265,11.189-10.552,16.725-15.889
				c6.164-5.942,14.126-11.389,23.085-10.766c2.101,0.146,4.148,0.543,6.053,1.471c1.858,0.905,3.557,2.265,4.726,3.981
				c0.503,0.738,0.88,1.513,1.163,2.312c1.409-5.995,1.573-12.464-0.892-18.149c-4.407-10.168-17.559-14.66-27.693-11.112
				c-5.484,1.92-9.913,5.946-13.335,10.821c-3.422-4.875-7.851-8.901-13.335-10.821c-10.134-3.549-23.286,0.944-27.693,11.112
				c-2.975,6.865-2.122,14.871,0.133,21.807C256.412,127.011,258.809,131.734,261.797,136.063z"/>
			<path style="fill:#FFFFFF;" d="M274.189,92.337c-0.37-0.68-0.948-1.229-1.666-1.526c-1.504-0.621-3.275-0.211-4.738,0.328
				c-0.271,0.1-0.54,0.21-0.807,0.325c-0.007,0.003-0.014,0.006-0.02,0.01c-1.335,0.707-2.541,1.676-3.514,2.825
				c-1.083,1.279-1.892,2.837-2.139,4.507c-0.119,0.805-0.105,1.664,0.222,2.421c0.348,0.806,1.039,1.35,1.85,1.653
				c1.869,0.698,3.985-0.131,5.584-1.057c1.422-0.824,2.677-1.912,3.707-3.192c0.938-1.166,1.757-2.55,1.927-4.048
				C274.684,93.808,274.564,93.025,274.189,92.337z"/>
			<path style="fill:#FFFFFF;" d="M259.068,104.72c-0.347-0.171-0.742-0.229-1.12-0.143c-0.793,0.18-1.399,0.857-1.842,1.499
				c-0.082,0.119-0.16,0.241-0.236,0.365c-0.002,0.003-0.004,0.006-0.005,0.01c-0.342,0.673-0.555,1.417-0.622,2.167
				c-0.074,0.835,0.044,1.705,0.425,2.458c0.183,0.363,0.437,0.71,0.789,0.925c0.375,0.229,0.814,0.252,1.232,0.142
				c0.965-0.253,1.591-1.201,1.977-2.041c0.344-0.746,0.543-1.553,0.595-2.373c0.047-0.747-0.017-1.548-0.379-2.209
				C259.694,105.179,259.419,104.894,259.068,104.72z"/>
		</g>
		<path style="fill:#B01A1F;" d="M127.519,38.03h-0.727v-9.315c-0.016-0.263-0.233-4.331,0.847-8.977
			c1.48-6.369,4.714-10.943,9.35-13.228l0.321,0.652c-10.743,5.295-9.803,21.356-9.792,21.518L127.519,38.03z"/>
		<path style="fill:#B01A1F;" d="M215.55,109.203c-0.146,0-0.288-0.002-0.427-0.006c-5.868-0.15-9.257-4.833-9.399-5.032
			l0.593-0.421c0.033,0.046,3.329,4.586,8.825,4.726c0.113,0.003,0.227,0.005,0.339,0.005c6.045,0,10.982-4.12,14.191-7.246
			c0.861-0.839,1.838-1.85,2.872-2.919c4.145-4.285,9.302-9.619,14.799-12.368l0.325,0.65c-5.385,2.693-10.495,7.977-14.601,12.223
			c-1.038,1.074-2.019,2.088-2.888,2.934C223.472,108.285,218.669,109.203,215.55,109.203z"/>
	</g>
	<g>
		<g>
			<g>
				<g style="opacity:0.53;">
					<path style="fill:#C9CACC;" d="M182.18,150.638c0,0-0.204-55.297,0-65.09c0.204-9.794-1.623-11.922-10.042-17.791
						c-8.724-6.081-7.352-12.17-7.352-12.17h-0.641h-20.278c0-3.307,0-8.271,0-9.779c0-2.327-1.233-2.194-1.233-2.194h-0.401h-1.825
						h-0.401c0,0-1.233-0.134-1.233,2.194c0,1.509,0,6.472,0,9.779h-28.617h-0.641c0,0,1.372,6.089-7.352,12.17
						c-8.419,5.869-10.246,7.997-10.042,17.791c0.204,9.793,0,65.09,0,65.09s-1.224,13.667,15.302,18.564
						c9.633,2.854,19.6,4.833,29.679,4.854c10.087,0.021,20.137-1.998,29.776-4.854C183.404,164.305,182.18,150.638,182.18,150.638z
						 M145.361,172.186h-16.423c-0.872,0-1.585-0.713-1.585-1.585c0-0.872,0.713-1.585,1.585-1.585h16.423
						c0.872,0,1.585,0.713,1.585,1.585C146.946,171.473,146.233,172.186,145.361,172.186z"/>
					<path style="fill:#929496;" d="M137.255,174.252c-0.052,0-0.103,0-0.154,0c-9.029-0.018-18.755-1.609-29.733-4.862
						c-8.61-2.551-12.351-7.514-13.973-11.228c-1.76-4.029-1.482-7.4-1.469-7.542c0.001-0.536,0.201-55.389-0.001-65.068
						c-0.205-9.815,1.604-12.015,10.125-17.956c4.447-3.1,6.187-6.191,6.864-8.238c0.731-2.212,0.412-3.714,0.409-3.729
						l-0.053-0.239l0.886,0h28.421v-9.583c0-0.999,0.219-1.702,0.652-2.09c0.379-0.34,0.782-0.3,0.798-0.299l2.606-0.001
						c-0.004-0.002,0.399-0.04,0.777,0.3c0.433,0.388,0.652,1.092,0.652,2.09v9.583h20.968l-0.053,0.239
						c-0.003,0.015-0.322,1.517,0.409,3.729c0.677,2.047,2.417,5.138,6.864,8.238c8.521,5.94,10.33,8.141,10.126,17.956
						c-0.201,9.647-0.003,64.171,0,65.078c0.032,0.431,0.865,13.928-15.443,18.76C155.893,172.661,146.183,174.252,137.255,174.252z
						 M109.746,55.784c0.165,1.208,0.396,6.65-7.472,12.135c-8.379,5.841-10.158,8.002-9.958,17.625
						c0.202,9.684,0.002,64.542,0,65.095c-0.013,0.152-1.012,13.583,15.162,18.375c10.943,3.242,20.632,4.827,29.623,4.846
						c0.051,0,0.102,0,0.153,0c8.89,0,18.563-1.585,29.566-4.846c8.455-2.505,12.126-7.36,13.717-10.991
						c1.726-3.939,1.449-7.333,1.446-7.367l-0.001-0.017c-0.002-0.553-0.202-55.411,0-65.095c0.2-9.623-1.579-11.784-9.958-17.625
						c-4.551-3.172-6.33-6.355-7.022-8.466c-0.593-1.811-0.516-3.147-0.449-3.67H143.67v-9.976c0-1.089-0.279-1.574-0.513-1.79
						c-0.246-0.227-0.495-0.209-0.505-0.208l-2.645,0.001c-0.028-0.003-0.278-0.019-0.524,0.207
						c-0.234,0.216-0.513,0.701-0.513,1.79v9.976H109.746z M145.362,172.382h-16.423c-0.982,0-1.781-0.799-1.781-1.781
						c0-0.982,0.799-1.781,1.781-1.781h16.423c0.982,0,1.781,0.799,1.781,1.781C147.143,171.583,146.344,172.382,145.362,172.382z
						 M128.938,169.213c-0.766,0-1.388,0.623-1.388,1.388c0,0.766,0.623,1.388,1.388,1.388h16.423c0.766,0,1.388-0.623,1.388-1.388
						c0-0.766-0.623-1.388-1.388-1.388H128.938z"/>
				</g>
				<path style="fill:#CACBCD;" d="M178.063,85.527c-0.235-3.496-1.155-6.62-2.734-9.284c-1.245-2.102-2.991-4.092-5.492-6.262
					c-1.422-1.233-2.594-2.198-3.688-3.035c-1.157-0.885-1.894-1.668-2.254-2.395c-0.62-1.252-0.891-2.757-1.096-4.069
					c-0.137-0.878-0.247-2.953-0.298-4.625h-8.766c0.021,2.923-0.217,6.44-0.919,7.575c-0.677,1.094-1.996,1.41-2.984,1.483
					c-0.274,0.021-0.539,0.031-0.787,0.031c-1.318,0-2.301-0.283-3.006-0.865c-1.398-1.154-3.748-1.671-5.457-1.671
					c-0.372,0-0.729,0.023-1.06,0.069c-1.653,0.23-2.692,1.029-3.527,1.671c-0.848,0.652-1.33,0.992-2.19,0.992
					c-0.085,0-0.173-0.004-0.265-0.011c-0.188-0.014-0.417-0.073-0.685-0.396c-1.285-1.547-1.337-6.209-1.067-8.878h-7.758
					c0.259,2.347,0.336,7.458-1.05,9.016c-0.224,0.252-0.45,0.359-0.756,0.359l-0.061-0.001c-0.05-0.002-0.166-0.007-0.363-0.225
					c-1.134-1.255-1.593-5.409-1.639-9.149h-9.032c-0.21,3.097-1.009,7.705-3.763,10.36c-1.007,0.971-2.07,1.894-3.097,2.787
					c-4.492,3.901-9.136,7.935-9.716,16.521c-0.335,4.976,0.098,12.458,0.557,20.38c0.461,7.951,0.937,16.172,0.625,22.053
					c-0.055,1.04-0.113,2.079-0.17,3.112c-0.624,11.303-1.163,21.063,1.191,24.918c5.623,9.21,26.467,11.54,35.134,12.112
					c0.101,0.009,2.501,0.227,4.033,0.227c0.136,0,0.265-0.001,0.385-0.005c0.12,0.003,0.249,0.005,0.384,0.005
					c1.533,0,3.94-0.218,4.008-0.225c8.699-0.575,29.538-2.907,35.16-12.115c2.353-3.855,1.815-13.614,1.191-24.914
					c-0.057-1.035-0.114-2.075-0.17-3.117c-0.313-5.88,0.163-14.102,0.624-22.052C177.965,97.986,178.399,90.503,178.063,85.527z"/>
				<path style="fill:#B01A1F;" d="M176.695,85.619c-0.205-3.044-0.982-6.039-2.545-8.676c-1.354-2.284-3.216-4.194-5.211-5.925
					c-1.18-1.024-2.382-2.032-3.622-2.982c-0.975-0.746-2.085-1.735-2.65-2.877c-0.687-1.388-0.984-2.946-1.222-4.465
					c-0.22-1.406-0.357-5.309-0.344-6.734h-6.045c0,0,0.396,7.82-1.072,10.194c-0.879,1.421-2.446,2.011-4.05,2.13
					c-1.661,0.122-3.436-0.046-4.768-1.145c-1.211-1-3.735-1.54-5.454-1.301c-2.825,0.393-3.332,2.889-6.276,2.661
					c-4.145-0.32-2.998-10.913-2.998-10.913h-5.055c0,0,1.315,11.218-3.278,11.015c-4.045-0.178-3.245-14.037-3.245-14.037h-6.321
					c0,0,0.708,9.891-4.219,14.641c-5.413,5.22-11.728,8.506-12.396,18.413c-0.668,9.907,1.808,30.649,1.182,42.413
					c-0.625,11.764-1.516,23.413,0.822,27.243c4.067,6.661,18.275,10.417,34.088,11.462c0,0,2.889,0.264,4.293,0.215
					c1.405,0.049,4.302-0.215,4.302-0.215c15.809-1.045,30.013-4.801,34.079-11.461c2.338-3.83,1.448-15.479,0.822-27.243
					C174.887,116.269,177.363,95.526,176.695,85.619z"/>
				<g>
					<path style="fill:#FFFFFF;" d="M163.094,153.909h-52.603c-3.461,0-6.293-2.832-6.293-6.293V95.013
						c0-3.461,2.832-6.293,6.293-6.293h52.603c3.461,0,6.293,2.832,6.293,6.293v52.603
						C169.387,151.077,166.555,153.909,163.094,153.909z"/>
					<g>
						<path style="fill:#CD1E25;" d="M122.348,99.584c-1.313-2.084-2.665-3.854-3.739-5.151c-1.074,1.297-2.425,3.067-3.739,5.151
							c-3.24,5.141-6.214,12.186-4.095,18.763c0.082,0.256,0.16,0.512,0.258,0.767c0.778,2.014,2.008,3.35,3.442,4.158
							c1.273,0.717,2.705,1.014,4.133,0.985c1.428,0.029,2.86-0.268,4.133-0.985c1.434-0.808,2.664-2.144,3.442-4.158
							c0.098-0.255,0.176-0.511,0.259-0.767C128.562,111.77,125.588,104.725,122.348,99.584z"/>
						<path style="fill:#FFFFFF;" d="M119.307,99.963c-0.604-0.958-1.225-1.771-1.718-2.367c-0.493,0.596-1.115,1.41-1.718,2.367
							c-1.489,2.363-2.856,5.6-1.882,8.623c0.038,0.118,0.074,0.235,0.119,0.352c0.357,0.926,0.923,1.54,1.582,1.911
							c0.585,0.329,1.243,0.466,1.9,0.453c0.656,0.014,1.315-0.123,1.899-0.453c0.659-0.371,1.224-0.985,1.582-1.911
							c0.045-0.117,0.081-0.235,0.119-0.353C122.163,105.563,120.796,102.325,119.307,99.963z"/>
						<g>
							<g>
								<g>
									<g>
										<rect x="131.823" y="124.604" style="fill:#231F20;" width="1.6" height="6.045"/>
										<rect x="133.831" y="124.604" style="fill:#231F20;" width="0.8" height="6.045"/>
										<rect x="135.038" y="124.604" style="fill:#231F20;" width="0.4" height="6.045"/>
										<rect x="135.846" y="124.604" style="fill:#231F20;" width="0.717" height="6.045"/>
										<rect x="136.971" y="124.604" style="fill:#231F20;" width="0.359" height="6.045"/>
										<rect x="137.736" y="124.604" style="fill:#231F20;" width="0.179" height="6.045"/>
										<rect x="138.323" y="124.604" style="fill:#231F20;" width="1.6" height="6.045"/>
										<rect x="144.824" y="124.604" style="fill:#231F20;" width="4.781" height="6.045"/>
										<rect x="140.331" y="124.604" style="fill:#231F20;" width="0.8" height="6.045"/>
										<rect x="141.539" y="124.604" style="fill:#231F20;" width="0.4" height="6.045"/>
										<rect x="142.346" y="124.604" style="fill:#231F20;" width="0.717" height="6.045"/>
										<rect x="143.471" y="124.604" style="fill:#231F20;" width="0.359" height="6.045"/>
										<rect x="144.237" y="124.604" style="fill:#231F20;" width="0.179" height="6.045"/>
									</g>
									<g>
										<rect x="149.895" y="124.604" style="fill:#231F20;" width="2.335" height="6.045"/>
										<rect x="152.638" y="124.604" style="fill:#231F20;" width="0.8" height="6.045"/>
										<rect x="153.846" y="124.604" style="fill:#231F20;" width="0.4" height="6.045"/>
										<rect x="154.653" y="124.604" style="fill:#231F20;" width="0.717" height="6.045"/>
										<rect x="155.778" y="124.604" style="fill:#231F20;" width="0.358" height="6.045"/>
										<rect x="156.544" y="124.604" style="fill:#231F20;" width="0.179" height="6.045"/>
										<rect x="157.13" y="124.604" style="fill:#231F20;" width="1.6" height="6.045"/>
										<rect x="163.631" y="124.604" style="fill:#231F20;" width="2.391" height="6.045"/>
										<rect x="159.138" y="124.604" style="fill:#231F20;" width="0.8" height="6.045"/>
										<rect x="160.346" y="124.604" style="fill:#231F20;" width="0.4" height="6.045"/>
										<rect x="161.154" y="124.604" style="fill:#231F20;" width="0.717" height="6.045"/>
										<rect x="162.278" y="124.604" style="fill:#231F20;" width="0.359" height="6.045"/>
										<rect x="163.044" y="124.604" style="fill:#231F20;" width="0.179" height="6.045"/>
									</g>
								</g>
								<g>
									<rect x="132.223" y="132.485" style="fill:#5F6062;" width="33.398" height="1.377"/>
									<rect x="132.223" y="134.628" style="fill:#5F6062;" width="33.398" height="1.377"/>
									<g>
										<rect x="132.223" y="136.77" style="fill:#B6B8BA;" width="20.415" height="1.377"/>
										<rect x="153.445" y="136.77" style="fill:#B6B8BA;" width="12.176" height="1.377"/>
									</g>
								</g>
								<g>
									<g>
										<rect x="132.223" y="139.218" style="fill:#B6B8BA;" width="18.087" height="0.856"/>
										<rect x="132.223" y="140.55" style="fill:#B6B8BA;" width="18.087" height="0.856"/>
										<g>
											<rect x="132.223" y="141.882" style="fill:#B6B8BA;" width="11.056" height="0.856"/>
											<rect x="143.716" y="141.882" style="fill:#B6B8BA;" width="6.594" height="0.856"/>
										</g>
									</g>
									<g>
										<rect x="150.895" y="139.218" style="fill:#B6B8BA;" width="14.726" height="0.856"/>
										<rect x="150.895" y="140.55" style="fill:#B6B8BA;" width="14.726" height="0.856"/>
										<g>
											<rect x="150.895" y="141.882" style="fill:#B6B8BA;" width="9.002" height="0.856"/>
											<rect x="160.253" y="141.882" style="fill:#B6B8BA;" width="5.369" height="0.856"/>
										</g>
									</g>
								</g>
								<g>
									<g>
										
											<rect x="147.535" y="143.605" transform="matrix(-1 -1.224647e-16 1.224647e-16 -1 313.1562 288.0661)" style="fill:#B6B8BA;" width="18.087" height="0.856"/>
										
											<rect x="147.535" y="144.937" transform="matrix(-1 -1.224647e-16 1.224647e-16 -1 313.1562 290.7295)" style="fill:#B6B8BA;" width="18.087" height="0.856"/>
										<g>
											
												<rect x="154.566" y="146.268" transform="matrix(-1 -1.224647e-16 1.224647e-16 -1 320.1874 293.3931)" style="fill:#B6B8BA;" width="11.056" height="0.856"/>
											
												<rect x="147.535" y="146.268" transform="matrix(-1 -1.224647e-16 1.224647e-16 -1 301.6632 293.3931)" style="fill:#B6B8BA;" width="6.594" height="0.856"/>
										</g>
									</g>
									<g>
										
											<rect x="132.223" y="143.605" transform="matrix(-1 -1.224647e-16 1.224647e-16 -1 279.1724 288.0661)" style="fill:#B6B8BA;" width="14.726" height="0.856"/>
										
											<rect x="132.223" y="144.937" transform="matrix(-1 -1.224647e-16 1.224647e-16 -1 279.1724 290.7295)" style="fill:#B6B8BA;" width="14.726" height="0.856"/>
										<g>
											
												<rect x="137.948" y="146.268" transform="matrix(-1 -1.224647e-16 1.224647e-16 -1 284.8971 293.3931)" style="fill:#B6B8BA;" width="9.002" height="0.856"/>
											
												<rect x="132.223" y="146.268" transform="matrix(-1 -1.224647e-16 1.224647e-16 -1 269.8147 293.3931)" style="fill:#B6B8BA;" width="5.369" height="0.856"/>
										</g>
									</g>
								</g>
							</g>
							<g>
								<g>
									<rect x="108.329" y="132.558" style="fill:#E2E3E4;" width="19.588" height="0.461"/>
									<rect x="108.329" y="133.569" style="fill:#E2E3E4;" width="19.588" height="0.461"/>
									<rect x="108.329" y="131.547" style="fill:#E2E3E4;" width="19.588" height="0.461"/>
									<rect x="108.329" y="134.58" style="fill:#E2E3E4;" width="19.588" height="0.461"/>
									<rect x="108.329" y="136.602" style="fill:#E2E3E4;" width="19.588" height="0.461"/>
									<rect x="108.329" y="137.613" style="fill:#E2E3E4;" width="19.588" height="0.461"/>
									<rect x="108.329" y="135.591" style="fill:#E2E3E4;" width="19.588" height="0.461"/>
									<rect x="108.329" y="138.624" style="fill:#E2E3E4;" width="19.588" height="0.461"/>
								</g>
								<g>
									<rect x="108.329" y="140.828" style="fill:#E2E3E4;" width="19.588" height="0.461"/>
									<rect x="108.329" y="141.839" style="fill:#E2E3E4;" width="19.588" height="0.461"/>
									<rect x="108.329" y="139.817" style="fill:#E2E3E4;" width="19.588" height="0.461"/>
									<rect x="108.329" y="142.85" style="fill:#E2E3E4;" width="19.588" height="0.461"/>
									<rect x="108.329" y="144.872" style="fill:#E2E3E4;" width="19.588" height="0.461"/>
									<rect x="108.329" y="145.883" style="fill:#E2E3E4;" width="19.588" height="0.461"/>
									<rect x="108.329" y="143.861" style="fill:#E2E3E4;" width="19.588" height="0.461"/>
									<rect x="108.329" y="146.894" style="fill:#E2E3E4;" width="19.588" height="0.461"/>
								</g>
							</g>
						</g>
					</g>
				</g>
				<path style="fill:#B7B8BA;" d="M176.695,85.619c-0.205-3.044-0.982-6.039-2.545-8.676c-1.354-2.284-3.216-4.194-5.211-5.925
					c-1.18-1.024-2.382-2.032-3.622-2.982c-0.975-0.746-2.085-1.735-2.65-2.877c-0.687-1.388-0.984-2.946-1.222-4.465
					c-0.22-1.406-0.357-5.309-0.344-6.734h-6.045c0,0,0.396,7.82-1.072,10.194c-0.879,1.421-2.446,2.011-4.05,2.13
					c-1.661,0.122-3.436-0.046-4.768-1.145c-1.211-1-3.735-1.54-5.454-1.301c-2.825,0.393-3.332,2.889-6.276,2.661
					c-4.145-0.32-2.998-10.913-2.998-10.913h-5.055c0,0,1.315,11.218-3.278,11.015c-4.045-0.178-3.245-14.037-3.245-14.037h-6.321
					c0,0,0.708,9.891-4.219,14.641c-5.413,5.22-11.728,8.506-12.396,18.413c-0.668,9.907,1.808,30.649,1.182,42.413
					c-0.625,11.764-1.516,23.413,0.822,27.243c4.067,6.661,18.275,10.417,34.088,11.462c0,0,2.889,0.264,4.293,0.215
					c1.405,0.049,4.302-0.215,4.302-0.215c15.809-1.045,30.013-4.801,34.079-11.461c2.338-3.83,1.448-15.479,0.822-27.243
					C174.887,116.269,177.363,95.526,176.695,85.619z M173.067,149.178c-1.82,7.99-12.338,11.125-30.03,13.043
					c-17.692,1.918-39.044-3.739-42.887-7.811c-3.843-4.073-1.416-16.457,0.303-26.975c1.719-10.518-3.034-32.969-3.135-38.214
					c-0.101-5.244,0.639-11.118,6.776-15.588c6.137-4.47,8.201-9.074,8.201-9.074c0.616-3.106,4.845-2.052,5.249-0.72
					c0.405,1.332,1.31,5.854,4.56,5.935c2.621,0.065,2.115-1.596,6.4-1.547c2.486,0.028,3.13,2.678,10.031-0.865
					c5.13-2.634,8.135,2.73,12.362,2.412c4.227-0.318,6.459-4.641,9.784-0.883c3.924,4.435,7.531,6.359,11.07,11.602
					c3.54,5.243,1.113,28.435,0.708,37.638C172.056,127.333,174.887,141.189,173.067,149.178z"/>
				<path style="fill:#B7B8BA;" d="M176.695,85.619c-0.205-3.044-0.982-6.039-2.545-8.676c-1.354-2.284-3.216-4.194-5.211-5.925
					c-1.18-1.024-2.382-2.032-3.622-2.982c-0.975-0.746-2.085-1.735-2.65-2.877c-0.687-1.388-0.984-2.946-1.222-4.465
					c-0.22-1.406-0.357-5.309-0.344-6.734h-6.045c0,0,0.396,7.82-1.072,10.194c-0.879,1.421-2.446,2.011-4.05,2.13
					c-1.661,0.122-3.436-0.046-4.768-1.145c-1.211-1-3.735-1.54-5.454-1.301c-2.825,0.393-3.332,2.889-6.276,2.661
					c-2.288-0.177-2.963-3.484-3.108-6.411c-0.322-0.221-0.658-0.421-1.012-0.591c-1.04-0.498-2.277-0.717-3.368-0.246
					c-0.139,0.06-0.269,0.133-0.395,0.21c-0.055,3.222-0.674,7.263-3.447,7.141c-4.045-0.178-3.245-14.037-3.245-14.037h-6.321
					c0,0,0.708,9.891-4.219,14.641c-5.413,5.22-11.728,8.506-12.396,18.413c-0.668,9.907,1.808,30.649,1.182,42.413
					c-0.625,11.764-1.516,23.413,0.822,27.243c4.067,6.661,18.275,10.417,34.088,11.462c0,0,2.889,0.264,4.293,0.215
					c1.405,0.049,4.302-0.215,4.302-0.215c15.809-1.045,30.013-4.801,34.079-11.461c2.338-3.83,1.448-15.479,0.822-27.243
					C174.887,116.269,177.363,95.526,176.695,85.619z M173.067,149.178c-1.82,7.99-12.338,11.125-30.03,13.043
					c-17.692,1.918-39.044-3.739-42.887-7.811c-3.843-4.073-1.416-16.457,0.303-26.975c1.719-10.518-3.034-32.969-3.135-38.214
					c-0.101-5.244,0.639-11.118,6.776-15.588c6.137-4.47,8.201-9.074,8.201-9.074c0.616-3.106,4.845-2.052,5.249-0.72
					c0.405,1.332,1.31,5.854,4.56,5.935c2.621,0.065,2.115-1.596,6.4-1.547c2.486,0.028,3.13,2.678,10.031-0.865
					c5.13-2.634,8.135,2.73,12.362,2.412c4.227-0.318,6.459-4.641,9.784-0.883c3.924,4.435,7.531,6.359,11.07,11.602
					c3.54,5.243,1.113,28.435,0.708,37.638C172.056,127.333,174.887,141.189,173.067,149.178z"/>
				<g>
					<g style="opacity:0.53;">
						<path style="fill:#C9CACC;" d="M118.198,40.483h-1.714h-2h-1.714c0,0-1.571-0.16-1.571,2.62c0,2.78,0,15.386,0,15.386h3.571
							h1.429h3.571c0,0,0-12.606,0-15.386C119.77,40.323,118.198,40.483,118.198,40.483z"/>
						<path style="fill:#929496;" d="M119.966,58.685h-8.964V43.103c0-1.151,0.261-1.97,0.775-2.435
							c0.475-0.43,0.99-0.383,1.012-0.381l5.401-0.001c0.085-0.005,0.559-0.017,1,0.382c0.514,0.465,0.775,1.284,0.775,2.435V58.685
							z M111.395,58.292h8.179v-15.19c0-1.014-0.22-1.753-0.638-2.136c-0.342-0.315-0.701-0.29-0.719-0.288l-0.018,0.001h-5.428
							c-0.034-0.003-0.393-0.028-0.737,0.287c-0.417,0.384-0.638,1.122-0.638,2.136V58.292z"/>
					</g>
					<g>
						<path style="fill:#B7B8BA;" d="M118.367,43.139h-5.765c-0.379,0-0.686-0.307-0.686-0.686c0-0.379,0.307-0.686,0.686-0.686
							h5.765c0.379,0,0.686,0.307,0.686,0.686C119.052,42.832,118.745,43.139,118.367,43.139z"/>
						<path style="fill:#B7B8BA;" d="M118.367,44.985h-5.765c-0.379,0-0.686-0.307-0.686-0.686c0-0.379,0.307-0.686,0.686-0.686
							h5.765c0.379,0,0.686,0.307,0.686,0.686C119.052,44.678,118.745,44.985,118.367,44.985z"/>
						<path style="fill:#B7B8BA;" d="M118.367,46.83h-5.765c-0.379,0-0.686-0.307-0.686-0.686s0.307-0.686,0.686-0.686h5.765
							c0.379,0,0.686,0.307,0.686,0.686S118.745,46.83,118.367,46.83z"/>
						<path style="fill:#B7B8BA;" d="M118.367,48.676h-5.765c-0.379,0-0.686-0.307-0.686-0.686c0-0.379,0.307-0.686,0.686-0.686
							h5.765c0.379,0,0.686,0.307,0.686,0.686C119.052,48.369,118.745,48.676,118.367,48.676z"/>
						<path style="fill:#B7B8BA;" d="M118.367,50.522h-5.765c-0.379,0-0.686-0.307-0.686-0.686s0.307-0.686,0.686-0.686h5.765
							c0.379,0,0.686,0.307,0.686,0.686S118.745,50.522,118.367,50.522z"/>
						<path style="fill:#B7B8BA;" d="M118.367,52.367h-5.765c-0.379,0-0.686-0.307-0.686-0.686c0-0.379,0.307-0.686,0.686-0.686
							h5.765c0.379,0,0.686,0.307,0.686,0.686C119.052,52.06,118.745,52.367,118.367,52.367z"/>
						<path style="fill:#B7B8BA;" d="M118.367,54.213h-5.765c-0.379,0-0.686-0.307-0.686-0.686c0-0.379,0.307-0.686,0.686-0.686
							h5.765c0.379,0,0.686,0.307,0.686,0.686C119.052,53.905,118.745,54.213,118.367,54.213z"/>
						<path style="fill:#B7B8BA;" d="M118.367,56.059h-5.765c-0.379,0-0.686-0.307-0.686-0.686s0.307-0.686,0.686-0.686h5.765
							c0.379,0,0.686,0.307,0.686,0.686S118.745,56.059,118.367,56.059z"/>
					</g>
				</g>
				<g>
					<g style="opacity:0.53;">
						<path style="fill:#C9CACC;" d="M160.747,40.483h-1.714h-2h-1.714c0,0-1.571-0.16-1.571,2.62c0,2.78,0,15.386,0,15.386h3.571
							h1.429h3.571c0,0,0-12.606,0-15.386C162.318,40.323,160.747,40.483,160.747,40.483z"/>
						<path style="fill:#929496;" d="M162.515,58.685h-8.964V43.103c0-1.151,0.261-1.97,0.775-2.435
							c0.476-0.43,0.991-0.383,1.013-0.381l5.401-0.001c0.086-0.005,0.56-0.017,1,0.382c0.515,0.465,0.775,1.284,0.775,2.435V58.685
							z M153.943,58.292h8.179v-15.19c0-1.014-0.221-1.752-0.638-2.136c-0.343-0.315-0.702-0.29-0.72-0.288l-0.018,0.001h-5.428
							c-0.035-0.003-0.394-0.028-0.738,0.287c-0.417,0.384-0.638,1.122-0.638,2.136V58.292z"/>
					</g>
					<g>
						<path style="fill:#B7B8BA;" d="M160.915,43.139h-5.765c-0.379,0-0.686-0.307-0.686-0.686c0-0.379,0.307-0.686,0.686-0.686
							h5.765c0.379,0,0.686,0.307,0.686,0.686C161.601,42.832,161.294,43.139,160.915,43.139z"/>
						<path style="fill:#B7B8BA;" d="M160.915,44.985h-5.765c-0.379,0-0.686-0.307-0.686-0.686c0-0.379,0.307-0.686,0.686-0.686
							h5.765c0.379,0,0.686,0.307,0.686,0.686C161.601,44.678,161.294,44.985,160.915,44.985z"/>
						<path style="fill:#B7B8BA;" d="M160.915,46.83h-5.765c-0.379,0-0.686-0.307-0.686-0.686s0.307-0.686,0.686-0.686h5.765
							c0.379,0,0.686,0.307,0.686,0.686S161.294,46.83,160.915,46.83z"/>
						<path style="fill:#B7B8BA;" d="M160.915,48.676h-5.765c-0.379,0-0.686-0.307-0.686-0.686c0-0.379,0.307-0.686,0.686-0.686
							h5.765c0.379,0,0.686,0.307,0.686,0.686C161.601,48.369,161.294,48.676,160.915,48.676z"/>
						<path style="fill:#B7B8BA;" d="M160.915,50.522h-5.765c-0.379,0-0.686-0.307-0.686-0.686s0.307-0.686,0.686-0.686h5.765
							c0.379,0,0.686,0.307,0.686,0.686S161.294,50.522,160.915,50.522z"/>
						<path style="fill:#B7B8BA;" d="M160.915,52.367h-5.765c-0.379,0-0.686-0.307-0.686-0.686c0-0.379,0.307-0.686,0.686-0.686
							h5.765c0.379,0,0.686,0.307,0.686,0.686C161.601,52.06,161.294,52.367,160.915,52.367z"/>
						<path style="fill:#B7B8BA;" d="M160.915,54.213h-5.765c-0.379,0-0.686-0.307-0.686-0.686c0-0.379,0.307-0.686,0.686-0.686
							h5.765c0.379,0,0.686,0.307,0.686,0.686C161.601,53.905,161.294,54.213,160.915,54.213z"/>
						<path style="fill:#B7B8BA;" d="M160.915,56.059h-5.765c-0.379,0-0.686-0.307-0.686-0.686s0.307-0.686,0.686-0.686h5.765
							c0.379,0,0.686,0.307,0.686,0.686S161.294,56.059,160.915,56.059z"/>
					</g>
				</g>
				<g>
					<path style="fill:#B01A1F;" d="M129.711,71.454c-0.294-0.794-1.369-0.918-2.089-0.887c-0.897,0.039-1.765,0.27-2.636,0.467
						c-0.785,0.177-1.57,0.361-2.359,0.515c-1.586,0.311-3.536,0.589-4.94-0.421c-0.796-0.572-1.266-1.522-1.609-2.414
						c-0.34-0.884-0.604-1.802-0.865-2.712c-0.164-0.572-0.348-1.309-0.842-1.692c-0.598-0.463-1.292,0.097-1.567,0.644
						c-0.346,0.689-0.436,1.457-0.682,2.18c-0.338,0.992-0.796,1.973-1.414,2.822c-1.261,1.732-3.178,2.901-4.909,4.103
						c-1.712,1.189-3.391,2.472-4.495,4.274c-1.05,1.714-1.599,3.685-1.847,5.668c-0.069,0.55-0.106,1.1-0.126,1.652
						c-0.039,0.279-0.072,0.56-0.098,0.841c-0.104,1.157-0.127,2.325-0.018,3.482c0.047,0.502,0.139,0.995,0.221,1.492
						c0.058,0.348,0.123,0.815,0.425,1.045c0.644,0.491,1.175-0.301,1.341-0.839c0.276-0.898,0.48-1.822,0.738-2.726
						c0.309-1.083,0.656-2.158,1.129-3.182c0.484-1.048,1.129-2.006,1.852-2.902c1.432-1.774,3.161-3.229,5.189-4.277
						c3.961-2.047,8.52-2.699,12.887-3.285c1.994-0.268,4.174-0.643,5.765-1.975C129.265,72.904,129.983,72.188,129.711,71.454z
						 M101.902,78.421c0.529-0.845,1.192-1.572,1.941-2.227c0.386-0.337,0.788-0.653,1.198-0.958
						c-0.743,0.602-1.459,1.243-2.089,1.964c-0.719,0.823-1.294,1.751-1.79,2.723c-0.077,0.15-0.147,0.304-0.22,0.456
						C101.202,79.698,101.515,79.04,101.902,78.421z"/>
					<path style="fill:#B01A1F;" d="M146.89,70.966c-0.033-0.126-0.089-0.248-0.16-0.355c-0.73-1.104-2.422-1.545-3.628-1.814
						c-2.334-0.519-5.592-0.227-7.532,1.293c-0.83,0.65-1.598,2.124-0.223,2.652c0.418,0.161,0.881,0.142,1.327,0.097
						c1.515-0.153,2.856-0.885,4.314-1.096c1.542-0.224,3.059,0.42,4.601,0.377c0.484-0.013,1.048-0.124,1.26-0.559
						C146.938,71.376,146.942,71.165,146.89,70.966z"/>
					<path style="fill:#B01A1F;" d="M159.939,70.915c-0.114-0.293-0.303-0.567-0.501-0.765c-0.758-0.758-1.926-0.847-2.93-0.678
						c-1.224,0.206-2.456,0.711-3.535,1.32c-2.026,1.144,0.521,1.218,1.447,1.136c1.396-0.124,2.52,0.255,3.859,0.465
						c0.453,0.071,0.975,0.108,1.371-0.171C160.113,71.896,160.121,71.382,159.939,70.915z"/>
				</g>
				<path style="fill:#B01A1F;" d="M109.83,157.181c-0.248-0.381-1.33-1.065-1.416-1.123c-2.752-1.832-4.871-3.677-6.097-6.837
					c-1.074-2.768-1.336-5.805-1.208-8.751c0.058-1.336,0.187-2.668,0.349-3.994c0.138-1.13,0.551-2.464,0.27-3.589
					c-0.227-0.908-0.753-0.965-1.152-0.06c-0.257,0.58-0.231,1.277-0.261,1.897c-0.058,1.226-0.149,2.45-0.264,3.672
					c-0.204,2.163-0.462,4.32-0.669,6.482c-0.271,2.832-0.38,5.515,1.245,7.979c1.524,2.312,4.16,3.657,6.79,4.294
					C107.678,157.215,110.127,157.636,109.83,157.181z"/>
				<path style="fill:#B01A1F;" d="M156.728,158.806c0.023-0.014,0.048-0.026,0.071-0.04c0.248-0.153,0.602-0.392,0.661-0.676
					c0.171-0.81-2.063-0.117-2.367-0.026c-0.488,0.145-0.966,0.317-1.45,0.475c-0.873,0.284-1.808,0.435-2.711,0.587
					c-2.296,0.387-4.621,0.555-6.941,0.73c-4.743,0.358-9.548,0.6-14.294,0.171c-1.165-0.105-2.357-0.217-3.502-0.462
					c-0.922-0.198-1.815-0.511-2.734-0.724c-0.681-0.158-1.463-0.348-2.162-0.198c-1.573,0.337,2.025,1.535,2.462,1.635
					c4.827,1.113,9.775,1.49,14.718,1.255c5.651-0.261,11.257-1.21,16.788-2.36C155.681,159.087,156.222,158.982,156.728,158.806z"
					/>
				<path style="fill:#B01A1F;" d="M172.802,94.442c-0.456-6.19-0.03-14.158-5.763-18.192c-0.382-0.269-0.803-0.503-1.265-0.569
					c-0.462-0.066-0.973,0.063-1.274,0.42c-0.681,0.807,0.365,1.97,0.851,2.584c1.073,1.357,3.238,3.127,3.384,4.943
					c0.089,1.11-0.996,1.501-1.881,1.703c-1.952,0.446-3.973,0.419-5.964,0.399c-0.871-0.009-1.903-0.057-2.736,0.226
					c-0.874,0.297-0.881,0.793-0.269,1.284c0.748,0.6,2.331,0.446,3.21,0.377c1.88-0.149,3.812-0.102,5.693,0.078
					c2.238,0.214,3.579,1.646,4.136,3.77c0.562,2.143,0.332,4.415,1.082,6.524c0.067,0.188,0.313,0.122,0.418,0.008
					c0.357-0.387,0.412-0.978,0.44-1.479C172.9,95.826,172.852,95.131,172.802,94.442z"/>
				<path style="fill:#FFFFFF;" d="M101.367,69.266c-1.066,0.835-2.286,1.451-3.353,2.285c-1.063,0.83-1.911,1.873-2.666,2.982
					c-0.767,1.126-1.428,2.306-1.867,3.6c-0.421,1.241-0.666,2.541-0.758,3.848c-0.054,0.757-0.069,1.519-0.065,2.278
					c0.004,0.727,0.021,1.467,0.168,2.181c0.021,0.102,0.187,0.016,0.188-0.061c0.017-1.317,0.174-2.619,0.276-3.93
					c0.101-1.294,0.29-2.589,0.661-3.834c0.375-1.259,0.951-2.399,1.661-3.499c0.719-1.114,1.5-2.195,2.513-3.062
					c1.09-0.932,2.323-1.674,3.359-2.673C101.575,69.293,101.459,69.194,101.367,69.266z"/>
				<path style="fill:#FFFFFF;" d="M104.09,166.775c-2.42-1.203-4.749-2.771-6.505-4.848c-1.597-1.89-2.7-4.104-3.394-6.47
					c-0.388-1.322-0.574-2.66-0.816-4.011c-0.016-0.088-0.15-0.008-0.156,0.051c-0.134,1.255,0.035,2.563,0.292,3.792
					c0.256,1.224,0.684,2.409,1.225,3.535c1.092,2.276,2.708,4.309,4.754,5.799c1.342,0.978,2.891,1.757,4.432,2.369
					C104.025,167.031,104.213,166.836,104.09,166.775z"/>
				<path style="fill:#FFFFFF;" d="M181.001,152.044c-0.012-0.104-0.195-0.019-0.195,0.063c0,0.63-0.126,1.283-0.267,1.895
					c-0.139,0.603-0.31,1.195-0.515,1.779c-0.413,1.178-0.956,2.315-1.576,3.397c-1.204,2.101-2.801,3.96-4.797,5.344
					c-1.262,0.874-2.678,1.496-3.945,2.361c-0.097,0.066-0.052,0.216,0.071,0.156c1.285-0.625,2.627-1.157,3.837-1.925
					c1.073-0.681,2.046-1.524,2.907-2.456c1.705-1.847,3.029-4.093,3.893-6.45c0.251-0.684,0.463-1.391,0.579-2.112
					C181.103,153.399,181.085,152.738,181.001,152.044z"/>
				<path style="fill:#FFFFFF;" d="M180.479,77.866c-0.501-1.361-1.299-2.638-2.257-3.725c-0.274-0.311-0.568-0.605-0.873-0.886
					c-0.318-0.292-0.666-0.538-0.995-0.816c-0.07-0.06-0.238,0.075-0.168,0.145c0.328,0.326,0.615,0.705,0.911,1.061
					c0.281,0.338,0.557,0.68,0.827,1.028c0.562,0.723,1.073,1.493,1.49,2.309c0.839,1.64,1.326,3.497,1.32,5.343
					c0,0.123,0.178,0.048,0.19-0.04C181.138,80.787,181.003,79.288,180.479,77.866z"/>
			</g>
			<path style="fill:#C9CACC;" d="M141.539,44.656c0,0-0.477,0-0.808,0c-0.33,0-0.808,0.138-0.808,0.803c0,0.665,0,10.908,0,10.908
				h-7.301c0,0,3.076,2.808,8.916,2.73c5.84-0.078,11.099-2.73,11.099-2.73h-9.574V46.144
				C143.063,46.144,143.511,44.478,141.539,44.656z"/>
		</g>
		<path d="M148.955,110.598l-1.423,5.127h-4.682l6.105-19.975h5.927l6.194,19.975h-4.86l-1.541-5.127H148.955z M154.023,107.22
			l-1.245-4.238c-0.356-1.186-0.711-2.667-1.007-3.853h-0.059c-0.297,1.185-0.593,2.697-0.919,3.853l-1.185,4.238H154.023z"/>
	</g>
	<g>
		<path style="fill:#D27A57;" d="M355.732,128.739c0.758,0.176,1.523,0.308,2.284,0.39c3.263,0.354,6.85-0.138,9.501-2.211
			c2.173-1.698,3.562-4.313,4.495-6.857c1.042-2.841,1.607-5.958,1.27-8.984c-0.153-1.374-0.517-2.745-1.183-3.962
			c-0.417-0.762-0.953-1.445-1.589-2.021c-0.408-0.297-0.816-0.592-1.213-0.896c-0.18-0.138-0.018-0.43,0.186-0.309
			c0.303,0.18,0.594,0.378,0.87,0.596c0.155,0.122,0.302,0.25,0.444,0.381c0.205,0.15,0.41,0.3,0.615,0.45
			c0.97,0.713,1.935,1.452,2.728,2.365c0.054,0.062,0.103,0.126,0.155,0.189c-0.155-0.525-0.323-1.046-0.518-1.554
			c-0.044-0.115-0.092-0.227-0.138-0.34c-1.474-3.594-5.417-6.378-8.66-8.166c-5.237-2.887-11.15-4.897-17.067-5.771
			c-2.673-0.395-5.373-0.546-8.072-0.611c-2.43-0.058-4.88-0.134-7.31-0.057c-2.253,0.071-4.543,0.41-6.507,1.591
			c-2.104,1.265-3.908,3.017-5.707,4.67c-1.864,1.714-3.798,3.32-5.933,4.69c-1.039,0.667-2.117,1.252-3.238,1.769
			c-0.925,0.426-1.862,0.878-2.537,1.667c-0.972,1.137-1.222,2.835-0.432,4.129c0.715,1.171,2.049,1.858,3.3,2.303
			c1.354,0.482,2.813,0.665,4.244,0.583c4.795-0.276,9.213-2.314,13.889-3.198c2.555-0.483,5.031-0.341,7.499,0.493
			c2.181,0.737,4.417,1.794,5.965,3.545c1.355,1.533,2.176,3.422,3.061,5.243c0.959,1.97,2.044,3.846,3.521,5.478
			C351.358,126.214,353.435,127.722,355.732,128.739z"/>
		<path style="fill:#FAD6BE;" d="M371.295,124.539c-1.008,1.539-2.331,2.842-3.883,3.83c-0.111,0.071-0.226,0.135-0.34,0.203
			c-0.428,0.367-0.911,0.673-1.468,0.888c-0.931,0.36-1.972,0.444-2.962,0.398c-1.111-0.052-2.207-0.294-3.257-0.654
			c-1.095-0.375-2.147-0.874-3.16-1.43c-0.961-0.528-1.93-1.085-2.823-1.722c-1.143-0.816-2.121-1.812-2.977-2.911
			c-0.703-0.836-1.333-1.734-1.875-2.675c-0.386-0.672-0.733-1.365-1.071-2.062c-0.355-0.644-0.709-1.289-1.077-1.925
			c-0.049-0.084-0.02-0.162,0.036-0.212c-0.211-0.415-0.428-0.827-0.661-1.231c-0.981-1.7-2.264-3.17-3.965-4.18
			c-2.128-1.264-4.548-2.172-7-2.521c-4.753-0.676-9.389,1.361-13.895,2.555c-3.233,0.857-6.696,1.508-9.833-0.015
			c-1.06-0.515-2.16-1.347-2.299-2.607c-0.081-0.735,0.147-1.579,0.613-2.154c0.612-0.754,1.601-1.127,2.457-1.525
			c2.216-1.029,4.249-2.42,6.167-3.924c1.909-1.498,3.608-3.238,5.474-4.786c1.738-1.442,3.62-2.81,5.871-3.276
			c2.1-0.435,4.258-0.322,6.388-0.303c5.276,0.046,10.619,0.122,15.766,1.413c2.411,0.605,4.805,1.352,7.124,2.253
			c0.499,0.154,0.997,0.311,1.493,0.477c2.247,0.752,4.478,1.664,6.422,3.04c0.258,0.183,0.509,0.374,0.752,0.572
			c-0.001-0.014-0.005-0.029-0.015-0.043c-0.048-0.071-0.1-0.139-0.151-0.207c1.937,1.419,3.582,3.191,4.709,5.455
			c1.479,2.971,2.096,6.408,2.044,9.709C373.847,118.296,373.141,121.721,371.295,124.539z"/>
		<path style="fill:#FAD6BE;" d="M310.313,106.441c0.573-0.519,1.216-0.941,1.879-1.336c0.876-0.523,1.743-1.059,2.605-1.603
			c1.705-1.076,3.419-2.15,5.067-3.311c1.597-1.125,3.142-2.322,4.75-3.433c1.443-0.997,2.923-1.936,4.579-2.539
			c1.456-0.531,2.991-0.807,4.535-0.892c1.629-0.09,3.263,0.028,4.88,0.232c1.989,0.251,3.961,0.608,5.914,1.058
			c2.613,0.602,5.186,1.361,7.73,2.209c-1.539-0.599-3.113-1.113-4.702-1.565c-2.556-0.727-5.15-1.333-7.753-1.862
			c-2.478-0.504-4.977-0.866-7.512-0.722c-1.984,0.113-3.928,0.483-5.806,1.067c-1.058,0.605-2.041,1.357-2.98,2.136
			c-1.866,1.548-3.565,3.287-5.474,4.786c-1.918,1.505-3.951,2.896-6.167,3.924c-0.856,0.397-1.844,0.77-2.457,1.525
			c-0.467,0.575-0.694,1.418-0.613,2.154c0.017,0.158,0.05,0.31,0.096,0.455C309.053,107.847,309.632,107.058,310.313,106.441z"/>
		<path style="opacity:0.69;fill:#FAD6BE;" d="M348.99,119.365c-0.859-2.315-1.398-4.736-2.276-7.044
			c-0.426-1.119-0.939-2.213-1.615-3.205c-0.743-1.089-1.696-2-2.79-2.734c-2.552-1.712-5.645-2.229-8.668-2.04
			c-3.03,0.19-6,1.027-8.826,2.103c-2.546,0.969-4.94,2.308-7.54,3.14c-2.432,0.779-5.295,1.145-7.567-0.299
			c-0.319-0.203-0.601-0.439-0.854-0.698c0.275,1.081,1.266,1.818,2.232,2.287c3.138,1.523,6.6,0.872,9.833,0.015
			c4.506-1.194,9.142-3.231,13.895-2.555c2.452,0.349,4.873,1.257,7,2.521c1.701,1.011,2.984,2.48,3.965,4.18
			c0.233,0.404,0.45,0.815,0.661,1.231c-0.056,0.05-0.085,0.128-0.036,0.212c0.367,0.636,0.722,1.281,1.077,1.925
			c0.338,0.697,0.684,1.39,1.071,2.062c0.541,0.941,1.171,1.839,1.875,2.675c0.766,0.983,1.637,1.876,2.629,2.64
			C351.223,123.964,349.884,121.777,348.99,119.365z"/>
		<path style="opacity:0.69;fill:#FAD6BE;" d="M341.845,93.45c2.965,0.698,5.934,1.383,8.868,2.204
			c2.608,0.729,5.187,1.549,7.641,2.703c2.28,1.073,4.457,2.382,6.428,3.954c1.852,1.478,3.555,3.221,4.854,5.211
			c1.183,1.812,1.941,3.874,2.355,5.992c0.608,3.111,0.536,6.297,0.194,9.445c1.189-2.47,1.673-5.263,1.717-7.991
			c0.053-3.301-0.565-6.738-2.044-9.709c-1.127-2.264-2.772-4.036-4.709-5.455c0.051,0.068,0.103,0.136,0.151,0.207
			c0.01,0.015,0.014,0.029,0.015,0.043c-0.244-0.198-0.494-0.389-0.752-0.572c-1.944-1.376-4.175-2.288-6.422-3.04
			c-0.495-0.166-0.994-0.323-1.493-0.477c-2.319-0.901-4.712-1.648-7.124-2.253c-4.737-1.188-9.64-1.347-14.503-1.4
			C338.641,92.624,340.241,93.072,341.845,93.45z"/>
	</g>
	<path style="fill:#FAD6BE;" d="M134.016,101.577c0.712,0.543,1.41,1.114,2.153,1.614c1.19,0.799,2.471,1.455,3.694,2.2
		c1.153,0.702,2.388,1.481,3.181,2.601c0.411,0.581,0.683,1.237,0.701,1.956c0.015,0.595-0.128,1.195-0.454,1.688
		c-0.047-1.236-0.678-2.352-1.509-3.268c-1.894-2.087-4.505-3.307-6.783-4.899c-0.715-0.499-1.352-1.1-2.005-1.676
		c-0.823-0.726-1.64-1.46-2.442-2.211c-0.858-0.803-1.696-1.628-2.51-2.475c1.176,0.853,2.342,1.719,3.501,2.594
		C132.369,100.323,133.193,100.95,134.016,101.577z"/>
	<path style="fill:#B97115;" d="M57.935,104.078c0.001-0.001,0.001-0.001,0.002-0.002c0.151-0.173,0.303-0.344,0.456-0.516
		c0.082-0.091,0.163-0.183,0.246-0.273c0.136-0.15,0.272-0.299,0.41-0.447c0.113-0.122,0.229-0.242,0.343-0.362
		c0.118-0.123,0.235-0.248,0.354-0.369c0.226-0.23,0.456-0.457,0.689-0.68c0.086-0.082,0.174-0.161,0.261-0.242
		c0.171-0.16,0.344-0.318,0.519-0.473c0.096-0.085,0.194-0.169,0.292-0.252c0.181-0.155,0.365-0.307,0.552-0.456
		c0.088-0.071,0.176-0.143,0.265-0.212c0.276-0.214,0.556-0.424,0.844-0.625c0.192-0.134,0.388-0.265,0.583-0.397
		c-0.181,0.148-0.362,0.299-0.544,0.445C61.338,100.715,59.581,102.343,57.935,104.078z"/>
	<g>
		<path style="fill:#D27A57;" d="M76.499,132.582c-0.758,0.176-1.523,0.307-2.284,0.39c-3.264,0.354-6.85-0.138-9.502-2.211
			c-2.173-1.698-3.562-4.313-4.495-6.857c-1.042-2.841-1.607-5.958-1.27-8.984c0.153-1.374,0.517-2.745,1.183-3.962
			c0.417-0.762,0.953-1.445,1.589-2.021c0.408-0.296,0.816-0.592,1.213-0.896c0.18-0.138,0.018-0.43-0.186-0.309
			c-0.303,0.179-0.594,0.377-0.87,0.595c-0.155,0.122-0.302,0.25-0.444,0.381c-0.205,0.15-0.41,0.3-0.615,0.45
			c-0.97,0.713-1.935,1.452-2.728,2.365c-0.054,0.062-0.103,0.126-0.155,0.189c0.155-0.525,0.323-1.046,0.518-1.554
			c0.044-0.115,0.092-0.227,0.138-0.34c1.474-3.594,5.417-6.378,8.66-8.166c5.237-2.887,11.149-4.897,17.067-5.771
			c2.673-0.395,5.373-0.546,8.072-0.611c2.43-0.058,4.88-0.134,7.31-0.057c2.253,0.071,4.543,0.41,6.506,1.591
			c2.105,1.265,3.908,3.017,5.707,4.67c1.864,1.714,3.799,3.32,5.933,4.69c1.039,0.667,2.117,1.252,3.238,1.769
			c0.925,0.426,1.862,0.878,2.537,1.667c0.972,1.137,1.222,2.835,0.432,4.129c-0.715,1.171-2.049,1.858-3.3,2.303
			c-1.354,0.482-2.813,0.665-4.244,0.582c-4.795-0.276-9.213-2.314-13.889-3.198c-2.555-0.483-5.03-0.341-7.499,0.493
			c-2.181,0.737-4.417,1.794-5.964,3.545c-1.355,1.533-2.176,3.422-3.061,5.243c-0.959,1.97-2.044,3.846-3.521,5.478
			C80.872,130.056,78.795,131.564,76.499,132.582z"/>
		<path style="fill:#FAD6BE;" d="M60.936,128.381c1.008,1.539,2.331,2.842,3.883,3.83c0.111,0.071,0.226,0.135,0.34,0.203
			c0.428,0.367,0.911,0.673,1.468,0.888c0.931,0.36,1.972,0.444,2.962,0.398c1.111-0.052,2.207-0.294,3.257-0.654
			c1.095-0.375,2.147-0.874,3.16-1.43c0.961-0.528,1.93-1.085,2.823-1.723c1.144-0.816,2.121-1.812,2.977-2.911
			c0.704-0.836,1.334-1.734,1.875-2.675c0.386-0.672,0.733-1.365,1.071-2.062c0.355-0.644,0.709-1.289,1.076-1.925
			c0.049-0.084,0.02-0.162-0.036-0.212c0.211-0.415,0.428-0.827,0.661-1.231c0.981-1.7,2.264-3.17,3.965-4.181
			c2.128-1.264,4.548-2.172,7-2.521c4.752-0.676,9.389,1.361,13.895,2.555c3.233,0.857,6.696,1.508,9.833-0.015
			c1.06-0.514,2.16-1.347,2.299-2.607c0.081-0.735-0.147-1.579-0.613-2.154c-0.612-0.754-1.601-1.127-2.457-1.525
			c-2.216-1.029-4.249-2.42-6.167-3.924c-1.91-1.498-3.608-3.238-5.474-4.785c-1.738-1.442-3.621-2.81-5.871-3.276
			c-2.1-0.435-4.258-0.322-6.388-0.303c-5.275,0.046-10.619,0.122-15.766,1.413c-2.412,0.605-4.805,1.352-7.124,2.253
			c-0.499,0.154-0.997,0.311-1.493,0.477c-2.247,0.752-4.478,1.664-6.422,3.04c-0.258,0.183-0.509,0.374-0.752,0.572
			c0.001-0.014,0.005-0.028,0.015-0.043c0.048-0.071,0.1-0.139,0.151-0.207c-1.937,1.419-3.582,3.191-4.709,5.455
			c-1.479,2.971-2.096,6.408-2.044,9.71C58.384,122.138,59.09,125.563,60.936,128.381z"/>
		<path style="fill:#FAD6BE;" d="M121.918,110.283c-0.573-0.519-1.217-0.941-1.879-1.336c-0.875-0.523-1.743-1.059-2.605-1.603
			c-1.705-1.076-3.419-2.15-5.067-3.311c-1.597-1.125-3.142-2.322-4.75-3.432c-1.443-0.997-2.923-1.936-4.579-2.539
			c-1.456-0.531-2.991-0.807-4.535-0.892c-1.629-0.09-3.263,0.028-4.88,0.232c-1.989,0.251-3.961,0.608-5.914,1.058
			c-2.613,0.602-5.186,1.361-7.73,2.209c1.54-0.599,3.113-1.113,4.702-1.565c2.556-0.727,5.149-1.333,7.753-1.862
			c2.478-0.504,4.977-0.866,7.512-0.722c1.984,0.113,3.928,0.483,5.806,1.067c1.058,0.605,2.041,1.357,2.98,2.136
			c1.866,1.548,3.565,3.287,5.474,4.785c1.918,1.505,3.951,2.896,6.167,3.924c0.856,0.397,1.844,0.77,2.457,1.525
			c0.466,0.575,0.694,1.419,0.613,2.154c-0.018,0.158-0.05,0.31-0.096,0.455C123.178,111.689,122.599,110.901,121.918,110.283z"/>
		<path style="opacity:0.69;fill:#FAD6BE;" d="M83.241,123.207c0.859-2.315,1.398-4.736,2.276-7.044
			c0.425-1.119,0.939-2.213,1.615-3.205c0.743-1.089,1.696-2,2.79-2.734c2.552-1.712,5.645-2.229,8.668-2.04
			c3.03,0.19,6,1.027,8.826,2.103c2.546,0.969,4.94,2.308,7.539,3.14c2.432,0.779,5.295,1.145,7.567-0.299
			c0.319-0.203,0.601-0.439,0.854-0.698c-0.275,1.081-1.266,1.818-2.232,2.287c-3.138,1.523-6.6,0.872-9.833,0.015
			c-4.506-1.194-9.142-3.231-13.895-2.555c-2.452,0.349-4.873,1.257-7,2.521c-1.701,1.011-2.984,2.48-3.965,4.181
			c-0.233,0.404-0.45,0.815-0.661,1.231c0.056,0.05,0.085,0.128,0.036,0.212c-0.367,0.636-0.722,1.281-1.076,1.925
			c-0.338,0.697-0.684,1.39-1.071,2.062c-0.541,0.941-1.171,1.839-1.875,2.675c-0.766,0.983-1.637,1.876-2.629,2.64
			C81.008,127.806,82.346,125.619,83.241,123.207z"/>
		<path style="opacity:0.69;fill:#FAD6BE;" d="M90.386,97.292c-2.965,0.698-5.934,1.383-8.868,2.204
			c-2.607,0.729-5.187,1.549-7.641,2.703c-2.28,1.072-4.457,2.382-6.428,3.954c-1.852,1.478-3.555,3.221-4.854,5.211
			c-1.183,1.813-1.941,3.874-2.355,5.992c-0.608,3.111-0.535,6.297-0.194,9.445c-1.189-2.471-1.673-5.263-1.717-7.991
			c-0.053-3.302,0.565-6.738,2.044-9.71c1.127-2.264,2.772-4.036,4.709-5.455c-0.051,0.068-0.103,0.136-0.151,0.207
			c-0.01,0.015-0.014,0.029-0.015,0.043c0.244-0.198,0.494-0.389,0.752-0.572c1.944-1.376,4.175-2.288,6.422-3.04
			c0.495-0.166,0.994-0.323,1.493-0.477c2.319-0.901,4.712-1.648,7.124-2.253c4.736-1.188,9.64-1.347,14.503-1.4
			C93.59,96.466,91.989,96.914,90.386,97.292z"/>
	</g>
</g>
</svg>
